{"glyphs":{"0":{"ha":893,"x_min":56,"x_max":838,"o":"m 249 486 q 263 620 249 560 q 303 724 276 681 q 365 792 329 768 q 446 815 401 815 q 528 792 492 815 q 590 724 564 768 q 631 620 617 681 q 644 486 644 560 q 631 352 644 413 q 590 248 617 292 q 528 181 564 204 q 446 157 492 157 q 365 181 401 157 q 303 248 329 204 q 263 352 276 292 q 249 486 249 413 m 56 486 q 105 219 56 332 q 242 45 154 107 q 446 -17 331 -17 q 653 45 565 -17 q 789 219 740 107 q 838 486 838 332 q 789 753 838 640 q 653 927 740 865 q 446 989 565 989 q 242 927 331 989 q 105 753 154 865 q 56 486 56 640 z "},"1":{"ha":682,"x_min":99,"x_max":525,"o":"m 99 719 l 332 781 l 332 0 l 525 0 l 525 989 l 99 899 l 99 719 z "},"2":{"ha":874,"x_min":28,"x_max":810,"o":"m 28 0 l 810 0 l 810 182 l 403 182 l 656 421 q 754 544 717 476 q 792 690 792 613 q 770 796 792 743 q 705 892 749 849 q 595 963 661 936 q 442 990 529 990 q 242 941 324 990 q 119 808 161 892 q 78 621 78 725 l 272 621 q 292 724 272 679 q 349 792 313 768 q 438 817 386 817 q 501 805 474 817 q 549 774 529 793 q 578 729 568 754 q 588 678 588 704 q 574 606 588 640 q 533 536 560 571 q 469 461 507 501 l 28 0 z "},"3":{"ha":829,"x_min":71,"x_max":782,"o":"m 372 474 q 568 503 482 474 q 704 588 654 532 q 754 724 754 644 q 717 857 754 797 q 608 953 679 917 q 435 989 536 989 q 267 951 339 989 q 153 849 194 914 q 113 701 113 785 l 297 701 q 337 791 297 756 q 435 826 376 826 q 503 813 476 826 q 543 772 529 799 q 557 711 557 746 q 544 658 557 683 q 507 612 531 632 q 449 581 483 592 q 372 569 415 569 l 372 474 m 426 -19 q 615 16 535 -19 q 738 115 694 51 q 782 263 782 179 q 751 388 782 336 q 665 474 721 440 q 535 524 610 508 q 372 539 461 539 l 372 433 q 463 423 424 433 q 530 393 503 413 q 571 345 557 374 q 585 283 585 317 q 565 207 585 238 q 512 160 546 176 q 432 144 478 144 q 350 162 388 144 q 290 213 313 179 q 268 293 268 246 l 71 293 q 96 174 71 231 q 167 74 121 118 q 278 6 213 31 q 426 -19 343 -19 z "},"4":{"ha":919,"x_min":22,"x_max":867,"o":"m 22 179 l 867 179 l 867 349 l 668 349 l 644 328 l 297 328 l 526 656 l 526 260 l 510 244 l 510 0 l 714 0 l 714 972 l 579 972 l 22 179 z "},"5":{"ha":861,"x_min":54,"x_max":806,"o":"m 806 314 q 765 485 806 414 q 657 596 724 557 q 511 635 590 635 q 427 627 468 635 q 350 600 386 619 l 408 800 l 790 800 l 790 972 l 261 972 l 128 425 q 223 467 178 453 q 311 488 268 482 q 393 494 354 494 q 491 476 446 494 q 563 421 536 457 q 590 332 590 385 q 567 241 590 278 q 499 185 543 204 q 393 165 456 165 q 308 181 353 165 q 223 225 264 197 q 147 288 182 253 l 54 133 q 147 59 94 93 q 270 4 200 25 q 429 -17 340 -17 q 567 3 500 -17 q 688 63 633 22 q 774 165 742 103 q 806 314 806 228 z "},"6":{"ha":889,"x_min":69,"x_max":819,"o":"m 264 335 q 288 431 264 389 q 352 497 311 474 q 444 519 393 519 q 537 497 496 519 q 601 431 578 474 q 625 335 625 389 q 601 238 625 279 q 537 174 578 197 q 444 151 496 151 q 352 174 393 151 q 288 238 311 197 q 264 335 264 279 m 461 969 l 167 583 q 97 469 125 531 q 69 335 69 407 q 120 142 69 221 q 256 22 171 63 q 444 -19 340 -19 q 633 22 549 -19 q 769 142 718 63 q 819 335 819 221 q 794 464 819 406 q 728 564 769 522 q 633 628 686 606 q 524 650 579 650 q 437 639 472 650 q 365 590 401 628 l 401 603 l 713 969 l 461 969 z "},"7":{"ha":804,"x_min":42,"x_max":800,"o":"m 42 786 l 508 786 l 118 0 l 332 0 l 800 972 l 42 972 l 42 786 z "},"8":{"ha":836,"x_min":74,"x_max":763,"o":"m 108 738 q 134 626 108 674 q 203 546 160 578 q 303 497 247 514 q 418 481 358 481 q 533 497 478 481 q 633 546 589 514 q 702 626 676 578 q 728 738 728 674 q 685 872 728 815 q 573 960 643 929 q 418 992 503 992 q 262 960 332 992 q 150 872 192 929 q 108 738 108 815 m 294 718 q 310 783 294 754 q 354 828 326 813 q 418 843 382 843 q 482 828 454 843 q 525 783 510 813 q 540 718 540 754 q 524 653 540 681 q 481 609 508 625 q 418 593 453 593 q 356 609 383 593 q 311 653 328 625 q 294 718 294 681 m 74 264 q 101 148 74 200 q 176 58 128 96 q 287 1 225 21 q 418 -19 349 -19 q 549 1 488 -19 q 659 58 611 21 q 735 148 707 96 q 763 264 763 200 q 732 391 763 338 q 651 479 701 444 q 539 531 600 514 q 418 547 478 547 q 297 531 358 547 q 185 479 236 514 q 104 391 135 444 q 74 264 74 338 m 269 293 q 290 367 269 333 q 344 419 310 400 q 418 439 378 439 q 491 419 457 439 q 546 367 525 400 q 567 293 567 333 q 546 212 567 244 q 491 162 525 179 q 418 144 457 144 q 344 162 378 144 q 290 212 310 179 q 269 293 269 244 z "},"9":{"ha":889,"x_min":69,"x_max":819,"o":"m 625 638 q 601 542 625 583 q 537 476 578 500 q 444 453 496 453 q 352 476 393 453 q 288 542 311 500 q 264 638 264 583 q 288 734 264 693 q 352 798 311 775 q 444 821 393 821 q 537 798 496 821 q 601 734 578 775 q 625 638 625 693 m 428 3 l 724 389 q 792 503 764 442 q 819 638 819 565 q 769 831 819 751 q 633 951 718 910 q 444 992 549 992 q 256 951 340 992 q 120 831 171 910 q 69 638 69 751 q 94 508 69 567 q 162 408 119 450 q 257 344 204 367 q 365 322 310 322 q 453 334 417 322 q 524 382 489 346 l 489 369 l 176 3 l 428 3 z "}," ":{"ha":417,"x_min":0,"x_max":0,"o":""}," ":{"ha":417,"x_min":0,"x_max":0,"o":""},"A":{"ha":988,"x_min":1,"x_max":988,"o":"m 240 221 l 754 221 l 731 378 l 264 378 l 240 221 m 494 657 l 640 319 l 638 269 l 763 0 l 988 0 l 494 1029 l 1 0 l 225 0 l 353 278 l 349 322 l 494 657 z "},"À":{"ha":988,"x_min":1,"x_max":988,"o":"m 240 221 l 754 221 l 731 378 l 264 378 l 240 221 m 494 657 l 640 319 l 638 269 l 763 0 l 988 0 l 494 1029 l 1 0 l 225 0 l 353 278 l 349 322 l 494 657 m 283 1321 l 533 1113 l 635 1167 l 426 1389 l 283 1321 z "},"Á":{"ha":988,"x_min":1,"x_max":988,"o":"m 240 221 l 754 221 l 731 378 l 264 378 l 240 221 m 494 657 l 640 319 l 638 269 l 763 0 l 988 0 l 494 1029 l 1 0 l 225 0 l 353 278 l 349 322 l 494 657 m 701 1321 l 558 1389 l 350 1167 l 451 1113 l 701 1321 z "},"Â":{"ha":988,"x_min":1,"x_max":988,"o":"m 240 221 l 754 221 l 731 378 l 264 378 l 240 221 m 494 657 l 640 319 l 638 269 l 763 0 l 988 0 l 494 1029 l 1 0 l 225 0 l 353 278 l 349 322 l 494 657 m 494 1204 l 629 1082 l 751 1167 l 494 1361 l 236 1167 l 360 1082 l 494 1204 z "},"Ã":{"ha":988,"x_min":1,"x_max":988,"o":"m 240 221 l 754 221 l 731 378 l 264 378 l 240 221 m 494 657 l 640 319 l 638 269 l 763 0 l 988 0 l 494 1029 l 1 0 l 225 0 l 353 278 l 349 322 l 494 657 m 235 1176 l 326 1101 q 332 1129 326 1113 q 352 1159 338 1146 q 393 1172 367 1172 q 454 1154 426 1172 q 512 1118 482 1136 q 579 1100 542 1100 q 655 1118 619 1100 q 716 1163 690 1136 q 753 1214 742 1189 l 665 1303 q 624 1251 644 1269 q 579 1232 603 1232 q 530 1242 550 1232 q 492 1267 510 1253 q 451 1291 475 1281 q 394 1301 428 1301 q 321 1284 356 1301 q 264 1239 286 1267 q 235 1176 242 1211 z "},"Ä":{"ha":988,"x_min":1,"x_max":988,"o":"m 240 221 l 754 221 l 731 378 l 264 378 l 240 221 m 494 657 l 640 319 l 638 269 l 763 0 l 988 0 l 494 1029 l 1 0 l 225 0 l 353 278 l 349 322 l 494 657 m 564 1161 q 596 1089 564 1118 q 672 1060 628 1060 q 748 1089 717 1060 q 779 1161 779 1118 q 748 1235 779 1206 q 672 1264 717 1264 q 596 1235 628 1264 q 564 1161 564 1206 m 203 1168 q 235 1094 203 1124 q 311 1065 267 1065 q 387 1094 356 1065 q 418 1168 418 1124 q 387 1241 418 1213 q 311 1269 356 1269 q 235 1241 267 1269 q 203 1168 203 1213 z "},"Å":{"ha":988,"x_min":1,"x_max":988,"o":"m 240 221 l 754 221 l 731 378 l 264 378 l 240 221 m 494 657 l 640 319 l 638 269 l 763 0 l 988 0 l 494 1029 l 1 0 l 225 0 l 353 278 l 349 322 l 494 657 m 331 1111 q 378 999 331 1042 q 493 957 426 957 q 609 999 560 957 q 658 1111 658 1042 q 609 1222 658 1179 q 493 1264 560 1264 q 378 1222 426 1264 q 331 1111 331 1179 m 428 1111 q 447 1161 428 1143 q 493 1179 467 1179 q 540 1161 519 1179 q 560 1111 560 1143 q 540 1060 560 1078 q 493 1043 519 1043 q 447 1060 467 1043 q 428 1111 428 1078 z "},"Ā":{"ha":988,"x_min":1,"x_max":988,"o":"m 240 221 l 754 221 l 731 378 l 264 378 l 240 221 m 494 657 l 640 319 l 638 269 l 763 0 l 988 0 l 494 1029 l 1 0 l 225 0 l 353 278 l 349 322 l 494 657 m 240 1113 l 747 1113 l 747 1271 l 240 1271 l 240 1113 z "},"Ă":{"ha":988,"x_min":1,"x_max":988,"o":"m 240 221 l 754 221 l 731 378 l 264 378 l 240 221 m 494 657 l 640 319 l 638 269 l 763 0 l 988 0 l 494 1029 l 1 0 l 225 0 l 353 278 l 349 322 l 494 657 m 268 1314 q 294 1214 268 1260 q 372 1140 321 1168 q 494 1113 422 1113 q 618 1140 568 1113 q 694 1214 668 1168 q 719 1314 719 1260 l 594 1314 q 583 1271 594 1292 q 550 1237 572 1250 q 494 1224 528 1224 q 438 1237 460 1224 q 405 1271 415 1250 q 394 1314 394 1292 l 268 1314 z "},"Ą":{"ha":988,"x_min":1,"x_max":992,"o":"m 240 221 l 754 221 l 731 378 l 264 378 l 240 221 m 494 657 l 640 319 l 638 269 l 763 0 l 988 0 l 494 1029 l 1 0 l 225 0 l 353 278 l 349 322 l 494 657 m 946 -162 q 916 -183 932 -176 q 876 -190 900 -190 q 836 -176 850 -190 q 822 -133 822 -162 q 837 -86 822 -110 q 877 -40 851 -62 q 939 0 903 -18 l 882 35 q 790 -20 833 10 q 720 -86 747 -50 q 693 -167 693 -122 q 714 -242 693 -210 q 772 -290 735 -274 q 858 -306 808 -306 q 944 -288 911 -306 q 992 -250 976 -271 l 946 -162 z "},"B":{"ha":876,"x_min":106,"x_max":813,"o":"m 254 493 l 429 493 q 600 520 526 493 q 715 600 674 547 q 757 726 757 653 q 715 864 757 810 q 600 945 674 918 q 429 972 526 972 l 106 972 l 106 0 l 450 0 q 640 29 558 0 q 767 119 722 58 q 813 276 813 181 q 783 400 813 349 q 701 484 753 451 q 585 532 650 517 q 450 547 521 547 l 254 547 l 254 439 l 432 439 q 501 431 469 439 q 558 406 533 424 q 595 363 582 389 q 608 301 608 338 q 585 219 608 251 q 522 173 563 188 q 432 158 482 158 l 304 158 l 304 814 l 411 814 q 515 785 476 814 q 553 700 553 756 q 535 638 553 664 q 486 597 518 611 q 411 583 454 583 l 254 583 l 254 493 z "},"C":{"ha":967,"x_min":50,"x_max":875,"o":"m 265 486 q 309 654 265 583 q 424 763 353 725 q 578 801 494 801 q 701 783 647 801 q 799 735 756 765 q 875 668 843 704 l 875 892 q 745 965 815 939 q 568 992 675 992 q 362 956 457 992 q 197 851 267 919 q 88 691 126 783 q 50 486 50 599 q 88 281 50 374 q 197 121 126 189 q 362 17 267 53 q 568 -19 457 -19 q 745 7 675 -19 q 875 81 815 33 l 875 304 q 799 238 843 268 q 701 189 756 207 q 578 171 647 171 q 424 209 494 171 q 309 319 353 247 q 265 486 265 390 z "},"Ç":{"ha":967,"x_min":50,"x_max":875,"o":"m 265 486 q 309 654 265 583 q 424 763 353 725 q 578 801 494 801 q 701 783 647 801 q 799 735 756 765 q 875 668 843 704 l 875 892 q 745 965 815 939 q 568 992 675 992 q 362 956 457 992 q 197 851 267 919 q 88 691 126 783 q 50 486 50 599 q 88 281 50 374 q 197 121 126 189 q 362 17 267 53 q 568 -19 457 -19 q 745 7 675 -19 q 875 81 815 33 l 875 304 q 799 238 843 268 q 701 189 756 207 q 578 171 647 171 q 424 209 494 171 q 309 319 353 247 q 265 486 265 390 m 507 72 l 386 -187 q 449 -168 418 -172 q 489 -164 479 -164 q 547 -174 524 -164 q 569 -210 569 -183 q 551 -248 569 -235 q 496 -261 532 -261 q 447 -253 474 -261 q 396 -226 421 -244 l 338 -310 q 422 -352 381 -340 q 514 -364 463 -364 q 596 -347 557 -364 q 660 -298 635 -331 q 686 -218 686 -265 q 667 -149 686 -176 q 621 -107 649 -121 q 567 -93 593 -93 q 547 -94 557 -93 q 528 -97 538 -94 l 638 68 l 507 72 z "},"Ć":{"ha":967,"x_min":50,"x_max":875,"o":"m 265 486 q 309 654 265 583 q 424 763 353 725 q 578 801 494 801 q 701 783 647 801 q 799 735 756 765 q 875 668 843 704 l 875 892 q 745 965 815 939 q 568 992 675 992 q 362 956 457 992 q 197 851 267 919 q 88 691 126 783 q 50 486 50 599 q 88 281 50 374 q 197 121 126 189 q 362 17 267 53 q 568 -19 457 -19 q 745 7 675 -19 q 875 81 815 33 l 875 304 q 799 238 843 268 q 701 189 756 207 q 578 171 647 171 q 424 209 494 171 q 309 319 353 247 q 265 486 265 390 m 749 1283 l 606 1351 l 397 1129 l 499 1075 l 749 1283 z "},"Ĉ":{"ha":967,"x_min":50,"x_max":875,"o":"m 265 486 q 309 654 265 583 q 424 763 353 725 q 578 801 494 801 q 701 783 647 801 q 799 735 756 765 q 875 668 843 704 l 875 892 q 745 965 815 939 q 568 992 675 992 q 362 956 457 992 q 197 851 267 919 q 88 691 126 783 q 50 486 50 599 q 88 281 50 374 q 197 121 126 189 q 362 17 267 53 q 568 -19 457 -19 q 745 7 675 -19 q 875 81 815 33 l 875 304 q 799 238 843 268 q 701 189 756 207 q 578 171 647 171 q 424 209 494 171 q 309 319 353 247 q 265 486 265 390 m 568 1199 l 703 1075 l 826 1161 l 568 1356 l 311 1161 l 433 1075 l 568 1199 z "},"Ċ":{"ha":967,"x_min":50,"x_max":875,"o":"m 265 486 q 309 654 265 583 q 424 763 353 725 q 578 801 494 801 q 701 783 647 801 q 799 735 756 765 q 875 668 843 704 l 875 892 q 745 965 815 939 q 568 992 675 992 q 362 956 457 992 q 197 851 267 919 q 88 691 126 783 q 50 486 50 599 q 88 281 50 374 q 197 121 126 189 q 362 17 267 53 q 568 -19 457 -19 q 745 7 675 -19 q 875 81 815 33 l 875 304 q 799 238 843 268 q 701 189 756 207 q 578 171 647 171 q 424 209 494 171 q 309 319 353 247 q 265 486 265 390 m 436 1178 q 468 1104 436 1133 q 544 1075 500 1075 q 622 1104 590 1075 q 653 1178 653 1133 q 622 1251 653 1222 q 544 1279 590 1279 q 468 1251 500 1279 q 436 1178 436 1222 z "},"Č":{"ha":967,"x_min":50,"x_max":875,"o":"m 265 486 q 309 654 265 583 q 424 763 353 725 q 578 801 494 801 q 701 783 647 801 q 799 735 756 765 q 875 668 843 704 l 875 892 q 745 965 815 939 q 568 992 675 992 q 362 956 457 992 q 197 851 267 919 q 88 691 126 783 q 50 486 50 599 q 88 281 50 374 q 197 121 126 189 q 362 17 267 53 q 568 -19 457 -19 q 745 7 675 -19 q 875 81 815 33 l 875 304 q 799 238 843 268 q 701 189 756 207 q 578 171 647 171 q 424 209 494 171 q 309 319 353 247 q 265 486 265 390 m 568 1232 l 433 1356 l 311 1269 l 568 1075 l 826 1269 l 703 1356 l 568 1232 z "},"D":{"ha":994,"x_min":106,"x_max":946,"o":"m 106 972 l 106 0 l 308 0 l 308 972 l 106 972 m 436 0 q 703 60 589 0 q 882 228 818 119 q 946 486 946 338 q 882 744 946 635 q 703 913 818 853 q 436 972 589 972 l 233 972 l 233 792 l 429 792 q 550 774 493 792 q 650 719 607 757 q 717 624 693 682 q 742 486 742 567 q 717 348 742 406 q 650 253 693 290 q 550 198 607 215 q 429 181 493 181 l 233 181 l 233 0 l 436 0 z "},"Ď":{"ha":994,"x_min":106,"x_max":946,"o":"m 106 972 l 106 0 l 308 0 l 308 972 l 106 972 m 436 0 q 703 60 589 0 q 882 228 818 119 q 946 486 946 338 q 882 744 946 635 q 703 913 818 853 q 436 972 589 972 l 233 972 l 233 792 l 429 792 q 550 774 493 792 q 650 719 607 757 q 717 624 693 682 q 742 486 742 567 q 717 348 742 406 q 650 253 693 290 q 550 198 607 215 q 429 181 493 181 l 233 181 l 233 0 l 436 0 m 501 1232 l 367 1356 l 244 1269 l 501 1075 l 760 1269 l 636 1356 l 501 1232 z "},"E":{"ha":814,"x_min":106,"x_max":724,"o":"m 233 0 l 724 0 l 724 168 l 233 168 l 233 0 m 233 804 l 724 804 l 724 972 l 233 972 l 233 804 m 233 433 l 696 433 l 696 599 l 233 599 l 233 433 m 106 972 l 106 0 l 297 0 l 297 972 l 106 972 z "},"È":{"ha":814,"x_min":106,"x_max":724,"o":"m 233 0 l 724 0 l 724 168 l 233 168 l 233 0 m 233 804 l 724 804 l 724 972 l 233 972 l 233 804 m 233 433 l 696 433 l 696 599 l 233 599 l 233 433 m 106 972 l 106 0 l 297 0 l 297 972 l 106 972 m 204 1290 l 454 1082 l 554 1135 l 346 1357 l 204 1290 z "},"É":{"ha":814,"x_min":106,"x_max":724,"o":"m 233 0 l 724 0 l 724 168 l 233 168 l 233 0 m 233 804 l 724 804 l 724 972 l 233 972 l 233 804 m 233 433 l 696 433 l 696 599 l 233 599 l 233 433 m 106 972 l 106 0 l 297 0 l 297 972 l 106 972 m 622 1290 l 479 1357 l 271 1135 l 372 1082 l 622 1290 z "},"Ê":{"ha":814,"x_min":106,"x_max":724,"o":"m 233 0 l 724 0 l 724 168 l 233 168 l 233 0 m 233 804 l 724 804 l 724 972 l 233 972 l 233 804 m 233 433 l 696 433 l 696 599 l 233 599 l 233 433 m 106 972 l 106 0 l 297 0 l 297 972 l 106 972 m 422 1199 l 557 1075 l 679 1161 l 422 1356 l 164 1161 l 288 1075 l 422 1199 z "},"Ë":{"ha":814,"x_min":106,"x_max":724,"o":"m 233 0 l 724 0 l 724 168 l 233 168 l 233 0 m 233 804 l 724 804 l 724 972 l 233 972 l 233 804 m 233 433 l 696 433 l 696 599 l 233 599 l 233 433 m 106 972 l 106 0 l 297 0 l 297 972 l 106 972 m 474 1193 q 506 1121 474 1150 q 582 1092 538 1092 q 659 1121 628 1092 q 690 1193 690 1150 q 659 1267 690 1238 q 582 1296 628 1296 q 506 1267 538 1296 q 474 1193 474 1238 m 154 1193 q 186 1121 154 1150 q 263 1092 218 1092 q 340 1121 308 1092 q 371 1193 371 1150 q 340 1267 371 1238 q 263 1296 308 1296 q 186 1267 218 1296 q 154 1193 154 1238 z "},"Ē":{"ha":814,"x_min":106,"x_max":724,"o":"m 233 0 l 724 0 l 724 168 l 233 168 l 233 0 m 233 804 l 724 804 l 724 972 l 233 972 l 233 804 m 233 433 l 696 433 l 696 599 l 233 599 l 233 433 m 106 972 l 106 0 l 297 0 l 297 972 l 106 972 m 161 1075 l 668 1075 l 668 1233 l 161 1233 l 161 1075 z "},"Ĕ":{"ha":814,"x_min":106,"x_max":724,"o":"m 233 0 l 724 0 l 724 168 l 233 168 l 233 0 m 233 804 l 724 804 l 724 972 l 233 972 l 233 804 m 233 433 l 696 433 l 696 599 l 233 599 l 233 433 m 106 972 l 106 0 l 297 0 l 297 972 l 106 972 m 189 1276 q 215 1176 189 1222 q 291 1103 240 1131 q 414 1075 342 1075 q 538 1103 488 1075 q 613 1176 588 1131 q 639 1276 639 1222 l 514 1276 q 503 1233 514 1254 q 469 1199 492 1213 q 414 1186 447 1186 q 358 1199 381 1186 q 325 1233 336 1213 q 314 1276 314 1254 l 189 1276 z "},"Ė":{"ha":814,"x_min":106,"x_max":724,"o":"m 233 0 l 724 0 l 724 168 l 233 168 l 233 0 m 233 804 l 724 804 l 724 972 l 233 972 l 233 804 m 233 433 l 696 433 l 696 599 l 233 599 l 233 433 m 106 972 l 106 0 l 297 0 l 297 972 l 106 972 m 306 1178 q 338 1104 306 1133 q 414 1075 369 1075 q 490 1104 458 1075 q 522 1178 522 1133 q 490 1251 522 1222 q 414 1279 458 1279 q 338 1251 369 1279 q 306 1178 306 1222 z "},"Ę":{"ha":814,"x_min":106,"x_max":724,"o":"m 233 0 l 724 0 l 724 168 l 233 168 l 233 0 m 233 804 l 724 804 l 724 972 l 233 972 l 233 804 m 233 433 l 696 433 l 696 599 l 233 599 l 233 433 m 106 972 l 106 0 l 297 0 l 297 972 l 106 972 m 540 -162 q 510 -183 526 -176 q 471 -190 493 -190 q 430 -176 444 -190 q 415 -133 415 -162 q 430 -86 415 -110 q 471 -40 444 -62 q 533 0 497 -18 l 476 35 q 384 -20 428 10 q 313 -86 340 -50 q 286 -167 286 -122 q 307 -242 286 -210 q 365 -290 328 -274 q 451 -306 401 -306 q 538 -288 504 -306 q 586 -250 571 -271 l 540 -162 z "},"Ě":{"ha":814,"x_min":106,"x_max":724,"o":"m 233 0 l 724 0 l 724 168 l 233 168 l 233 0 m 233 804 l 724 804 l 724 972 l 233 972 l 233 804 m 233 433 l 696 433 l 696 599 l 233 599 l 233 433 m 106 972 l 106 0 l 297 0 l 297 972 l 106 972 m 414 1232 l 279 1356 l 156 1269 l 414 1075 l 672 1269 l 549 1356 l 414 1232 z "},"F":{"ha":744,"x_min":106,"x_max":668,"o":"m 233 799 l 668 799 l 668 972 l 233 972 l 233 799 m 233 415 l 654 415 l 654 581 l 233 581 l 233 415 m 106 972 l 106 0 l 297 0 l 297 972 l 106 972 z "},"G":{"ha":1114,"x_min":50,"x_max":1061,"o":"m 578 361 l 857 361 q 821 279 844 317 q 763 213 797 242 q 682 167 729 183 q 575 151 635 151 q 413 193 485 151 q 300 310 342 235 q 258 486 258 386 q 301 661 258 588 q 415 774 343 735 q 575 814 488 814 q 733 774 668 814 q 833 671 797 735 l 1003 769 q 897 887 958 838 q 755 964 835 936 q 575 992 675 992 q 367 956 463 992 q 200 853 271 919 q 90 692 129 786 q 50 486 50 599 q 88 279 50 374 q 197 117 126 185 q 362 11 267 49 q 569 -26 457 -26 q 782 17 689 -26 q 938 135 875 60 q 1031 310 1001 211 q 1057 519 1061 408 l 578 519 l 578 361 z "},"Ĝ":{"ha":1114,"x_min":50,"x_max":1061,"o":"m 578 361 l 857 361 q 821 279 844 317 q 763 213 797 242 q 682 167 729 183 q 575 151 635 151 q 413 193 485 151 q 300 310 342 235 q 258 486 258 386 q 301 661 258 588 q 415 774 343 735 q 575 814 488 814 q 733 774 668 814 q 833 671 797 735 l 1003 769 q 897 887 958 838 q 755 964 835 936 q 575 992 675 992 q 367 956 463 992 q 200 853 271 919 q 90 692 129 786 q 50 486 50 599 q 88 279 50 374 q 197 117 126 185 q 362 11 267 49 q 569 -26 457 -26 q 782 17 689 -26 q 938 135 875 60 q 1031 310 1001 211 q 1057 519 1061 408 l 578 519 l 578 361 m 575 1199 l 710 1075 l 833 1161 l 575 1356 l 318 1161 l 440 1075 l 575 1199 z "},"Ğ":{"ha":1114,"x_min":50,"x_max":1061,"o":"m 578 361 l 857 361 q 821 279 844 317 q 763 213 797 242 q 682 167 729 183 q 575 151 635 151 q 413 193 485 151 q 300 310 342 235 q 258 486 258 386 q 301 661 258 588 q 415 774 343 735 q 575 814 488 814 q 733 774 668 814 q 833 671 797 735 l 1003 769 q 897 887 958 838 q 755 964 835 936 q 575 992 675 992 q 367 956 463 992 q 200 853 271 919 q 90 692 129 786 q 50 486 50 599 q 88 279 50 374 q 197 117 126 185 q 362 11 267 49 q 569 -26 457 -26 q 782 17 689 -26 q 938 135 875 60 q 1031 310 1001 211 q 1057 519 1061 408 l 578 519 l 578 361 m 350 1276 q 376 1176 350 1222 q 452 1103 401 1131 q 575 1075 503 1075 q 699 1103 649 1075 q 775 1176 749 1131 q 801 1276 801 1222 l 675 1276 q 665 1233 675 1254 q 632 1199 654 1213 q 575 1186 610 1186 q 519 1199 542 1186 q 486 1233 497 1213 q 475 1276 475 1254 l 350 1276 z "},"Ġ":{"ha":1114,"x_min":50,"x_max":1061,"o":"m 578 361 l 857 361 q 821 279 844 317 q 763 213 797 242 q 682 167 729 183 q 575 151 635 151 q 413 193 485 151 q 300 310 342 235 q 258 486 258 386 q 301 661 258 588 q 415 774 343 735 q 575 814 488 814 q 733 774 668 814 q 833 671 797 735 l 1003 769 q 897 887 958 838 q 755 964 835 936 q 575 992 675 992 q 367 956 463 992 q 200 853 271 919 q 90 692 129 786 q 50 486 50 599 q 88 279 50 374 q 197 117 126 185 q 362 11 267 49 q 569 -26 457 -26 q 782 17 689 -26 q 938 135 875 60 q 1031 310 1001 211 q 1057 519 1061 408 l 578 519 l 578 361 m 468 1178 q 499 1104 468 1133 q 575 1075 531 1075 q 652 1104 621 1075 q 683 1178 683 1133 q 652 1251 683 1222 q 575 1279 621 1279 q 499 1251 531 1279 q 468 1178 468 1222 z "},"Ģ":{"ha":1114,"x_min":50,"x_max":1061,"o":"m 578 361 l 857 361 q 821 279 844 317 q 763 213 797 242 q 682 167 729 183 q 575 151 635 151 q 413 193 485 151 q 300 310 342 235 q 258 486 258 386 q 301 661 258 588 q 415 774 343 735 q 575 814 488 814 q 733 774 668 814 q 833 671 797 735 l 1003 769 q 897 887 958 838 q 755 964 835 936 q 575 992 675 992 q 367 956 463 992 q 200 853 271 919 q 90 692 129 786 q 50 486 50 599 q 88 279 50 374 q 197 117 126 185 q 362 11 267 49 q 569 -26 457 -26 q 782 17 689 -26 q 938 135 875 60 q 1031 310 1001 211 q 1057 519 1061 408 l 578 519 l 578 361 m 511 -110 l 389 -469 l 524 -500 l 690 -153 l 511 -110 z "},"H":{"ha":1061,"x_min":106,"x_max":957,"o":"m 171 428 l 885 428 l 885 607 l 171 607 l 171 428 m 758 972 l 758 0 l 957 0 l 957 972 l 758 972 m 106 972 l 106 0 l 304 0 l 304 972 l 106 972 z "},"Ĥ":{"ha":1061,"x_min":106,"x_max":957,"o":"m 171 428 l 885 428 l 885 607 l 171 607 l 171 428 m 758 972 l 758 0 l 957 0 l 957 972 l 758 972 m 106 972 l 106 0 l 304 0 l 304 972 l 106 972 m 531 1199 l 667 1075 l 789 1161 l 531 1356 l 274 1161 l 396 1075 l 531 1199 z "},"I":{"ha":411,"x_min":106,"x_max":307,"o":"m 106 972 l 106 0 l 307 0 l 307 972 l 106 972 z "},"Ì":{"ha":411,"x_min":-11,"x_max":340,"o":"m 106 972 l 106 0 l 307 0 l 307 972 l 106 972 m -11 1290 l 239 1082 l 340 1135 l 132 1357 l -11 1290 z "},"Í":{"ha":411,"x_min":57,"x_max":407,"o":"m 106 972 l 106 0 l 307 0 l 307 972 l 106 972 m 407 1290 l 265 1357 l 57 1135 l 157 1082 l 407 1290 z "},"Î":{"ha":411,"x_min":-53,"x_max":464,"o":"m 106 972 l 106 0 l 307 0 l 307 972 l 106 972 m 206 1199 l 340 1075 l 464 1161 l 206 1356 l -53 1161 l 71 1075 l 206 1199 z "},"Ï":{"ha":411,"x_min":-61,"x_max":474,"o":"m 106 972 l 106 0 l 307 0 l 307 972 l 106 972 m 258 1178 q 290 1104 258 1133 q 365 1075 321 1075 q 442 1104 411 1075 q 474 1178 474 1133 q 442 1251 474 1222 q 365 1279 411 1279 q 290 1251 321 1279 q 258 1178 258 1222 m -61 1178 q -30 1104 -61 1133 q 46 1075 1 1075 q 123 1104 92 1075 q 154 1178 154 1133 q 123 1251 154 1222 q 46 1279 92 1279 q -30 1251 1 1279 q -61 1178 -61 1222 z "},"Ĩ":{"ha":411,"x_min":-53,"x_max":465,"o":"m 106 972 l 106 0 l 307 0 l 307 972 l 106 972 m -53 1154 l 39 1079 q 44 1107 39 1090 q 65 1137 50 1124 q 106 1150 79 1150 q 167 1132 139 1150 q 224 1097 194 1114 q 290 1079 253 1079 q 367 1097 332 1079 q 428 1140 403 1114 q 465 1192 454 1167 l 378 1282 q 336 1229 357 1249 q 290 1210 315 1210 q 242 1220 261 1210 q 204 1244 222 1231 q 163 1269 186 1258 q 107 1281 140 1281 q 33 1263 67 1281 q -24 1217 -1 1244 q -53 1154 -46 1189 z "},"Ī":{"ha":411,"x_min":-47,"x_max":460,"o":"m 106 972 l 106 0 l 307 0 l 307 972 l 106 972 m -47 1075 l 460 1075 l 460 1233 l -47 1233 l -47 1075 z "},"Ĭ":{"ha":411,"x_min":-19,"x_max":432,"o":"m 106 972 l 106 0 l 307 0 l 307 972 l 106 972 m -19 1276 q 6 1176 -19 1222 q 83 1103 32 1131 q 206 1075 133 1075 q 329 1103 279 1075 q 406 1176 379 1131 q 432 1276 432 1222 l 306 1276 q 295 1233 306 1254 q 263 1199 285 1213 q 206 1186 240 1186 q 150 1199 172 1186 q 117 1233 128 1213 q 106 1276 106 1254 l -19 1276 z "},"Į":{"ha":411,"x_min":35,"x_max":335,"o":"m 106 972 l 106 0 l 307 0 l 307 972 l 106 972 m 289 -161 q 258 -182 275 -175 q 219 -189 242 -189 q 178 -174 193 -189 q 164 -131 164 -160 q 178 -85 164 -108 q 219 -39 193 -61 q 282 1 246 -17 l 225 36 q 133 -19 176 11 q 63 -85 90 -49 q 35 -165 35 -121 q 56 -240 35 -208 q 115 -287 78 -271 q 201 -304 151 -304 q 287 -287 254 -304 q 335 -249 319 -269 l 289 -161 z "},"İ":{"ha":411,"x_min":97,"x_max":313,"o":"m 106 972 l 106 0 l 307 0 l 307 972 l 106 972 m 97 1178 q 129 1104 97 1133 q 206 1075 161 1075 q 281 1104 250 1075 q 313 1178 313 1133 q 281 1251 313 1222 q 206 1279 250 1279 q 129 1251 161 1279 q 97 1178 97 1222 z "},"J":{"ha":419,"x_min":-204,"x_max":314,"o":"m -97 -106 l -204 -249 q -147 -282 -182 -265 q -66 -311 -111 -299 q 28 -324 -21 -324 q 140 -310 88 -324 q 231 -266 192 -296 q 292 -190 271 -236 q 314 -78 314 -143 l 314 972 l 106 972 l 106 -36 q 76 -126 106 -100 q 14 -153 46 -153 q -49 -140 -19 -153 q -97 -106 -78 -126 z "},"Ĵ":{"ha":419,"x_min":-204,"x_max":468,"o":"m -97 -106 l -204 -249 q -147 -282 -182 -265 q -66 -311 -111 -299 q 28 -324 -21 -324 q 140 -310 88 -324 q 231 -266 192 -296 q 292 -190 271 -236 q 314 -78 314 -143 l 314 972 l 106 972 l 106 -36 q 76 -126 106 -100 q 14 -153 46 -153 q -49 -140 -19 -153 q -97 -106 -78 -126 m 210 1199 l 344 1075 l 468 1161 l 210 1356 l -49 1161 l 75 1075 l 210 1199 z "},"K":{"ha":914,"x_min":106,"x_max":913,"o":"m 106 972 l 106 0 l 310 0 l 310 972 l 106 972 m 656 972 l 251 511 l 671 0 l 913 0 l 489 517 l 892 972 l 656 972 z "},"Ķ":{"ha":914,"x_min":106,"x_max":913,"o":"m 106 972 l 106 0 l 310 0 l 310 972 l 106 972 m 656 972 l 251 511 l 671 0 l 913 0 l 489 517 l 892 972 l 656 972 m 456 -83 l 333 -443 l 468 -475 l 636 -128 l 456 -83 z "},"L":{"ha":700,"x_min":106,"x_max":692,"o":"m 106 972 l 106 0 l 692 0 l 692 174 l 304 174 l 304 972 l 106 972 z "},"Ĺ":{"ha":700,"x_min":106,"x_max":692,"o":"m 106 972 l 106 0 l 692 0 l 692 174 l 304 174 l 304 972 l 106 972 m 608 1283 l 467 1351 l 258 1129 l 358 1075 l 608 1283 z "},"Ļ":{"ha":700,"x_min":106,"x_max":692,"o":"m 106 972 l 106 0 l 692 0 l 692 174 l 304 174 l 304 972 l 106 972 m 369 -83 l 247 -443 l 382 -475 l 549 -128 l 369 -83 z "},"Ľ":{"ha":700,"x_min":106,"x_max":715,"o":"m 106 972 l 106 0 l 692 0 l 692 174 l 304 174 l 304 972 l 106 972 m 536 992 l 414 632 l 547 601 l 715 949 l 536 992 z "},"M":{"ha":1203,"x_min":50,"x_max":1153,"o":"m 319 546 l 601 90 l 883 546 l 946 0 l 1153 0 l 1008 1021 l 601 393 l 194 1021 l 50 0 l 257 0 l 319 546 z "},"N":{"ha":1094,"x_min":106,"x_max":989,"o":"m 797 972 l 797 369 l 106 1021 l 106 0 l 297 0 l 297 603 l 989 -49 l 989 972 l 797 972 z "},"Ñ":{"ha":1094,"x_min":106,"x_max":989,"o":"m 797 972 l 797 369 l 106 1021 l 106 0 l 297 0 l 297 603 l 989 -49 l 989 972 l 797 972 m 257 1139 l 349 1064 q 353 1092 349 1075 q 374 1122 358 1108 q 415 1135 389 1135 q 476 1117 449 1135 q 533 1082 503 1100 q 601 1064 564 1064 q 677 1081 642 1064 q 738 1125 713 1099 q 775 1176 764 1151 l 688 1267 q 646 1214 667 1233 q 600 1194 625 1194 q 551 1206 571 1194 q 514 1231 532 1217 q 473 1255 496 1244 q 417 1265 450 1265 q 342 1248 376 1265 q 286 1202 308 1231 q 257 1139 264 1174 z "},"Ń":{"ha":1094,"x_min":106,"x_max":989,"o":"m 797 972 l 797 369 l 106 1021 l 106 0 l 297 0 l 297 603 l 989 -49 l 989 972 l 797 972 m 765 1263 l 624 1331 l 415 1108 l 515 1054 l 765 1263 z "},"Ņ":{"ha":1094,"x_min":106,"x_max":989,"o":"m 521 -67 l 399 -426 l 532 -458 l 699 -111 l 521 -67 m 797 972 l 797 369 l 106 1021 l 106 0 l 297 0 l 297 603 l 989 -49 l 989 972 l 797 972 z "},"Ň":{"ha":1094,"x_min":106,"x_max":989,"o":"m 532 1243 l 397 1367 l 274 1281 l 532 1086 l 790 1281 l 667 1367 l 532 1243 m 797 972 l 797 369 l 106 1021 l 106 0 l 297 0 l 297 603 l 989 -49 l 989 972 l 797 972 z "},"O":{"ha":1126,"x_min":50,"x_max":1078,"o":"m 260 486 q 299 651 260 579 q 406 765 338 724 q 564 807 474 807 q 724 765 656 807 q 829 651 792 724 q 867 486 867 579 q 828 321 867 393 q 722 207 790 249 q 564 165 654 165 q 406 207 474 165 q 299 321 338 249 q 260 486 260 393 m 50 486 q 88 283 50 376 q 194 119 125 189 q 358 12 264 50 q 564 -26 451 -26 q 770 12 676 -26 q 933 119 864 50 q 1040 283 1001 189 q 1078 486 1078 376 q 1040 690 1078 597 q 931 850 1001 782 q 768 955 861 918 q 564 992 675 992 q 360 955 454 992 q 197 850 267 918 q 89 690 128 782 q 50 486 50 597 z "},"Ò":{"ha":1126,"x_min":50,"x_max":1078,"o":"m 260 486 q 299 651 260 579 q 406 765 338 724 q 564 807 474 807 q 724 765 656 807 q 829 651 792 724 q 867 486 867 579 q 828 321 867 393 q 722 207 790 249 q 564 165 654 165 q 406 207 474 165 q 299 321 338 249 q 260 486 260 393 m 50 486 q 88 283 50 376 q 194 119 125 189 q 358 12 264 50 q 564 -26 451 -26 q 770 12 676 -26 q 933 119 864 50 q 1040 283 1001 189 q 1078 486 1078 376 q 1040 690 1078 597 q 931 850 1001 782 q 768 955 861 918 q 564 992 675 992 q 360 955 454 992 q 197 850 267 918 q 89 690 128 782 q 50 486 50 597 m 369 1290 l 619 1082 l 721 1135 l 513 1357 l 369 1290 z "},"Ó":{"ha":1126,"x_min":50,"x_max":1078,"o":"m 260 486 q 299 651 260 579 q 406 765 338 724 q 564 807 474 807 q 724 765 656 807 q 829 651 792 724 q 867 486 867 579 q 828 321 867 393 q 722 207 790 249 q 564 165 654 165 q 406 207 474 165 q 299 321 338 249 q 260 486 260 393 m 50 486 q 88 283 50 376 q 194 119 125 189 q 358 12 264 50 q 564 -26 451 -26 q 770 12 676 -26 q 933 119 864 50 q 1040 283 1001 189 q 1078 486 1078 376 q 1040 690 1078 597 q 931 850 1001 782 q 768 955 861 918 q 564 992 675 992 q 360 955 454 992 q 197 850 267 918 q 89 690 128 782 q 50 486 50 597 m 772 1290 l 629 1357 l 421 1135 l 522 1082 l 772 1290 z "},"Ô":{"ha":1126,"x_min":50,"x_max":1078,"o":"m 260 486 q 299 651 260 579 q 406 765 338 724 q 564 807 474 807 q 724 765 656 807 q 829 651 792 724 q 867 486 867 579 q 828 321 867 393 q 722 207 790 249 q 564 165 654 165 q 406 207 474 165 q 299 321 338 249 q 260 486 260 393 m 50 486 q 88 283 50 376 q 194 119 125 189 q 358 12 264 50 q 564 -26 451 -26 q 770 12 676 -26 q 933 119 864 50 q 1040 283 1001 189 q 1078 486 1078 376 q 1040 690 1078 597 q 931 850 1001 782 q 768 955 861 918 q 564 992 675 992 q 360 955 454 992 q 197 850 267 918 q 89 690 128 782 q 50 486 50 597 m 572 1199 l 707 1075 l 831 1161 l 572 1356 l 314 1161 l 438 1075 l 572 1199 z "},"Õ":{"ha":1126,"x_min":50,"x_max":1078,"o":"m 260 486 q 299 651 260 579 q 406 765 338 724 q 564 807 474 807 q 724 765 656 807 q 829 651 792 724 q 867 486 867 579 q 828 321 867 393 q 722 207 790 249 q 564 165 654 165 q 406 207 474 165 q 299 321 338 249 q 260 486 260 393 m 50 486 q 88 283 50 376 q 194 119 125 189 q 358 12 264 50 q 564 -26 451 -26 q 770 12 676 -26 q 933 119 864 50 q 1040 283 1001 189 q 1078 486 1078 376 q 1040 690 1078 597 q 931 850 1001 782 q 768 955 861 918 q 564 992 675 992 q 360 955 454 992 q 197 850 267 918 q 89 690 128 782 q 50 486 50 597 m 311 1151 l 401 1076 q 407 1104 401 1088 q 427 1134 413 1121 q 468 1147 442 1147 q 530 1129 503 1147 q 587 1093 557 1111 q 654 1075 617 1075 q 730 1093 694 1075 q 791 1138 765 1111 q 828 1189 817 1164 l 740 1278 q 699 1226 719 1244 q 654 1207 678 1207 q 605 1217 625 1207 q 567 1242 585 1228 q 527 1266 550 1256 q 469 1276 504 1276 q 397 1259 431 1276 q 340 1214 363 1242 q 311 1151 318 1186 z "},"Ö":{"ha":1126,"x_min":50,"x_max":1078,"o":"m 260 486 q 299 651 260 579 q 406 765 338 724 q 564 807 474 807 q 724 765 656 807 q 829 651 792 724 q 867 486 867 579 q 828 321 867 393 q 722 207 790 249 q 564 165 654 165 q 406 207 474 165 q 299 321 338 249 q 260 486 260 393 m 50 486 q 88 283 50 376 q 194 119 125 189 q 358 12 264 50 q 564 -26 451 -26 q 770 12 676 -26 q 933 119 864 50 q 1040 283 1001 189 q 1078 486 1078 376 q 1040 690 1078 597 q 931 850 1001 782 q 768 955 861 918 q 564 992 675 992 q 360 955 454 992 q 197 850 267 918 q 89 690 128 782 q 50 486 50 597 m 615 1178 q 647 1104 615 1133 q 724 1075 679 1075 q 799 1104 768 1075 q 831 1178 831 1133 q 799 1251 831 1222 q 724 1279 768 1279 q 647 1251 679 1279 q 615 1178 615 1222 m 296 1178 q 328 1104 296 1133 q 404 1075 360 1075 q 480 1104 449 1075 q 511 1178 511 1133 q 480 1251 511 1222 q 404 1279 449 1279 q 328 1251 360 1279 q 296 1178 296 1222 z "},"Ō":{"ha":1126,"x_min":50,"x_max":1078,"o":"m 260 486 q 299 651 260 579 q 406 765 338 724 q 564 807 474 807 q 724 765 656 807 q 829 651 792 724 q 867 486 867 579 q 828 321 867 393 q 722 207 790 249 q 564 165 654 165 q 406 207 474 165 q 299 321 338 249 q 260 486 260 393 m 50 486 q 88 283 50 376 q 194 119 125 189 q 358 12 264 50 q 564 -26 451 -26 q 770 12 676 -26 q 933 119 864 50 q 1040 283 1001 189 q 1078 486 1078 376 q 1040 690 1078 597 q 931 850 1001 782 q 768 955 861 918 q 564 992 675 992 q 360 955 454 992 q 197 850 267 918 q 89 690 128 782 q 50 486 50 597 m 310 1075 l 817 1075 l 817 1233 l 310 1233 l 310 1075 z "},"Ŏ":{"ha":1126,"x_min":50,"x_max":1078,"o":"m 260 486 q 299 651 260 579 q 406 765 338 724 q 564 807 474 807 q 724 765 656 807 q 829 651 792 724 q 867 486 867 579 q 828 321 867 393 q 722 207 790 249 q 564 165 654 165 q 406 207 474 165 q 299 321 338 249 q 260 486 260 393 m 50 486 q 88 283 50 376 q 194 119 125 189 q 358 12 264 50 q 564 -26 451 -26 q 770 12 676 -26 q 933 119 864 50 q 1040 283 1001 189 q 1078 486 1078 376 q 1040 690 1078 597 q 931 850 1001 782 q 768 955 861 918 q 564 992 675 992 q 360 955 454 992 q 197 850 267 918 q 89 690 128 782 q 50 486 50 597 m 338 1276 q 364 1176 338 1222 q 441 1103 390 1131 q 564 1075 492 1075 q 688 1103 638 1075 q 763 1176 738 1131 q 789 1276 789 1222 l 664 1276 q 653 1233 664 1254 q 619 1199 642 1213 q 564 1186 597 1186 q 507 1199 529 1186 q 474 1233 485 1213 q 464 1276 464 1254 l 338 1276 z "},"Ő":{"ha":1126,"x_min":50,"x_max":1078,"o":"m 439 1075 l 635 1333 l 482 1369 l 328 1107 l 439 1075 m 688 1075 l 886 1333 l 731 1369 l 578 1107 l 688 1075 m 260 486 q 299 651 260 579 q 406 765 338 724 q 564 807 474 807 q 724 765 656 807 q 829 651 792 724 q 867 486 867 579 q 828 321 867 393 q 722 207 790 249 q 564 165 654 165 q 406 207 474 165 q 299 321 338 249 q 260 486 260 393 m 50 486 q 88 283 50 376 q 194 119 125 189 q 358 12 264 50 q 564 -26 451 -26 q 770 12 676 -26 q 933 119 864 50 q 1040 283 1001 189 q 1078 486 1078 376 q 1040 690 1078 597 q 931 850 1001 782 q 768 955 861 918 q 564 992 675 992 q 360 955 454 992 q 197 850 267 918 q 89 690 128 782 q 50 486 50 597 z "},"P":{"ha":832,"x_min":106,"x_max":783,"o":"m 106 972 l 106 0 l 304 0 l 304 972 l 106 972 m 226 804 l 419 804 q 544 769 499 804 q 590 663 590 733 q 544 557 590 593 q 419 521 499 521 l 226 521 l 226 353 l 419 353 q 616 390 535 353 q 740 498 697 428 q 783 663 783 568 q 740 828 783 758 q 616 935 697 897 q 419 972 535 972 l 226 972 l 226 804 z "},"Q":{"ha":1168,"x_min":50,"x_max":1172,"o":"m 260 486 q 299 651 260 579 q 408 765 339 724 q 567 807 476 807 q 735 761 664 807 q 846 639 807 715 q 885 468 885 563 q 846 304 885 375 q 738 194 807 233 q 578 154 668 154 q 417 196 489 154 q 302 313 344 238 q 260 486 260 388 m 50 486 q 88 283 50 376 q 197 119 126 189 q 361 12 267 50 q 567 -26 456 -26 q 772 12 679 -26 q 934 119 865 50 q 1040 283 1003 189 q 1078 486 1078 376 q 1040 690 1078 597 q 933 850 1001 782 q 771 955 864 918 q 567 992 678 992 q 363 955 457 992 q 199 850 269 918 q 89 690 128 782 q 50 486 50 597 m 506 417 l 951 -12 l 1172 -12 l 721 417 l 506 417 z "},"R":{"ha":861,"x_min":106,"x_max":853,"o":"m 326 453 l 618 0 l 853 0 l 536 453 l 326 453 m 106 972 l 106 0 l 304 0 l 304 972 l 106 972 m 226 803 l 419 803 q 510 785 472 803 q 569 735 549 768 q 590 657 590 703 q 569 578 590 611 q 510 528 549 546 q 419 511 472 511 l 226 511 l 226 353 l 432 353 q 628 392 547 353 q 751 501 708 431 q 794 663 794 571 q 751 825 794 756 q 628 933 708 894 q 432 972 547 972 l 226 972 l 226 803 z "},"Ŕ":{"ha":861,"x_min":106,"x_max":853,"o":"m 326 453 l 618 0 l 853 0 l 536 453 l 326 453 m 106 972 l 106 0 l 304 0 l 304 972 l 106 972 m 226 803 l 419 803 q 510 785 472 803 q 569 735 549 768 q 590 657 590 703 q 569 578 590 611 q 510 528 549 546 q 419 511 472 511 l 226 511 l 226 353 l 432 353 q 628 392 547 353 q 751 501 708 431 q 794 663 794 571 q 751 825 794 756 q 628 933 708 894 q 432 972 547 972 l 226 972 l 226 803 m 624 1283 l 481 1351 l 272 1129 l 374 1075 l 624 1283 z "},"Ŗ":{"ha":861,"x_min":106,"x_max":853,"o":"m 326 453 l 618 0 l 853 0 l 536 453 l 326 453 m 106 972 l 106 0 l 304 0 l 304 972 l 106 972 m 226 803 l 419 803 q 510 785 472 803 q 569 735 549 768 q 590 657 590 703 q 569 578 590 611 q 510 528 549 546 q 419 511 472 511 l 226 511 l 226 353 l 432 353 q 628 392 547 353 q 751 501 708 431 q 794 663 794 571 q 751 825 794 756 q 628 933 708 894 q 432 972 547 972 l 226 972 l 226 803 m 451 -83 l 329 -443 l 463 -475 l 629 -128 l 451 -83 z "},"Ř":{"ha":861,"x_min":106,"x_max":853,"o":"m 326 453 l 618 0 l 853 0 l 536 453 l 326 453 m 106 972 l 106 0 l 304 0 l 304 972 l 106 972 m 226 803 l 419 803 q 510 785 472 803 q 569 735 549 768 q 590 657 590 703 q 569 578 590 611 q 510 528 549 546 q 419 511 472 511 l 226 511 l 226 353 l 432 353 q 628 392 547 353 q 751 501 708 431 q 794 663 794 571 q 751 825 794 756 q 628 933 708 894 q 432 972 547 972 l 226 972 l 226 803 m 410 1232 l 275 1356 l 151 1269 l 410 1075 l 668 1269 l 544 1356 l 410 1232 z "},"Ȓ":{"ha":861,"x_min":106,"x_max":853,"o":"m 326 453 l 618 0 l 853 0 l 536 453 l 326 453 m 106 972 l 106 0 l 304 0 l 304 972 l 106 972 m 226 803 l 419 803 q 510 785 472 803 q 569 735 549 768 q 590 657 590 703 q 569 578 590 611 q 510 528 549 546 q 419 511 472 511 l 226 511 l 226 353 l 432 353 q 628 392 547 353 q 751 501 708 431 q 794 663 794 571 q 751 825 794 756 q 628 933 708 894 q 432 972 547 972 l 226 972 l 226 803 m 206 1075 q 231 1176 206 1131 q 308 1249 257 1221 q 432 1276 360 1276 q 556 1249 506 1276 q 631 1176 606 1221 q 657 1075 657 1131 l 532 1075 q 521 1119 532 1099 q 488 1152 510 1139 q 432 1165 465 1165 q 375 1152 397 1165 q 342 1119 353 1139 q 332 1075 332 1099 l 206 1075 z "},"S":{"ha":835,"x_min":49,"x_max":778,"o":"m 190 326 l 49 226 q 138 100 81 158 q 272 8 194 42 q 438 -26 349 -26 q 565 -6 504 -26 q 674 52 625 14 q 750 146 722 90 q 778 272 778 201 q 758 383 778 335 q 702 466 738 431 q 623 526 667 501 q 532 568 579 551 q 410 617 458 593 q 338 669 361 642 q 314 732 314 696 q 343 795 314 768 q 431 822 372 822 q 510 805 475 822 q 572 759 544 788 q 618 696 599 731 l 774 782 q 703 881 749 833 q 591 960 658 929 q 431 992 524 992 q 267 959 340 992 q 152 866 194 926 q 110 722 110 806 q 136 603 110 653 q 203 520 163 554 q 288 465 243 486 q 368 431 333 443 q 478 384 433 406 q 547 335 524 363 q 569 261 569 307 q 532 178 569 208 q 435 147 494 147 q 339 169 383 147 q 258 232 294 192 q 190 326 221 272 z "},"Ś":{"ha":835,"x_min":50,"x_max":778,"o":"m 194 338 l 50 239 q 137 100 81 160 q 269 7 193 40 q 431 -26 344 -26 q 617 8 539 -26 q 736 110 694 43 q 778 269 778 176 q 758 383 778 335 q 702 465 738 431 q 622 524 667 500 q 532 567 578 549 q 422 609 474 588 q 339 656 371 631 q 307 719 307 682 q 323 773 307 751 q 367 807 339 794 q 435 819 396 819 q 510 803 478 819 q 567 757 542 786 q 614 690 593 728 l 765 781 q 703 879 746 831 q 592 960 660 928 q 428 992 524 992 q 260 959 333 992 q 146 867 188 926 q 104 728 104 808 q 131 610 104 660 q 197 527 157 561 q 281 471 236 493 q 361 435 325 449 q 464 392 417 414 q 540 341 511 371 q 569 264 569 311 q 554 201 569 226 q 510 163 539 176 q 436 150 481 150 q 362 162 396 150 q 299 198 328 174 q 245 258 271 222 q 194 338 219 293 m 678 1283 l 535 1351 l 326 1129 l 428 1075 l 678 1283 z "},"Ŝ":{"ha":835,"x_min":50,"x_max":778,"o":"m 194 338 l 50 239 q 137 100 81 160 q 269 7 193 40 q 431 -26 344 -26 q 617 8 539 -26 q 736 110 694 43 q 778 269 778 176 q 758 383 778 335 q 702 465 738 431 q 622 524 667 500 q 532 567 578 549 q 422 609 474 588 q 339 656 371 631 q 307 719 307 682 q 323 773 307 751 q 367 807 339 794 q 435 819 396 819 q 510 803 478 819 q 567 757 542 786 q 614 690 593 728 l 765 781 q 703 879 746 831 q 592 960 660 928 q 428 992 524 992 q 260 959 333 992 q 146 867 188 926 q 104 728 104 808 q 131 610 104 660 q 197 527 157 561 q 281 471 236 493 q 361 435 325 449 q 464 392 417 414 q 540 341 511 371 q 569 264 569 311 q 554 201 569 226 q 510 163 539 176 q 436 150 481 150 q 362 162 396 150 q 299 198 328 174 q 245 258 271 222 q 194 338 219 293 m 428 1199 l 563 1075 l 685 1161 l 428 1356 l 169 1161 l 292 1075 l 428 1199 z "},"Ş":{"ha":835,"x_min":50,"x_max":778,"o":"m 194 338 l 50 239 q 137 100 81 160 q 269 7 193 40 q 431 -26 344 -26 q 613 8 535 -26 q 735 110 692 43 q 778 269 778 176 q 758 383 778 335 q 702 465 738 431 q 622 524 667 500 q 532 567 578 549 q 422 609 474 588 q 339 656 371 631 q 307 719 307 682 q 321 773 307 751 q 361 807 335 794 q 426 819 388 819 q 504 803 469 819 q 566 757 539 786 q 614 690 593 728 l 765 781 q 700 883 743 835 q 590 961 657 931 q 428 992 524 992 q 256 958 329 992 q 144 865 183 925 q 104 724 104 804 q 131 603 104 653 q 197 522 157 554 q 281 469 236 490 q 361 435 325 449 q 464 392 417 414 q 540 341 511 371 q 569 264 569 311 q 554 201 569 226 q 510 163 539 176 q 436 150 481 150 q 362 162 396 150 q 299 198 328 174 q 245 258 271 222 q 194 338 219 293 m 408 83 l 288 -175 q 350 -156 319 -160 q 390 -151 381 -151 q 448 -162 425 -151 q 471 -199 471 -172 q 452 -236 471 -224 q 397 -249 433 -249 q 349 -241 375 -249 q 297 -215 322 -233 l 239 -297 q 323 -340 282 -328 q 415 -351 364 -351 q 497 -335 458 -351 q 562 -286 536 -318 q 588 -207 588 -254 q 569 -137 588 -164 q 522 -96 550 -110 q 468 -82 494 -82 q 449 -82 458 -82 q 429 -85 439 -82 l 539 81 l 408 83 z "},"Š":{"ha":835,"x_min":50,"x_max":778,"o":"m 194 338 l 50 239 q 137 100 81 160 q 269 7 193 40 q 431 -26 344 -26 q 617 8 539 -26 q 736 110 694 43 q 778 269 778 176 q 758 383 778 335 q 702 465 738 431 q 622 524 667 500 q 532 567 578 549 q 422 609 474 588 q 339 656 371 631 q 307 719 307 682 q 323 773 307 751 q 367 807 339 794 q 435 819 396 819 q 510 803 478 819 q 567 757 542 786 q 614 690 593 728 l 765 781 q 703 879 746 831 q 592 960 660 928 q 428 992 524 992 q 260 959 333 992 q 146 867 188 926 q 104 728 104 808 q 131 610 104 660 q 197 527 157 561 q 281 471 236 493 q 361 435 325 449 q 464 392 417 414 q 540 341 511 371 q 569 264 569 311 q 554 201 569 226 q 510 163 539 176 q 436 150 481 150 q 362 162 396 150 q 299 198 328 174 q 245 258 271 222 q 194 338 219 293 m 428 1232 l 292 1356 l 169 1269 l 428 1075 l 685 1269 l 563 1356 l 428 1232 z "},"Ș":{"ha":835,"x_min":50,"x_max":778,"o":"m 194 338 l 50 239 q 137 100 81 160 q 269 7 193 40 q 431 -26 344 -26 q 617 8 539 -26 q 736 110 694 43 q 778 269 778 176 q 758 383 778 335 q 702 465 738 431 q 622 524 667 500 q 532 567 578 549 q 422 609 474 588 q 339 656 371 631 q 307 719 307 682 q 323 773 307 751 q 367 807 339 794 q 435 819 396 819 q 510 803 478 819 q 567 757 542 786 q 614 690 593 728 l 765 781 q 703 879 746 831 q 592 960 660 928 q 428 992 524 992 q 260 959 333 992 q 146 867 188 926 q 104 728 104 808 q 131 610 104 660 q 197 527 157 561 q 281 471 236 493 q 361 435 325 449 q 464 392 417 414 q 540 341 511 371 q 569 264 569 311 q 554 201 569 226 q 510 163 539 176 q 436 150 481 150 q 362 162 396 150 q 299 198 328 174 q 245 258 271 222 q 194 338 219 293 m 378 -97 l 256 -457 l 389 -489 l 557 -142 l 378 -97 z "},"T":{"ha":738,"x_min":8,"x_max":731,"o":"m 8 793 l 269 793 l 269 0 l 468 0 l 468 793 l 731 793 l 731 972 l 8 972 l 8 793 z "},"Ţ":{"ha":738,"x_min":8,"x_max":731,"o":"m 303 15 l 183 -244 q 246 -225 215 -229 q 286 -221 276 -221 q 342 -231 319 -221 q 365 -267 365 -240 q 347 -305 365 -292 q 292 -318 328 -318 q 243 -310 269 -318 q 193 -283 217 -301 l 135 -367 q 218 -409 178 -397 q 311 -421 258 -421 q 392 -404 353 -421 q 458 -355 432 -387 q 483 -275 483 -322 q 464 -206 483 -233 q 417 -164 444 -178 q 364 -150 390 -150 q 343 -151 353 -150 q 325 -154 333 -151 l 435 11 l 303 15 m 8 793 l 269 793 l 269 0 l 468 0 l 468 793 l 731 793 l 731 972 l 8 972 l 8 793 z "},"Ť":{"ha":738,"x_min":8,"x_max":731,"o":"m 8 793 l 269 793 l 269 0 l 468 0 l 468 793 l 731 793 l 731 972 l 8 972 l 8 793 m 369 1232 l 235 1356 l 111 1269 l 369 1075 l 628 1269 l 504 1356 l 369 1232 z "},"Ț":{"ha":738,"x_min":8,"x_max":731,"o":"m 8 793 l 269 793 l 269 0 l 468 0 l 468 793 l 731 793 l 731 972 l 8 972 l 8 793 m 342 -83 l 219 -443 l 353 -475 l 521 -128 l 342 -83 z "},"U":{"ha":940,"x_min":99,"x_max":843,"o":"m 99 972 l 99 319 q 126 168 99 233 q 204 58 154 103 q 322 -9 254 14 q 471 -32 390 -32 q 618 -9 550 -32 q 737 58 686 14 q 815 168 788 103 q 843 319 843 233 l 843 972 l 644 972 l 644 332 q 601 198 644 249 q 471 147 557 147 q 341 198 385 147 q 297 332 297 249 l 297 972 l 99 972 z "},"Ù":{"ha":940,"x_min":99,"x_max":843,"o":"m 99 972 l 99 319 q 126 168 99 233 q 204 58 154 103 q 322 -9 254 14 q 471 -32 390 -32 q 618 -9 550 -32 q 737 58 686 14 q 815 168 788 103 q 843 319 843 233 l 843 972 l 644 972 l 644 332 q 601 198 644 249 q 471 147 557 147 q 341 198 385 147 q 297 332 297 249 l 297 972 l 99 972 m 260 1283 l 510 1075 l 611 1129 l 403 1351 l 260 1283 z "},"Ú":{"ha":940,"x_min":99,"x_max":843,"o":"m 99 972 l 99 319 q 126 168 99 233 q 204 58 154 103 q 322 -9 254 14 q 471 -32 390 -32 q 618 -9 550 -32 q 737 58 686 14 q 815 168 788 103 q 843 319 843 233 l 843 972 l 644 972 l 644 332 q 601 198 644 249 q 471 147 557 147 q 341 198 385 147 q 297 332 297 249 l 297 972 l 99 972 m 681 1283 l 538 1351 l 329 1129 l 431 1075 l 681 1283 z "},"Û":{"ha":940,"x_min":99,"x_max":843,"o":"m 99 972 l 99 319 q 126 168 99 233 q 204 58 154 103 q 322 -9 254 14 q 471 -32 390 -32 q 618 -9 550 -32 q 737 58 686 14 q 815 168 788 103 q 843 319 843 233 l 843 972 l 644 972 l 644 332 q 601 198 644 249 q 471 147 557 147 q 341 198 385 147 q 297 332 297 249 l 297 972 l 99 972 m 471 1199 l 606 1075 l 728 1161 l 471 1356 l 213 1161 l 336 1075 l 471 1199 z "},"Ü":{"ha":940,"x_min":99,"x_max":843,"o":"m 99 972 l 99 319 q 126 168 99 233 q 204 58 154 103 q 322 -9 254 14 q 471 -32 390 -32 q 618 -9 550 -32 q 737 58 686 14 q 815 168 788 103 q 843 319 843 233 l 843 972 l 644 972 l 644 332 q 601 198 644 249 q 471 147 557 147 q 341 198 385 147 q 297 332 297 249 l 297 972 l 99 972 m 540 1178 q 572 1104 540 1133 q 649 1075 604 1075 q 724 1104 693 1075 q 756 1178 756 1133 q 724 1251 756 1222 q 649 1279 693 1279 q 572 1251 604 1279 q 540 1178 540 1222 m 185 1178 q 217 1104 185 1133 q 293 1075 249 1075 q 369 1104 338 1075 q 401 1178 401 1133 q 369 1251 401 1222 q 293 1279 338 1279 q 217 1251 249 1279 q 185 1178 185 1222 z "},"Ũ":{"ha":940,"x_min":99,"x_max":843,"o":"m 99 972 l 99 319 q 126 168 99 233 q 204 58 154 103 q 322 -9 254 14 q 471 -32 390 -32 q 618 -9 550 -32 q 737 58 686 14 q 815 168 788 103 q 843 319 843 233 l 843 972 l 644 972 l 644 332 q 601 198 644 249 q 471 147 557 147 q 341 198 385 147 q 297 332 297 249 l 297 972 l 99 972 m 211 1154 l 303 1079 q 308 1107 303 1090 q 328 1137 314 1124 q 369 1150 343 1150 q 431 1132 403 1150 q 488 1097 458 1114 q 556 1079 518 1079 q 631 1097 596 1079 q 692 1140 667 1114 q 729 1192 718 1167 l 642 1282 q 600 1229 621 1249 q 556 1210 579 1210 q 506 1220 526 1210 q 469 1244 486 1231 q 428 1269 451 1258 q 371 1281 404 1281 q 297 1263 332 1281 q 240 1217 263 1244 q 211 1154 218 1189 z "},"Ū":{"ha":940,"x_min":99,"x_max":843,"o":"m 99 972 l 99 319 q 126 168 99 233 q 204 58 154 103 q 322 -9 254 14 q 471 -32 390 -32 q 618 -9 550 -32 q 737 58 686 14 q 815 168 788 103 q 843 319 843 233 l 843 972 l 644 972 l 644 332 q 601 198 644 249 q 471 147 557 147 q 341 198 385 147 q 297 332 297 249 l 297 972 l 99 972 m 217 1075 l 724 1075 l 724 1233 l 217 1233 l 217 1075 z "},"Ŭ":{"ha":940,"x_min":99,"x_max":843,"o":"m 99 972 l 99 319 q 126 168 99 233 q 204 58 154 103 q 322 -9 254 14 q 471 -32 390 -32 q 618 -9 550 -32 q 737 58 686 14 q 815 168 788 103 q 843 319 843 233 l 843 972 l 644 972 l 644 332 q 601 198 644 249 q 471 147 557 147 q 341 198 385 147 q 297 332 297 249 l 297 972 l 99 972 m 244 1276 q 271 1176 244 1222 q 348 1103 297 1131 q 471 1075 399 1075 q 594 1103 544 1075 q 670 1176 644 1131 q 696 1276 696 1222 l 571 1276 q 560 1233 571 1254 q 526 1199 549 1213 q 471 1186 504 1186 q 414 1199 436 1186 q 381 1233 392 1213 q 371 1276 371 1254 l 244 1276 z "},"Ů":{"ha":940,"x_min":99,"x_max":843,"o":"m 99 972 l 99 319 q 126 168 99 233 q 204 58 154 103 q 322 -9 254 14 q 471 -32 390 -32 q 618 -9 550 -32 q 737 58 686 14 q 815 168 788 103 q 843 319 843 233 l 843 972 l 644 972 l 644 332 q 601 198 644 249 q 471 147 557 147 q 341 198 385 147 q 297 332 297 249 l 297 972 l 99 972 m 307 1229 q 355 1118 307 1161 q 469 1075 403 1075 q 585 1118 536 1075 q 635 1229 635 1161 q 585 1341 635 1299 q 469 1383 536 1383 q 355 1341 403 1383 q 307 1229 307 1299 m 404 1229 q 424 1280 404 1261 q 469 1299 443 1299 q 516 1280 496 1299 q 536 1229 536 1261 q 516 1179 536 1197 q 469 1161 496 1161 q 424 1179 443 1161 q 404 1229 404 1197 z "},"Ű":{"ha":940,"x_min":99,"x_max":843,"o":"m 346 1075 l 542 1333 l 389 1369 l 235 1107 l 346 1075 m 594 1075 l 793 1333 l 638 1369 l 485 1107 l 594 1075 m 99 972 l 99 319 q 126 168 99 233 q 204 58 154 103 q 322 -9 254 14 q 471 -32 390 -32 q 618 -9 550 -32 q 737 58 686 14 q 815 168 788 103 q 843 319 843 233 l 843 972 l 644 972 l 644 332 q 601 198 644 249 q 471 147 557 147 q 341 198 385 147 q 297 332 297 249 l 297 972 l 99 972 z "},"Ų":{"ha":940,"x_min":99,"x_max":843,"o":"m 533 -179 q 503 -200 519 -193 q 464 -207 488 -207 q 424 -193 438 -207 q 410 -150 410 -179 q 424 -103 410 -126 q 464 -57 438 -79 q 526 -17 490 -35 l 469 18 q 378 -37 421 -7 q 308 -103 335 -67 q 281 -183 281 -139 q 301 -258 281 -226 q 359 -306 322 -290 q 444 -322 396 -322 q 531 -305 499 -322 q 579 -267 564 -287 l 533 -179 m 99 972 l 99 319 q 126 168 99 233 q 204 58 154 103 q 322 -9 254 14 q 471 -32 390 -32 q 618 -9 550 -32 q 737 58 686 14 q 815 168 788 103 q 843 319 843 233 l 843 972 l 644 972 l 644 332 q 601 198 644 249 q 471 147 557 147 q 341 198 385 147 q 297 332 297 249 l 297 972 l 99 972 z "},"V":{"ha":988,"x_min":1,"x_max":988,"o":"m 494 339 l 231 972 l 1 972 l 494 -57 l 988 972 l 757 972 l 494 339 z "},"W":{"ha":1446,"x_min":8,"x_max":1439,"o":"m 997 368 l 724 1021 l 453 368 l 242 972 l 8 972 l 417 -54 l 724 585 l 1029 -54 l 1439 972 l 1206 972 l 997 368 z "},"Ŵ":{"ha":1446,"x_min":8,"x_max":1439,"o":"m 1000 347 l 724 1021 l 446 347 l 242 972 l 8 972 l 417 -54 l 724 585 l 1029 -54 l 1439 972 l 1206 972 l 1000 347 m 724 1228 l 858 1104 l 981 1189 l 724 1383 l 465 1189 l 589 1104 l 724 1228 z "},"Ẁ":{"ha":1446,"x_min":8,"x_max":1439,"o":"m 724 1104 l 825 1157 l 617 1379 l 474 1313 l 724 1104 m 997 368 l 724 1021 l 453 368 l 242 972 l 8 972 l 417 -54 l 724 585 l 1029 -54 l 1439 972 l 1206 972 l 997 368 z "},"Ẃ":{"ha":1446,"x_min":8,"x_max":1439,"o":"m 724 1104 l 974 1313 l 831 1379 l 622 1157 l 724 1104 m 997 368 l 724 1021 l 453 368 l 242 972 l 8 972 l 417 -54 l 724 585 l 1029 -54 l 1439 972 l 1206 972 l 997 368 z "},"Ẅ":{"ha":1446,"x_min":8,"x_max":1439,"o":"m 775 1207 q 807 1133 775 1163 q 883 1104 839 1104 q 960 1133 929 1104 q 992 1207 992 1163 q 960 1280 992 1251 q 883 1308 929 1308 q 807 1280 839 1308 q 775 1207 775 1251 m 456 1207 q 488 1133 456 1163 q 564 1104 519 1104 q 641 1133 610 1104 q 672 1207 672 1163 q 641 1280 672 1251 q 564 1308 610 1308 q 488 1280 519 1308 q 456 1207 456 1251 m 997 368 l 724 1021 l 453 368 l 242 972 l 8 972 l 417 -54 l 724 585 l 1029 -54 l 1439 972 l 1206 972 l 997 368 z "},"Ẇ":{"ha":1446,"x_min":8,"x_max":1439,"o":"m 615 1207 q 647 1133 615 1163 q 724 1104 679 1104 q 800 1133 768 1104 q 832 1207 832 1163 q 800 1280 832 1251 q 724 1308 768 1308 q 647 1280 679 1308 q 615 1207 615 1251 m 997 368 l 724 1021 l 453 368 l 242 972 l 8 972 l 417 -54 l 724 585 l 1029 -54 l 1439 972 l 1206 972 l 997 368 z "},"Ẉ":{"ha":1446,"x_min":8,"x_max":1439,"o":"m 615 -240 q 647 -314 615 -285 q 724 -343 679 -343 q 800 -314 768 -343 q 832 -240 832 -285 q 800 -167 832 -196 q 724 -139 768 -139 q 647 -167 679 -139 q 615 -240 615 -196 m 997 368 l 724 1021 l 453 368 l 242 972 l 8 972 l 417 -54 l 724 585 l 1029 -54 l 1439 972 l 1206 972 l 997 368 z "},"X":{"ha":896,"x_min":8,"x_max":888,"o":"m 624 972 l 453 667 l 286 972 l 43 972 l 336 501 l 8 0 l 251 0 l 451 349 l 644 0 l 888 0 l 568 501 l 867 972 l 624 972 z "},"Y":{"ha":874,"x_min":1,"x_max":872,"o":"m 646 972 l 436 581 l 228 972 l 1 972 l 336 401 l 336 0 l 538 0 l 538 403 l 872 972 l 646 972 z "},"Ý":{"ha":874,"x_min":1,"x_max":872,"o":"m 647 1283 l 504 1351 l 296 1129 l 397 1075 l 647 1283 m 646 972 l 436 581 l 228 972 l 1 972 l 336 401 l 336 0 l 538 0 l 538 403 l 872 972 l 646 972 z "},"Ŷ":{"ha":874,"x_min":1,"x_max":872,"o":"m 646 972 l 436 581 l 228 972 l 1 972 l 336 401 l 336 0 l 538 0 l 538 403 l 872 972 l 646 972 m 438 1199 l 572 1075 l 696 1161 l 438 1356 l 179 1161 l 303 1075 l 438 1199 z "},"Ÿ":{"ha":874,"x_min":1,"x_max":872,"o":"m 151 1188 q 183 1115 151 1144 q 258 1086 215 1086 q 336 1115 304 1086 q 368 1188 368 1144 q 336 1260 368 1232 q 258 1289 304 1289 q 183 1260 215 1289 q 151 1188 151 1232 m 507 1188 q 538 1115 507 1144 q 614 1086 569 1086 q 691 1115 660 1086 q 722 1188 722 1144 q 691 1260 722 1232 q 614 1289 660 1289 q 538 1260 569 1289 q 507 1188 507 1232 m 646 972 l 436 581 l 228 972 l 1 972 l 336 401 l 336 0 l 538 0 l 538 403 l 872 972 l 646 972 z "},"Ỳ":{"ha":874,"x_min":1,"x_max":872,"o":"m 438 1076 l 539 1129 l 331 1351 l 188 1285 l 438 1076 m 646 972 l 436 581 l 228 972 l 1 972 l 336 401 l 336 0 l 538 0 l 538 403 l 872 972 l 646 972 z "},"Z":{"ha":828,"x_min":15,"x_max":807,"o":"m 69 793 l 486 793 l 15 0 l 764 0 l 764 174 l 331 174 l 807 972 l 69 972 l 69 793 z "},"Ź":{"ha":828,"x_min":15,"x_max":807,"o":"m 69 793 l 486 793 l 15 0 l 764 0 l 764 174 l 331 174 l 807 972 l 69 972 l 69 793 m 672 1283 l 529 1351 l 321 1129 l 422 1075 l 672 1283 z "},"Ż":{"ha":828,"x_min":15,"x_max":807,"o":"m 69 793 l 486 793 l 15 0 l 764 0 l 764 174 l 331 174 l 807 972 l 69 972 l 69 793 m 329 1178 q 361 1104 329 1133 q 438 1075 393 1075 q 515 1104 483 1075 q 546 1178 546 1133 q 515 1251 546 1222 q 438 1279 483 1279 q 361 1251 393 1279 q 329 1178 329 1222 z "},"Ž":{"ha":828,"x_min":15,"x_max":807,"o":"m 69 793 l 486 793 l 15 0 l 764 0 l 764 174 l 331 174 l 807 972 l 69 972 l 69 793 m 438 1232 l 303 1356 l 179 1269 l 438 1075 l 696 1269 l 572 1356 l 438 1232 z "},"Æ":{"ha":1453,"x_min":15,"x_max":1356,"o":"m 351 235 l 775 235 l 775 418 l 358 418 l 351 235 m 607 972 l 15 0 l 261 0 l 792 917 l 607 972 m 835 0 l 1356 0 l 1356 168 l 835 168 l 835 0 m 846 804 l 1356 804 l 1356 972 l 607 972 l 846 804 m 835 433 l 1328 433 l 1328 599 l 835 599 l 835 433 m 738 972 l 738 0 l 947 0 l 947 972 l 738 972 z "},"Ð":{"ha":994,"x_min":7,"x_max":946,"o":"m 7 424 l 472 424 l 472 551 l 7 551 l 7 424 m 106 972 l 106 0 l 308 0 l 308 972 l 106 972 m 436 0 q 703 60 589 0 q 882 228 818 119 q 946 486 946 338 q 882 744 946 635 q 703 913 818 853 q 436 972 589 972 l 233 972 l 233 792 l 429 792 q 550 774 493 792 q 650 719 607 757 q 717 624 693 682 q 742 486 742 567 q 717 348 742 406 q 650 253 693 290 q 550 198 607 215 q 429 181 493 181 l 233 181 l 233 0 l 436 0 z "},"Ø":{"ha":1097,"x_min":50,"x_max":1078,"o":"m 260 486 q 299 653 260 581 q 406 766 338 725 q 564 807 474 807 q 722 766 654 807 q 828 653 790 725 q 867 486 867 581 q 828 319 867 392 q 722 206 790 247 q 564 165 654 165 q 406 206 474 165 q 299 319 338 247 q 260 486 260 392 m 50 486 q 88 283 50 376 q 196 119 126 189 q 359 12 265 50 q 564 -26 453 -26 q 768 12 675 -26 q 931 119 861 50 q 1040 283 1001 189 q 1078 486 1078 376 q 1040 690 1078 597 q 931 850 1001 782 q 768 955 861 918 q 564 992 675 992 q 359 955 453 992 q 196 850 265 918 q 88 690 126 782 q 50 486 50 597 m 964 1047 l 64 -8 l 157 -75 l 1058 981 l 964 1047 z "},"Þ":{"ha":824,"x_min":111,"x_max":776,"o":"m 111 972 l 111 0 l 289 0 l 289 972 l 111 972 m 221 633 l 414 633 q 511 619 471 633 q 574 572 551 604 q 596 489 596 540 q 574 407 596 439 q 511 360 551 375 q 414 344 471 344 l 221 344 l 221 182 l 414 182 q 610 219 529 182 q 733 325 690 256 q 776 489 776 394 q 733 653 776 585 q 610 759 690 722 q 414 796 529 796 l 221 796 l 221 633 z "},"Đ":{"ha":994,"x_min":7,"x_max":946,"o":"m 7 418 l 465 418 l 465 547 l 7 547 l 7 418 m 106 972 l 106 0 l 308 0 l 308 972 l 106 972 m 436 0 q 703 60 589 0 q 882 228 818 119 q 946 486 946 338 q 882 744 946 635 q 703 913 818 853 q 436 972 589 972 l 233 972 l 233 792 l 429 792 q 550 774 493 792 q 650 719 607 757 q 717 624 693 682 q 742 486 742 567 q 717 348 742 406 q 650 253 693 290 q 550 198 607 215 q 429 181 493 181 l 233 181 l 233 0 l 436 0 z "},"Ħ":{"ha":1061,"x_min":7,"x_max":1054,"o":"m 171 428 l 885 428 l 885 607 l 171 607 l 171 428 m 758 972 l 758 0 l 957 0 l 957 972 l 758 972 m 106 972 l 106 0 l 304 0 l 304 972 l 106 972 m 7 747 l 1054 747 l 1054 881 l 7 881 l 7 747 z "},"Ĳ":{"ha":808,"x_min":106,"x_max":703,"o":"m 292 -106 l 185 -249 q 242 -282 207 -265 q 323 -311 278 -299 q 417 -324 368 -324 q 528 -310 476 -324 q 620 -266 581 -296 q 681 -190 660 -236 q 703 -78 703 -143 l 703 972 l 494 972 l 494 -36 q 465 -126 494 -100 q 403 -153 435 -153 q 340 -140 369 -153 q 292 -106 311 -126 m 106 972 l 106 0 l 307 0 l 307 972 l 106 972 z "},"Ŀ":{"ha":700,"x_min":106,"x_max":692,"o":"m 106 972 l 106 0 l 692 0 l 692 174 l 304 174 l 304 972 l 106 972 m 419 592 q 452 513 419 546 q 533 479 485 479 q 615 513 583 479 q 647 592 647 546 q 615 670 647 638 q 533 703 583 703 q 452 670 485 703 q 419 592 419 638 z "},"Ł":{"ha":706,"x_min":-39,"x_max":692,"o":"m 7 443 l 471 750 l 425 844 l -39 536 l 7 443 m 106 972 l 106 0 l 692 0 l 692 174 l 304 174 l 304 972 l 106 972 z "},"Ŋ":{"ha":1094,"x_min":106,"x_max":989,"o":"m 765 -301 q 885 -274 835 -301 q 963 -194 936 -246 q 989 -72 989 -143 l 989 972 l 797 972 l 797 371 l 106 1021 l 106 0 l 297 0 l 297 601 l 815 103 l 815 -32 q 808 -91 815 -68 q 785 -125 800 -114 q 749 -136 771 -136 q 713 -127 728 -136 q 683 -100 697 -118 l 606 -235 q 679 -285 642 -269 q 765 -301 717 -301 z "},"Œ":{"ha":1368,"x_min":50,"x_max":1306,"o":"m 781 433 l 1276 433 l 1276 599 l 781 599 l 781 433 m 686 931 l 686 42 l 878 42 l 878 931 l 686 931 m 1306 168 l 794 168 l 761 176 l 571 176 q 438 197 496 176 q 338 258 379 218 q 276 355 297 297 q 254 486 254 413 q 275 617 254 560 q 337 715 296 675 q 437 775 378 754 q 571 796 496 796 l 765 796 l 789 804 l 1304 804 l 1304 972 l 542 972 q 346 938 436 972 q 190 838 256 903 q 87 684 124 774 q 50 486 50 594 q 87 288 50 378 q 190 134 124 199 q 347 35 257 69 q 542 0 436 0 l 1306 0 l 1306 168 z "},"Ŧ":{"ha":738,"x_min":8,"x_max":731,"o":"m 122 453 l 617 453 l 617 611 l 122 611 l 122 453 m 8 793 l 269 793 l 269 0 l 468 0 l 468 793 l 731 793 l 731 972 l 8 972 l 8 793 z "},"ẞ":{"ha":1089,"x_min":111,"x_max":1032,"o":"m 699 -17 q 533 3 611 -17 q 390 56 454 24 l 446 218 q 553 172 501 189 q 661 156 606 156 q 741 166 704 156 q 800 199 778 176 q 822 258 822 222 q 800 322 822 299 q 744 361 778 346 q 678 392 711 376 q 622 432 644 407 q 600 497 600 457 q 614 553 600 531 q 649 593 628 576 q 691 625 671 610 q 725 659 711 640 q 739 704 739 678 q 722 755 739 731 q 669 794 704 779 q 578 808 633 808 q 438 774 497 808 q 346 670 378 739 q 314 500 314 601 l 315 -3 l 111 -3 l 111 518 q 142 719 111 632 q 233 868 174 807 q 383 960 293 929 q 588 992 472 992 q 788 960 706 992 q 912 874 869 928 q 954 751 954 819 q 941 672 954 706 q 908 615 928 639 q 869 570 889 590 q 835 535 849 550 q 822 503 822 519 q 843 468 822 482 q 896 439 864 454 q 959 401 928 424 q 1011 342 990 379 q 1032 244 1032 304 q 992 107 1032 165 q 876 16 951 49 q 699 -17 801 -17 z "},"Δ":{"ha":833,"x_min":25,"x_max":807,"o":"m 25 0 l 417 1111 l 807 0 l 25 0 m 238 143 l 594 143 l 417 718 l 238 143 z "},"Ω":{"ha":833,"x_min":92,"x_max":740,"o":"m 92 0 l 92 154 l 213 142 q 148 237 174 188 q 109 337 122 286 q 96 440 96 388 q 138 612 96 536 q 253 732 181 688 q 417 776 325 776 q 581 732 508 776 q 694 612 653 688 q 736 440 736 536 q 724 337 736 388 q 685 237 711 286 q 619 142 658 188 l 740 154 l 740 0 l 458 0 l 458 133 q 520 204 493 161 q 562 297 547 247 q 576 394 576 346 q 557 494 576 453 q 502 559 538 536 q 417 582 467 582 q 331 559 367 582 q 275 494 294 536 q 256 394 256 453 q 271 297 256 347 q 313 204 286 247 q 375 133 340 161 l 375 0 l 92 0 z "},"А":{"ha":988,"x_min":1,"x_max":988,"o":"m 240 221 l 754 221 l 731 378 l 264 378 l 240 221 m 494 657 l 640 319 l 638 269 l 763 0 l 988 0 l 494 1029 l 1 0 l 225 0 l 353 278 l 349 322 l 494 657 z "},"Б":{"ha":881,"x_min":111,"x_max":825,"o":"m 176 433 l 458 433 q 546 419 508 433 q 603 375 583 404 q 624 300 624 346 q 603 226 624 256 q 546 183 583 197 q 458 168 508 168 l 176 168 l 176 0 l 494 0 q 663 38 589 0 q 781 143 738 75 q 825 300 825 211 q 781 458 825 390 q 663 562 738 525 q 494 599 589 599 l 176 599 l 176 433 m 111 972 l 111 0 l 313 0 l 313 804 l 751 804 l 751 972 l 111 972 z "},"В":{"ha":876,"x_min":106,"x_max":813,"o":"m 254 493 l 429 493 q 600 520 526 493 q 715 600 674 547 q 757 726 757 653 q 715 864 757 810 q 600 945 674 918 q 429 972 526 972 l 106 972 l 106 0 l 450 0 q 640 29 558 0 q 767 119 722 58 q 813 276 813 181 q 783 400 813 349 q 701 484 753 451 q 585 532 650 517 q 450 547 521 547 l 254 547 l 254 439 l 432 439 q 501 431 469 439 q 558 406 533 424 q 595 363 582 389 q 608 301 608 338 q 585 219 608 251 q 522 173 563 188 q 432 158 482 158 l 304 158 l 304 814 l 411 814 q 515 785 476 814 q 553 700 553 756 q 535 638 553 664 q 486 597 518 611 q 411 583 454 583 l 254 583 l 254 493 z "},"Г":{"ha":672,"x_min":111,"x_max":658,"o":"m 111 972 l 111 0 l 310 0 l 310 793 l 658 793 l 658 972 l 111 972 z "},"Ѓ":{"ha":672,"x_min":111,"x_max":658,"o":"m 111 972 l 111 0 l 310 0 l 310 793 l 658 793 l 658 972 l 111 972 m 635 1283 l 493 1351 l 285 1129 l 385 1075 l 635 1283 z "},"Д":{"ha":1188,"x_min":56,"x_max":1125,"o":"m 590 646 l 814 42 l 1040 42 l 590 1021 l 140 42 l 367 42 l 590 646 m 932 0 l 932 -153 l 1125 -153 l 1125 174 l 56 174 l 56 -153 l 249 -153 l 249 0 l 932 0 z "},"Е":{"ha":814,"x_min":106,"x_max":724,"o":"m 233 0 l 724 0 l 724 168 l 233 168 l 233 0 m 233 804 l 724 804 l 724 972 l 233 972 l 233 804 m 233 433 l 696 433 l 696 599 l 233 599 l 233 433 m 106 972 l 106 0 l 297 0 l 297 972 l 106 972 z "},"Ѐ":{"ha":814,"x_min":106,"x_max":724,"o":"m 233 0 l 724 0 l 724 168 l 233 168 l 233 0 m 233 804 l 724 804 l 724 972 l 233 972 l 233 804 m 233 433 l 696 433 l 696 599 l 233 599 l 233 433 m 106 972 l 106 0 l 297 0 l 297 972 l 106 972 m 164 1283 l 414 1075 l 515 1129 l 307 1351 l 164 1283 z "},"Ё":{"ha":814,"x_min":106,"x_max":724,"o":"m 233 0 l 724 0 l 724 168 l 233 168 l 233 0 m 233 804 l 724 804 l 724 972 l 233 972 l 233 804 m 233 433 l 696 433 l 696 599 l 233 599 l 233 433 m 106 972 l 106 0 l 297 0 l 297 972 l 106 972 m 467 1178 q 499 1104 467 1133 q 574 1075 531 1075 q 651 1104 619 1075 q 682 1178 682 1133 q 651 1251 682 1222 q 574 1279 619 1279 q 499 1251 531 1279 q 467 1178 467 1222 m 147 1178 q 179 1104 147 1133 q 254 1075 211 1075 q 331 1104 300 1075 q 363 1178 363 1133 q 331 1251 363 1222 q 254 1279 300 1279 q 179 1251 211 1279 q 147 1178 147 1222 z "},"Ж":{"ha":1425,"x_min":1,"x_max":1424,"o":"m 257 972 l 22 972 l 431 517 l 1 0 l 236 0 l 663 514 l 257 972 m 614 972 l 614 0 l 818 0 l 818 972 l 614 972 m 1161 972 l 769 514 l 1182 0 l 1424 0 l 994 517 l 1403 972 l 1161 972 z "},"З":{"ha":901,"x_min":71,"x_max":854,"o":"m 414 474 q 576 490 501 474 q 707 539 651 507 q 794 617 763 571 q 826 724 826 664 q 785 857 826 797 q 665 953 743 917 q 471 989 586 989 q 278 951 358 989 q 155 849 197 914 q 113 701 113 785 l 297 701 q 319 766 297 738 q 379 810 340 794 q 471 826 418 826 q 558 811 522 826 q 610 769 593 796 q 628 706 628 742 q 603 637 628 668 q 532 588 579 606 q 414 569 485 569 l 414 474 m 474 -19 q 683 16 597 -19 q 811 115 768 51 q 854 263 854 179 q 797 422 854 361 q 640 510 739 482 q 414 539 540 539 l 414 433 q 547 415 493 433 q 628 363 601 397 q 656 283 656 329 q 607 180 656 215 q 468 144 558 144 q 365 162 408 144 q 296 213 321 179 q 268 293 271 246 l 71 293 q 96 174 71 231 q 170 74 121 118 q 295 6 219 31 q 474 -19 371 -19 z "},"И":{"ha":1094,"x_min":106,"x_max":989,"o":"m 982 763 l 989 1021 l 113 210 l 106 -49 l 982 763 m 297 972 l 106 972 l 106 -49 l 297 158 l 297 972 m 989 1021 l 797 808 l 797 0 l 989 0 l 989 1021 z "},"Ѝ":{"ha":1094,"x_min":106,"x_max":989,"o":"m 982 763 l 989 1021 l 113 210 l 106 -49 l 982 763 m 297 972 l 106 972 l 106 -49 l 297 158 l 297 972 m 989 1021 l 797 808 l 797 0 l 989 0 l 989 1021 m 349 1256 l 599 1047 l 700 1100 l 492 1322 l 349 1256 z "},"Й":{"ha":1094,"x_min":106,"x_max":989,"o":"m 982 763 l 989 1021 l 113 210 l 106 -49 l 982 763 m 297 972 l 106 972 l 106 -49 l 297 158 l 297 972 m 989 1021 l 797 808 l 797 0 l 989 0 l 989 1021 m 357 1269 q 383 1169 357 1215 q 459 1096 408 1124 q 582 1068 510 1068 q 706 1096 656 1068 q 782 1169 756 1124 q 808 1269 808 1215 l 682 1269 q 672 1226 682 1247 q 639 1192 661 1206 q 582 1179 617 1179 q 526 1192 549 1179 q 493 1226 504 1206 q 482 1269 482 1247 l 357 1269 z "},"К":{"ha":914,"x_min":106,"x_max":913,"o":"m 106 972 l 106 0 l 310 0 l 310 972 l 106 972 m 656 972 l 251 511 l 671 0 l 913 0 l 489 517 l 892 972 l 656 972 z "},"Ќ":{"ha":914,"x_min":106,"x_max":913,"o":"m 106 972 l 106 0 l 310 0 l 310 972 l 106 972 m 656 972 l 251 511 l 671 0 l 913 0 l 489 517 l 892 972 l 656 972 m 749 1283 l 606 1351 l 397 1129 l 499 1075 l 749 1283 z "},"Л":{"ha":1021,"x_min":14,"x_max":910,"o":"m 910 972 l 156 972 l 156 386 q 146 297 156 338 q 118 228 136 257 q 74 183 100 199 q 14 168 47 168 l 14 0 q 207 46 132 0 q 317 178 282 92 q 353 388 353 265 l 353 793 l 708 793 l 708 0 l 910 0 l 910 972 z "},"М":{"ha":1203,"x_min":50,"x_max":1153,"o":"m 319 546 l 601 90 l 883 546 l 946 0 l 1153 0 l 1008 1021 l 601 393 l 194 1021 l 50 0 l 257 0 l 319 546 z "},"Н":{"ha":1061,"x_min":106,"x_max":957,"o":"m 171 428 l 885 428 l 885 607 l 171 607 l 171 428 m 758 972 l 758 0 l 957 0 l 957 972 l 758 972 m 106 972 l 106 0 l 304 0 l 304 972 l 106 972 z "},"О":{"ha":1126,"x_min":50,"x_max":1078,"o":"m 260 486 q 299 651 260 579 q 406 765 338 724 q 564 807 474 807 q 724 765 656 807 q 829 651 792 724 q 867 486 867 579 q 828 321 867 393 q 722 207 790 249 q 564 165 654 165 q 406 207 474 165 q 299 321 338 249 q 260 486 260 393 m 50 486 q 88 283 50 376 q 194 119 125 189 q 358 12 264 50 q 564 -26 451 -26 q 770 12 676 -26 q 933 119 864 50 q 1040 283 1001 189 q 1078 486 1078 376 q 1040 690 1078 597 q 931 850 1001 782 q 768 955 861 918 q 564 992 675 992 q 360 955 454 992 q 197 850 267 918 q 89 690 128 782 q 50 486 50 597 z "},"П":{"ha":1047,"x_min":111,"x_max":936,"o":"m 735 793 l 735 0 l 936 0 l 936 972 l 111 972 l 111 0 l 313 0 l 313 793 l 735 793 z "},"Р":{"ha":832,"x_min":106,"x_max":783,"o":"m 106 972 l 106 0 l 304 0 l 304 972 l 106 972 m 226 804 l 419 804 q 544 769 499 804 q 590 663 590 733 q 544 557 590 593 q 419 521 499 521 l 226 521 l 226 353 l 419 353 q 616 390 535 353 q 740 498 697 428 q 783 663 783 568 q 740 828 783 758 q 616 935 697 897 q 419 972 535 972 l 226 972 l 226 804 z "},"С":{"ha":967,"x_min":50,"x_max":875,"o":"m 265 486 q 309 654 265 583 q 424 763 353 725 q 578 801 494 801 q 701 783 647 801 q 799 735 756 765 q 875 668 843 704 l 875 892 q 745 965 815 939 q 568 992 675 992 q 362 956 457 992 q 197 851 267 919 q 88 691 126 783 q 50 486 50 599 q 88 281 50 374 q 197 121 126 189 q 362 17 267 53 q 568 -19 457 -19 q 745 7 675 -19 q 875 81 815 33 l 875 304 q 799 238 843 268 q 701 189 756 207 q 578 171 647 171 q 424 209 494 171 q 309 319 353 247 q 265 486 265 390 z "},"Т":{"ha":738,"x_min":8,"x_max":731,"o":"m 8 793 l 269 793 l 269 0 l 468 0 l 468 793 l 731 793 l 731 972 l 8 972 l 8 793 z "},"У":{"ha":835,"x_min":-8,"x_max":844,"o":"m 844 972 l 635 972 l 365 374 l 458 369 l 217 972 l -8 972 l 310 293 l 181 0 l 388 0 l 844 972 z "},"Ў":{"ha":824,"x_min":-8,"x_max":832,"o":"m 832 972 l 629 972 l 360 374 l 453 369 l 211 972 l -8 972 l 304 293 l 175 0 l 375 0 l 832 972 m 189 1276 q 215 1176 189 1222 q 291 1103 240 1131 q 414 1075 342 1075 q 538 1103 488 1075 q 613 1176 588 1131 q 639 1276 639 1222 l 514 1276 q 503 1233 514 1254 q 469 1199 492 1213 q 414 1186 447 1186 q 358 1199 381 1186 q 325 1233 336 1213 q 314 1276 314 1254 l 189 1276 z "},"Ф":{"ha":1231,"x_min":56,"x_max":1175,"o":"m 514 972 l 514 0 l 715 0 l 715 972 l 514 972 m 974 486 q 939 372 974 417 q 842 308 904 328 q 694 289 779 289 l 536 289 q 389 308 451 289 q 292 372 326 328 q 257 486 257 417 q 292 601 257 557 q 389 664 326 644 q 536 683 451 683 l 694 683 q 842 664 779 683 q 939 601 904 644 q 974 486 974 557 m 1175 486 q 1116 688 1175 604 q 955 816 1057 771 q 725 861 853 861 l 506 861 q 276 816 378 861 q 115 688 174 771 q 56 486 56 604 q 115 285 56 369 q 276 156 174 201 q 506 111 378 111 l 725 111 q 955 156 853 111 q 1116 285 1057 201 q 1175 486 1175 369 z "},"Х":{"ha":896,"x_min":8,"x_max":888,"o":"m 624 972 l 453 667 l 286 972 l 43 972 l 336 501 l 8 0 l 251 0 l 451 349 l 644 0 l 888 0 l 568 501 l 867 972 l 624 972 z "},"Ц":{"ha":1151,"x_min":106,"x_max":1101,"o":"m 307 179 l 307 972 l 106 972 l 106 0 l 914 0 l 914 -176 l 1101 -176 l 1101 179 l 960 179 l 960 972 l 758 972 l 758 179 l 307 179 z "},"Ч":{"ha":953,"x_min":106,"x_max":842,"o":"m 421 332 l 722 332 l 722 508 l 468 508 l 421 332 m 638 972 l 638 0 l 842 0 l 842 972 l 638 972 m 303 972 l 106 972 l 106 672 q 142 501 106 579 q 249 378 178 424 q 421 332 319 332 l 468 508 q 381 531 418 508 q 323 594 343 553 q 303 693 303 636 l 303 972 z "},"Ш":{"ha":1460,"x_min":111,"x_max":1349,"o":"m 1151 179 l 826 179 l 826 972 l 633 972 l 633 179 l 310 179 l 310 972 l 111 972 l 111 0 l 1349 0 l 1349 972 l 1151 972 l 1151 179 z "},"Щ":{"ha":1547,"x_min":111,"x_max":1492,"o":"m 1151 179 l 826 179 l 826 972 l 633 972 l 633 179 l 310 179 l 310 972 l 111 972 l 111 0 l 1304 0 l 1304 -176 l 1492 -176 l 1492 179 l 1349 179 l 1349 972 l 1151 972 l 1151 179 z "},"Ъ":{"ha":989,"x_min":14,"x_max":939,"o":"m 383 451 l 575 451 q 666 435 628 451 q 725 388 704 419 q 746 310 746 356 q 725 232 746 264 q 666 184 704 200 q 575 168 628 168 l 383 168 l 383 0 l 575 0 q 772 38 690 0 q 896 145 853 75 q 939 310 939 215 q 896 475 939 406 q 772 582 853 544 q 575 619 690 619 l 383 619 l 383 451 m 264 793 l 264 0 l 463 0 l 463 972 l 14 972 l 14 793 l 264 793 z "},"Ы":{"ha":1200,"x_min":106,"x_max":1094,"o":"m 893 972 l 893 0 l 1094 0 l 1094 972 l 893 972 m 106 972 l 106 0 l 304 0 l 304 972 l 106 972 m 226 451 l 419 451 q 510 435 472 451 q 569 388 549 419 q 590 310 590 356 q 569 232 590 264 q 510 184 549 200 q 419 168 472 168 l 226 168 l 226 0 l 419 0 q 616 38 535 0 q 740 145 697 75 q 783 310 783 215 q 740 475 783 406 q 616 582 697 544 q 419 619 535 619 l 226 619 l 226 451 z "},"Ь":{"ha":832,"x_min":106,"x_max":783,"o":"m 106 972 l 106 0 l 304 0 l 304 972 l 106 972 m 226 451 l 419 451 q 510 435 472 451 q 569 388 549 419 q 590 310 590 356 q 569 232 590 264 q 510 184 549 200 q 419 168 472 168 l 226 168 l 226 0 l 419 0 q 616 38 535 0 q 740 145 697 75 q 783 310 783 215 q 740 475 783 406 q 616 582 697 544 q 419 619 535 619 l 226 619 l 226 451 z "},"Э":{"ha":967,"x_min":92,"x_max":917,"o":"m 188 404 l 728 404 l 728 568 l 188 568 l 188 404 m 719 486 q 672 318 719 390 q 548 206 624 246 q 389 165 472 165 q 264 183 321 165 q 164 228 207 200 q 92 286 121 256 l 92 81 q 221 7 150 33 q 397 -19 292 -19 q 606 17 511 -19 q 769 121 700 53 q 878 281 839 189 q 917 486 917 374 q 878 691 917 599 q 769 851 839 783 q 606 956 700 919 q 397 992 511 992 q 221 965 292 992 q 92 892 150 939 l 92 686 q 164 744 121 717 q 264 790 207 772 q 389 807 321 807 q 548 767 472 807 q 672 656 624 728 q 719 486 719 583 z "},"Ю":{"ha":1538,"x_min":106,"x_max":1488,"o":"m 171 428 l 589 428 l 589 607 l 171 607 l 171 428 m 106 972 l 106 0 l 304 0 l 304 972 l 106 972 m 671 486 q 709 651 671 579 q 816 765 747 724 q 974 807 885 807 q 1134 765 1067 807 q 1240 651 1201 724 q 1278 486 1278 579 q 1239 321 1278 393 q 1132 207 1200 249 q 974 165 1064 165 q 816 207 885 165 q 709 321 747 249 q 671 486 671 393 m 460 486 q 498 283 460 376 q 606 119 536 189 q 769 12 675 50 q 974 -26 863 -26 q 1180 12 1086 -26 q 1343 119 1274 50 q 1450 283 1413 189 q 1488 486 1488 376 q 1449 690 1488 597 q 1342 850 1411 782 q 1178 955 1272 918 q 974 992 1085 992 q 772 955 865 992 q 608 850 678 918 q 499 690 538 782 q 460 486 460 597 z "},"Я":{"ha":861,"x_min":8,"x_max":756,"o":"m 535 453 l 325 453 l 8 0 l 243 0 l 535 453 m 756 972 l 557 972 l 557 0 l 756 0 l 756 972 m 635 803 l 635 972 l 429 972 q 234 933 315 972 q 110 825 153 894 q 67 663 67 756 q 110 501 67 571 q 234 392 153 431 q 429 353 315 353 l 635 353 l 635 511 l 442 511 q 351 528 390 511 q 292 578 313 546 q 271 657 271 611 q 292 735 271 703 q 351 785 313 768 q 442 803 390 803 l 635 803 z "},"a":{"ha":724,"x_min":36,"x_max":646,"o":"m 217 199 q 229 245 217 226 q 268 274 242 264 q 336 285 294 285 q 434 271 388 285 q 518 229 481 257 l 518 313 q 472 347 504 329 q 394 378 440 365 q 286 390 347 390 q 101 336 167 390 q 36 189 36 282 q 67 78 36 124 q 150 10 99 33 q 261 -14 201 -14 q 373 7 319 -14 q 460 69 426 28 q 494 172 494 111 l 472 256 q 451 177 472 210 q 397 127 431 144 q 322 110 364 110 q 269 120 293 110 q 231 151 244 131 q 217 199 217 171 m 147 458 q 190 482 161 468 q 260 506 219 496 q 344 515 300 515 q 397 510 374 515 q 438 492 421 504 q 464 460 456 479 q 472 415 472 442 l 472 0 l 646 0 l 646 453 q 610 563 646 518 q 510 632 574 608 q 364 656 446 656 q 203 631 275 656 q 81 581 131 607 l 147 458 z "},"à":{"ha":731,"x_min":36,"x_max":653,"o":"m 217 190 q 231 240 217 219 q 275 274 246 261 q 346 286 304 286 q 444 272 403 286 q 525 229 486 258 l 525 317 q 482 349 513 332 q 407 378 451 365 q 311 390 363 390 q 169 365 232 390 q 72 293 107 340 q 36 176 36 246 q 64 74 36 117 q 144 9 92 32 q 264 -14 196 -14 q 384 9 331 -14 q 469 76 438 32 q 501 181 501 119 l 479 256 q 458 171 479 203 q 401 125 438 139 q 322 111 365 111 q 265 120 289 111 q 229 147 242 129 q 217 190 217 164 m 160 457 q 205 481 175 467 q 274 505 235 494 q 360 515 314 515 q 446 491 413 515 q 479 424 479 467 l 479 0 l 653 0 l 653 453 q 617 563 653 518 q 517 632 581 608 q 371 656 454 656 q 214 631 285 656 q 94 581 143 607 l 160 457 m 138 947 l 388 739 l 489 793 l 281 1015 l 138 947 z "},"á":{"ha":731,"x_min":36,"x_max":653,"o":"m 217 190 q 231 240 217 219 q 275 274 246 261 q 346 286 304 286 q 444 272 403 286 q 525 229 486 258 l 525 317 q 482 349 513 332 q 407 378 451 365 q 311 390 363 390 q 169 365 232 390 q 72 293 107 340 q 36 176 36 246 q 64 74 36 117 q 144 9 92 32 q 264 -14 196 -14 q 384 9 331 -14 q 469 76 438 32 q 501 181 501 119 l 479 256 q 458 171 479 203 q 401 125 438 139 q 322 111 365 111 q 265 120 289 111 q 229 147 242 129 q 217 190 217 164 m 160 457 q 205 481 175 467 q 274 505 235 494 q 360 515 314 515 q 446 491 413 515 q 479 424 479 467 l 479 0 l 653 0 l 653 453 q 617 563 653 518 q 517 632 581 608 q 371 656 454 656 q 214 631 285 656 q 94 581 143 607 l 160 457 m 606 947 l 463 1015 l 254 793 l 356 739 l 606 947 z "},"â":{"ha":731,"x_min":36,"x_max":653,"o":"m 217 190 q 231 240 217 219 q 275 274 246 261 q 346 286 304 286 q 444 272 403 286 q 525 229 486 258 l 525 317 q 482 349 513 332 q 407 378 451 365 q 311 390 363 390 q 169 365 232 390 q 72 293 107 340 q 36 176 36 246 q 64 74 36 117 q 144 9 92 32 q 264 -14 196 -14 q 384 9 331 -14 q 469 76 438 32 q 501 181 501 119 l 479 256 q 458 171 479 203 q 401 125 438 139 q 322 111 365 111 q 265 120 289 111 q 229 147 242 129 q 217 190 217 164 m 160 457 q 205 481 175 467 q 274 505 235 494 q 360 515 314 515 q 446 491 413 515 q 479 424 479 467 l 479 0 l 653 0 l 653 453 q 617 563 653 518 q 517 632 581 608 q 371 656 454 656 q 214 631 285 656 q 94 581 143 607 l 160 457 m 371 863 l 506 739 l 629 825 l 371 1019 l 114 825 l 236 739 l 371 863 z "},"ã":{"ha":731,"x_min":36,"x_max":653,"o":"m 217 190 q 231 240 217 219 q 275 274 246 261 q 346 286 304 286 q 444 272 403 286 q 525 229 486 258 l 525 317 q 482 349 513 332 q 407 378 451 365 q 311 390 363 390 q 169 365 232 390 q 72 293 107 340 q 36 176 36 246 q 64 74 36 117 q 144 9 92 32 q 264 -14 196 -14 q 384 9 331 -14 q 469 76 438 32 q 501 181 501 119 l 479 256 q 458 171 479 203 q 401 125 438 139 q 322 111 365 111 q 265 120 289 111 q 229 147 242 129 q 217 190 217 164 m 160 457 q 205 481 175 467 q 274 505 235 494 q 360 515 314 515 q 446 491 413 515 q 479 424 479 467 l 479 0 l 653 0 l 653 453 q 617 563 653 518 q 517 632 581 608 q 371 656 454 656 q 214 631 285 656 q 94 581 143 607 l 160 457 m 113 818 l 204 743 q 209 771 204 754 q 228 801 214 788 q 271 814 243 814 q 331 796 304 814 q 388 760 358 778 q 456 742 418 742 q 533 760 497 742 q 594 804 568 778 q 631 856 619 831 l 543 944 q 501 892 522 911 q 456 874 481 874 q 407 884 426 874 q 369 908 388 894 q 328 933 351 922 q 272 943 306 943 q 198 926 232 943 q 142 881 164 908 q 113 818 119 853 z "},"ä":{"ha":731,"x_min":36,"x_max":653,"o":"m 217 190 q 231 240 217 219 q 275 274 246 261 q 346 286 304 286 q 444 272 403 286 q 525 229 486 258 l 525 317 q 482 349 513 332 q 407 378 451 365 q 311 390 363 390 q 169 365 232 390 q 72 293 107 340 q 36 176 36 246 q 64 74 36 117 q 144 9 92 32 q 264 -14 196 -14 q 384 9 331 -14 q 469 76 438 32 q 501 181 501 119 l 479 256 q 458 171 479 203 q 401 125 438 139 q 322 111 365 111 q 265 120 289 111 q 229 147 242 129 q 217 190 217 164 m 160 457 q 205 481 175 467 q 274 505 235 494 q 360 515 314 515 q 446 491 413 515 q 479 424 479 467 l 479 0 l 653 0 l 653 453 q 617 563 653 518 q 517 632 581 608 q 371 656 454 656 q 214 631 285 656 q 94 581 143 607 l 160 457 m 424 842 q 455 768 424 797 q 531 739 486 739 q 608 768 576 739 q 639 842 639 797 q 608 915 639 886 q 531 943 576 943 q 455 915 486 943 q 424 842 424 886 m 104 842 q 135 768 104 797 q 211 739 167 739 q 288 768 257 739 q 319 842 319 797 q 288 915 319 886 q 211 943 257 943 q 135 915 167 943 q 104 842 104 886 z "},"å":{"ha":731,"x_min":36,"x_max":653,"o":"m 217 190 q 231 240 217 219 q 275 274 246 261 q 346 286 304 286 q 444 272 403 286 q 525 229 486 258 l 525 317 q 482 349 513 332 q 407 378 451 365 q 311 390 363 390 q 169 365 232 390 q 72 293 107 340 q 36 176 36 246 q 64 74 36 117 q 144 9 92 32 q 264 -14 196 -14 q 384 9 331 -14 q 469 76 438 32 q 501 181 501 119 l 479 256 q 458 171 479 203 q 401 125 438 139 q 322 111 365 111 q 265 120 289 111 q 229 147 242 129 q 217 190 217 164 m 160 457 q 205 481 175 467 q 274 505 235 494 q 360 515 314 515 q 446 491 413 515 q 479 424 479 467 l 479 0 l 653 0 l 653 453 q 617 563 653 518 q 517 632 581 608 q 371 656 454 656 q 214 631 285 656 q 94 581 143 607 l 160 457 m 207 893 q 256 782 207 825 q 371 739 304 739 q 486 782 438 739 q 535 893 535 825 q 486 1005 535 963 q 371 1047 438 1047 q 256 1005 304 1047 q 207 893 207 963 m 304 893 q 324 943 304 925 q 371 961 344 961 q 417 943 397 961 q 438 893 438 925 q 417 843 438 861 q 371 825 397 825 q 324 843 344 825 q 304 893 304 861 z "},"ā":{"ha":731,"x_min":36,"x_max":653,"o":"m 217 190 q 231 240 217 219 q 275 274 246 261 q 346 286 304 286 q 444 272 403 286 q 525 229 486 258 l 525 317 q 482 349 513 332 q 407 378 451 365 q 311 390 363 390 q 169 365 232 390 q 72 293 107 340 q 36 176 36 246 q 64 74 36 117 q 144 9 92 32 q 264 -14 196 -14 q 384 9 331 -14 q 469 76 438 32 q 501 181 501 119 l 479 256 q 458 171 479 203 q 401 125 438 139 q 322 111 365 111 q 265 120 289 111 q 229 147 242 129 q 217 190 217 164 m 160 457 q 205 481 175 467 q 274 505 235 494 q 360 515 314 515 q 446 491 413 515 q 479 424 479 467 l 479 0 l 653 0 l 653 453 q 617 563 653 518 q 517 632 581 608 q 371 656 454 656 q 214 631 285 656 q 94 581 143 607 l 160 457 m 118 756 l 625 756 l 625 913 l 118 913 l 118 756 z "},"ă":{"ha":731,"x_min":36,"x_max":653,"o":"m 217 190 q 231 240 217 219 q 275 274 246 261 q 346 286 304 286 q 444 272 403 286 q 525 229 486 258 l 525 317 q 482 349 513 332 q 407 378 451 365 q 311 390 363 390 q 169 365 232 390 q 72 293 107 340 q 36 176 36 246 q 64 74 36 117 q 144 9 92 32 q 264 -14 196 -14 q 384 9 331 -14 q 469 76 438 32 q 501 181 501 119 l 479 256 q 458 171 479 203 q 401 125 438 139 q 322 111 365 111 q 265 120 289 111 q 229 147 242 129 q 217 190 217 164 m 160 457 q 205 481 175 467 q 274 505 235 494 q 360 515 314 515 q 446 491 413 515 q 479 424 479 467 l 479 0 l 653 0 l 653 453 q 617 563 653 518 q 517 632 581 608 q 371 656 454 656 q 214 631 285 656 q 94 581 143 607 l 160 457 m 146 939 q 172 840 146 886 q 248 767 197 794 q 371 739 299 739 q 494 767 444 739 q 571 840 544 794 q 597 939 597 886 l 471 939 q 460 897 471 917 q 428 863 450 876 q 371 850 406 850 q 315 863 338 850 q 282 897 293 876 q 271 939 271 917 l 146 939 z "},"ą":{"ha":731,"x_min":36,"x_max":676,"o":"m 217 190 q 231 240 217 219 q 275 274 246 261 q 346 286 304 286 q 444 272 403 286 q 525 229 486 258 l 525 317 q 482 349 513 332 q 407 378 451 365 q 311 390 363 390 q 166 365 228 390 q 70 294 104 340 q 36 182 36 247 q 66 74 36 118 q 147 8 96 31 q 264 -14 199 -14 q 384 9 331 -14 q 469 76 438 32 q 501 181 501 119 l 479 256 q 458 171 479 203 q 401 125 438 139 q 322 111 365 111 q 269 120 293 111 q 231 147 244 129 q 217 190 217 164 m 160 457 q 205 481 175 467 q 274 505 235 494 q 360 515 314 515 q 446 491 413 515 q 479 424 479 467 l 479 0 l 653 0 l 653 453 q 617 563 653 518 q 517 632 581 608 q 371 656 454 656 q 214 631 285 656 q 94 581 143 607 l 160 457 m 631 -162 q 600 -183 617 -176 q 561 -190 583 -190 q 520 -176 535 -190 q 506 -133 506 -162 q 520 -86 506 -110 q 561 -40 535 -62 q 624 0 588 -18 l 567 35 q 474 -20 518 10 q 403 -86 431 -50 q 376 -167 376 -122 q 397 -242 376 -210 q 455 -290 418 -274 q 542 -306 492 -306 q 628 -288 594 -306 q 676 -250 661 -271 l 631 -162 z "},"b":{"ha":836,"x_min":85,"x_max":790,"o":"m 265 1083 l 85 1083 l 85 0 l 265 0 l 265 1083 m 790 319 q 747 501 790 426 q 634 614 704 575 q 483 653 564 653 q 342 613 404 653 q 244 498 281 572 q 208 319 208 424 q 244 142 208 217 q 342 26 281 67 q 483 -14 404 -14 q 634 25 564 -14 q 747 139 704 64 q 790 319 790 214 m 604 319 q 581 221 604 263 q 517 157 557 179 q 431 135 478 135 q 352 156 390 135 q 290 219 314 178 q 265 319 265 261 q 290 419 265 378 q 352 483 314 461 q 431 504 390 504 q 517 482 478 504 q 581 418 557 460 q 604 319 604 376 z "},"c":{"ha":679,"x_min":42,"x_max":610,"o":"m 225 319 q 250 415 225 374 q 317 481 275 457 q 411 506 360 506 q 489 493 450 506 q 560 458 528 481 q 610 404 593 435 l 610 589 q 523 635 576 618 q 399 653 469 653 q 216 611 297 653 q 88 494 135 569 q 42 319 42 419 q 88 145 42 221 q 216 28 135 69 q 399 -14 297 -14 q 523 3 469 -14 q 610 51 576 21 l 610 236 q 562 183 593 206 q 492 147 531 160 q 411 133 453 133 q 317 157 360 133 q 250 222 275 181 q 225 319 225 264 z "},"ç":{"ha":679,"x_min":42,"x_max":610,"o":"m 225 319 q 250 415 225 374 q 317 481 275 457 q 411 506 360 506 q 489 493 450 506 q 560 458 528 481 q 610 404 593 435 l 610 589 q 523 635 576 618 q 399 653 469 653 q 216 611 297 653 q 88 494 135 569 q 42 319 42 419 q 88 145 42 221 q 216 28 135 69 q 399 -14 297 -14 q 523 3 469 -14 q 610 51 576 21 l 610 236 q 562 183 593 206 q 492 147 531 160 q 411 133 453 133 q 317 157 360 133 q 250 222 275 181 q 225 319 225 264 m 339 83 l 218 -175 q 280 -156 249 -160 q 321 -151 311 -151 q 378 -162 356 -151 q 401 -199 401 -172 q 383 -236 401 -224 q 328 -249 364 -249 q 279 -241 306 -249 q 228 -215 253 -233 l 169 -297 q 253 -340 213 -328 q 346 -351 294 -351 q 428 -335 389 -351 q 492 -286 467 -318 q 517 -207 517 -254 q 499 -137 517 -164 q 453 -96 481 -110 q 399 -82 425 -82 q 379 -82 389 -82 q 360 -85 369 -82 l 469 81 l 339 83 z "},"ć":{"ha":679,"x_min":42,"x_max":610,"o":"m 225 319 q 250 415 225 374 q 317 481 275 457 q 411 506 360 506 q 489 493 450 506 q 560 458 528 481 q 610 404 593 435 l 610 589 q 523 635 576 618 q 399 653 469 653 q 216 611 297 653 q 88 494 135 569 q 42 319 42 419 q 88 145 42 221 q 216 28 135 69 q 399 -14 297 -14 q 523 3 469 -14 q 610 51 576 21 l 610 236 q 562 183 593 206 q 492 147 531 160 q 411 133 453 133 q 317 157 360 133 q 250 222 275 181 q 225 319 225 264 m 579 944 l 436 1013 l 228 790 l 329 736 l 579 944 z "},"ĉ":{"ha":679,"x_min":42,"x_max":628,"o":"m 225 319 q 250 415 225 374 q 317 481 275 457 q 411 506 360 506 q 489 493 450 506 q 560 458 528 481 q 610 404 593 435 l 610 589 q 523 635 576 618 q 399 653 469 653 q 216 611 297 653 q 88 494 135 569 q 42 319 42 419 q 88 145 42 221 q 216 28 135 69 q 399 -14 297 -14 q 523 3 469 -14 q 610 51 576 21 l 610 236 q 562 183 593 206 q 492 147 531 160 q 411 133 453 133 q 317 157 360 133 q 250 222 275 181 q 225 319 225 264 m 369 860 l 504 736 l 628 822 l 369 1017 l 111 822 l 235 736 l 369 860 z "},"ċ":{"ha":679,"x_min":42,"x_max":610,"o":"m 225 319 q 250 415 225 374 q 317 481 275 457 q 411 506 360 506 q 489 493 450 506 q 560 458 528 481 q 610 404 593 435 l 610 589 q 523 635 576 618 q 399 653 469 653 q 216 611 297 653 q 88 494 135 569 q 42 319 42 419 q 88 145 42 221 q 216 28 135 69 q 399 -14 297 -14 q 523 3 469 -14 q 610 51 576 21 l 610 236 q 562 183 593 206 q 492 147 531 160 q 411 133 453 133 q 317 157 360 133 q 250 222 275 181 q 225 319 225 264 m 267 844 q 299 772 267 801 q 375 743 331 743 q 452 772 421 743 q 483 844 483 801 q 452 918 483 889 q 375 947 421 947 q 299 918 331 947 q 267 844 267 889 z "},"č":{"ha":679,"x_min":42,"x_max":628,"o":"m 225 319 q 250 415 225 374 q 317 481 275 457 q 411 506 360 506 q 489 493 450 506 q 560 458 528 481 q 610 404 593 435 l 610 589 q 523 635 576 618 q 399 653 469 653 q 216 611 297 653 q 88 494 135 569 q 42 319 42 419 q 88 145 42 221 q 216 28 135 69 q 399 -14 297 -14 q 523 3 469 -14 q 610 51 576 21 l 610 236 q 562 183 593 206 q 492 147 531 160 q 411 133 453 133 q 317 157 360 133 q 250 222 275 181 q 225 319 225 264 m 369 893 l 235 1017 l 111 931 l 369 736 l 628 931 l 504 1017 l 369 893 z "},"d":{"ha":836,"x_min":46,"x_max":751,"o":"m 571 1083 l 571 0 l 751 0 l 751 1083 l 571 1083 m 46 319 q 89 139 46 214 q 203 25 132 64 q 353 -14 274 -14 q 495 26 433 -14 q 592 142 557 67 q 628 319 628 217 q 592 498 628 424 q 495 613 557 572 q 353 653 433 653 q 203 614 274 653 q 89 501 132 575 q 46 319 46 426 m 232 319 q 256 418 232 376 q 319 482 279 460 q 406 504 360 504 q 484 483 446 504 q 547 419 522 461 q 571 319 571 378 q 547 219 571 261 q 484 156 522 178 q 406 135 446 135 q 319 157 360 135 q 256 221 279 179 q 232 319 232 263 z "},"ď":{"ha":836,"x_min":46,"x_max":1094,"o":"m 571 1083 l 571 0 l 751 0 l 751 1083 l 571 1083 m 46 319 q 89 139 46 214 q 203 25 132 64 q 353 -14 274 -14 q 495 26 433 -14 q 592 142 557 67 q 628 319 628 217 q 592 498 628 424 q 495 613 557 572 q 353 653 433 653 q 203 614 274 653 q 89 501 132 575 q 46 319 46 426 m 232 319 q 256 418 232 376 q 319 482 279 460 q 406 504 360 504 q 484 483 446 504 q 547 419 522 461 q 571 319 571 378 q 547 219 571 261 q 484 156 522 178 q 406 135 446 135 q 319 157 360 135 q 256 221 279 179 q 232 319 232 263 m 915 1083 l 793 724 l 926 692 l 1094 1039 l 915 1083 z "},"e":{"ha":771,"x_min":46,"x_max":724,"o":"m 390 -14 q 588 31 506 -14 q 721 167 671 76 l 564 215 q 494 147 536 169 q 392 124 451 124 q 301 147 339 124 q 245 215 264 171 q 226 324 226 260 q 247 435 228 390 q 301 503 265 481 q 389 526 336 526 q 464 507 432 526 q 513 454 496 488 q 531 374 531 421 q 526 349 531 364 q 515 326 521 335 l 564 390 l 149 390 l 149 279 l 721 279 q 723 301 722 288 q 724 328 724 315 q 685 503 724 431 q 572 615 646 576 q 392 653 497 653 q 208 612 286 653 q 88 497 131 571 q 46 319 46 422 q 88 144 46 218 q 208 28 131 69 q 390 -14 286 -14 z "},"è":{"ha":771,"x_min":46,"x_max":724,"o":"m 149 279 l 721 279 q 724 307 724 294 q 724 328 724 319 q 685 501 724 429 q 572 613 646 574 q 392 653 497 653 q 224 619 296 653 q 108 526 151 586 q 51 388 65 467 q 47 354 49 371 q 46 319 46 338 q 87 148 46 224 q 206 29 128 72 q 390 -14 283 -14 q 541 8 479 -14 q 646 72 603 31 q 721 167 689 113 l 564 215 q 522 167 547 188 q 465 135 497 146 q 392 124 433 124 q 307 144 344 124 q 248 208 269 164 q 226 319 226 251 l 229 356 q 250 447 229 408 q 307 506 271 486 q 389 526 343 526 q 463 510 433 526 q 508 463 492 493 q 531 390 525 432 l 149 390 l 149 279 m 174 953 l 424 744 l 525 799 l 317 1021 l 174 953 z "},"é":{"ha":771,"x_min":46,"x_max":724,"o":"m 149 279 l 721 279 q 724 307 724 294 q 724 328 724 319 q 685 501 724 429 q 572 613 646 574 q 392 653 497 653 q 224 619 296 653 q 108 526 151 586 q 51 388 65 467 q 47 354 49 371 q 46 319 46 338 q 87 148 46 224 q 206 29 128 72 q 390 -14 283 -14 q 541 8 479 -14 q 646 72 603 31 q 721 167 689 113 l 564 215 q 522 167 547 188 q 465 135 497 146 q 392 124 433 124 q 307 144 344 124 q 248 208 269 164 q 226 319 226 251 l 229 356 q 250 447 229 408 q 307 506 271 486 q 389 526 343 526 q 463 510 433 526 q 508 463 492 493 q 531 390 525 432 l 149 390 l 149 279 m 626 953 l 483 1021 l 275 799 l 376 744 l 626 953 z "},"ê":{"ha":771,"x_min":46,"x_max":724,"o":"m 149 279 l 721 279 q 724 307 724 294 q 724 328 724 319 q 685 501 724 429 q 572 613 646 574 q 392 653 497 653 q 224 619 296 653 q 108 526 151 586 q 51 388 65 467 q 47 354 49 371 q 46 319 46 338 q 87 148 46 224 q 206 29 128 72 q 390 -14 283 -14 q 541 8 479 -14 q 646 72 603 31 q 721 167 689 113 l 564 215 q 522 167 547 188 q 465 135 497 146 q 392 124 433 124 q 307 144 344 124 q 248 208 269 164 q 226 319 226 251 l 229 356 q 250 447 229 408 q 307 506 271 486 q 389 526 343 526 q 463 510 433 526 q 508 463 492 493 q 531 390 525 432 l 149 390 l 149 279 m 392 860 l 526 736 l 650 822 l 392 1017 l 135 822 l 257 736 l 392 860 z "},"ë":{"ha":771,"x_min":46,"x_max":724,"o":"m 149 279 l 721 279 q 724 307 724 294 q 724 328 724 319 q 685 501 724 429 q 572 613 646 574 q 392 653 497 653 q 224 619 296 653 q 108 526 151 586 q 51 388 65 467 q 47 354 49 371 q 46 319 46 338 q 87 148 46 224 q 206 29 128 72 q 390 -14 283 -14 q 541 8 479 -14 q 646 72 603 31 q 721 167 689 113 l 564 215 q 522 167 547 188 q 465 135 497 146 q 392 124 433 124 q 307 144 344 124 q 248 208 269 164 q 226 319 226 251 l 229 356 q 250 447 229 408 q 307 506 271 486 q 389 526 343 526 q 463 510 433 526 q 508 463 492 493 q 531 390 525 432 l 149 390 l 149 279 m 444 839 q 476 765 444 794 q 551 736 507 736 q 628 765 597 736 q 660 839 660 794 q 628 912 660 883 q 551 940 597 940 q 476 912 507 940 q 444 839 444 883 m 125 839 q 156 765 125 794 q 232 736 188 736 q 309 765 278 736 q 340 839 340 794 q 309 912 340 883 q 232 940 278 940 q 156 912 188 940 q 125 839 125 883 z "},"ē":{"ha":771,"x_min":46,"x_max":724,"o":"m 149 279 l 721 279 q 724 307 724 294 q 724 328 724 319 q 685 501 724 429 q 572 613 646 574 q 392 653 497 653 q 224 619 296 653 q 108 526 151 586 q 51 388 65 467 q 47 354 49 371 q 46 319 46 338 q 87 148 46 224 q 206 29 128 72 q 390 -14 283 -14 q 541 8 479 -14 q 646 72 603 31 q 721 167 689 113 l 564 215 q 522 167 547 188 q 465 135 497 146 q 392 124 433 124 q 307 144 344 124 q 248 208 269 164 q 226 319 226 251 l 229 356 q 250 447 229 408 q 307 506 271 486 q 389 526 343 526 q 463 510 433 526 q 508 463 492 493 q 531 390 525 432 l 149 390 l 149 279 m 139 736 l 646 736 l 646 894 l 139 894 l 139 736 z "},"ĕ":{"ha":771,"x_min":46,"x_max":724,"o":"m 149 279 l 721 279 q 724 307 724 294 q 724 328 724 319 q 685 501 724 429 q 572 613 646 574 q 392 653 497 653 q 224 619 296 653 q 108 526 151 586 q 51 388 65 467 q 47 354 49 371 q 46 319 46 338 q 87 148 46 224 q 206 29 128 72 q 390 -14 283 -14 q 541 8 479 -14 q 646 72 603 31 q 721 167 689 113 l 564 215 q 522 167 547 188 q 465 135 497 146 q 392 124 433 124 q 307 144 344 124 q 248 208 269 164 q 226 319 226 251 l 229 356 q 250 447 229 408 q 307 506 271 486 q 389 526 343 526 q 463 510 433 526 q 508 463 492 493 q 531 390 525 432 l 149 390 l 149 279 m 167 938 q 192 838 167 883 q 269 764 218 792 q 392 736 319 736 q 515 764 465 736 q 592 838 565 792 q 618 938 618 883 l 492 938 q 481 894 492 915 q 449 860 471 874 q 392 847 426 847 q 336 860 358 847 q 303 894 314 874 q 292 938 292 915 l 167 938 z "},"ė":{"ha":771,"x_min":46,"x_max":724,"o":"m 149 279 l 721 279 q 724 307 724 294 q 724 328 724 319 q 685 501 724 429 q 572 613 646 574 q 392 653 497 653 q 224 619 296 653 q 108 526 151 586 q 51 388 65 467 q 47 354 49 371 q 46 319 46 338 q 87 148 46 224 q 206 29 128 72 q 390 -14 283 -14 q 541 8 479 -14 q 646 72 603 31 q 721 167 689 113 l 564 215 q 522 167 547 188 q 465 135 497 146 q 392 124 433 124 q 307 144 344 124 q 248 208 269 164 q 226 319 226 251 l 229 356 q 250 447 229 408 q 307 506 271 486 q 389 526 343 526 q 463 510 433 526 q 508 463 492 493 q 531 390 525 432 l 149 390 l 149 279 m 285 839 q 316 765 285 794 q 392 736 347 736 q 469 765 438 736 q 500 839 500 794 q 469 912 500 883 q 392 940 438 940 q 316 912 347 940 q 285 839 285 883 z "},"ę":{"ha":771,"x_min":46,"x_max":733,"o":"m 149 279 l 721 279 q 724 307 724 294 q 724 328 724 319 q 685 501 724 429 q 572 613 646 574 q 392 653 497 653 q 224 619 296 653 q 108 526 151 586 q 51 388 65 467 q 47 354 49 371 q 46 319 46 338 q 87 148 46 224 q 206 29 128 72 q 390 -14 283 -14 q 503 1 457 -14 q 585 42 550 17 q 653 100 621 68 q 721 167 685 132 l 564 215 q 522 167 547 188 q 465 135 497 146 q 392 124 433 124 q 307 144 344 124 q 248 208 269 164 q 226 319 226 251 l 229 356 q 250 447 229 408 q 307 506 271 486 q 389 526 343 526 q 463 510 433 526 q 508 463 492 493 q 531 390 525 432 l 149 390 l 149 279 m 688 -61 q 658 -82 674 -75 q 618 -89 642 -89 q 578 -75 592 -89 q 564 -39 564 -61 q 578 7 564 -15 q 627 66 592 29 q 721 167 663 103 l 624 138 q 557 88 590 113 q 496 37 524 63 q 451 -17 468 11 q 435 -79 435 -46 q 458 -150 435 -122 q 517 -190 481 -178 q 592 -203 553 -203 q 681 -185 644 -203 q 733 -147 718 -168 l 688 -61 z "},"ě":{"ha":771,"x_min":46,"x_max":724,"o":"m 149 279 l 721 279 q 724 307 724 294 q 724 328 724 319 q 685 501 724 429 q 572 613 646 574 q 392 653 497 653 q 224 619 296 653 q 108 526 151 586 q 51 388 65 467 q 47 354 49 371 q 46 319 46 338 q 87 148 46 224 q 206 29 128 72 q 390 -14 283 -14 q 541 8 479 -14 q 646 72 603 31 q 721 167 689 113 l 564 215 q 522 167 547 188 q 465 135 497 146 q 392 124 433 124 q 307 144 344 124 q 248 208 269 164 q 226 319 226 251 l 229 356 q 250 447 229 408 q 307 506 271 486 q 389 526 343 526 q 463 510 433 526 q 508 463 492 493 q 531 390 525 432 l 149 390 l 149 279 m 392 893 l 257 1017 l 135 931 l 392 736 l 650 931 l 526 1017 l 392 893 z "},"f":{"ha":453,"x_min":35,"x_max":492,"o":"m 35 639 l 35 488 l 435 488 l 435 639 l 35 639 m 415 903 l 492 1038 q 458 1067 479 1051 q 406 1092 436 1082 q 332 1103 375 1103 q 210 1076 260 1103 q 135 999 160 1049 q 110 875 110 949 l 110 0 l 283 0 l 283 835 q 292 894 283 871 q 315 928 300 918 q 350 939 329 939 q 384 931 367 939 q 415 903 401 924 z "},"g":{"ha":831,"x_min":46,"x_max":744,"o":"m 58 -44 q 103 -192 64 -128 q 218 -292 143 -257 q 404 -328 293 -328 q 574 -292 496 -328 q 698 -181 651 -257 q 744 14 744 -104 l 744 639 l 571 639 l 571 14 q 547 -94 571 -51 q 483 -158 522 -137 q 399 -179 443 -179 q 314 -162 350 -179 q 257 -116 278 -146 q 235 -44 236 -86 l 58 -44 m 46 325 q 89 147 46 219 q 203 36 132 74 q 353 -1 274 -1 q 495 37 433 -1 q 592 149 557 75 q 628 325 628 222 q 592 502 628 429 q 495 614 557 575 q 353 653 433 653 q 203 615 274 653 q 89 505 132 578 q 46 325 46 432 m 232 325 q 256 423 232 383 q 319 483 279 463 q 406 504 360 504 q 465 492 436 504 q 519 458 494 481 q 557 403 543 436 q 571 325 571 369 q 547 227 571 267 q 484 167 522 188 q 406 147 446 147 q 319 168 360 147 q 256 228 279 189 q 232 325 232 268 z "},"ĝ":{"ha":831,"x_min":46,"x_max":744,"o":"m 58 -44 q 103 -192 64 -128 q 218 -292 143 -257 q 404 -328 293 -328 q 574 -292 496 -328 q 698 -181 651 -257 q 744 14 744 -104 l 744 639 l 571 639 l 571 14 q 547 -94 571 -51 q 483 -158 522 -137 q 399 -179 443 -179 q 314 -162 350 -179 q 257 -116 278 -146 q 235 -44 236 -86 l 58 -44 m 46 325 q 89 147 46 219 q 203 36 132 74 q 353 -1 274 -1 q 495 37 433 -1 q 592 149 557 75 q 628 325 628 222 q 592 502 628 429 q 495 614 557 575 q 353 653 433 653 q 203 615 274 653 q 89 505 132 578 q 46 325 46 432 m 232 325 q 256 423 232 383 q 319 483 279 463 q 406 504 360 504 q 465 492 436 504 q 519 458 494 481 q 557 403 543 436 q 571 325 571 369 q 547 227 571 267 q 484 167 522 188 q 406 147 446 147 q 319 168 360 147 q 256 228 279 189 q 232 325 232 268 m 419 860 l 554 736 l 676 822 l 419 1017 l 161 822 l 283 736 l 419 860 z "},"ğ":{"ha":831,"x_min":46,"x_max":744,"o":"m 58 -44 q 103 -192 64 -128 q 218 -292 143 -257 q 404 -328 293 -328 q 574 -292 496 -328 q 698 -181 651 -257 q 744 14 744 -104 l 744 639 l 571 639 l 571 14 q 547 -94 571 -51 q 483 -158 522 -137 q 399 -179 443 -179 q 314 -162 350 -179 q 257 -116 278 -146 q 235 -44 236 -86 l 58 -44 m 46 325 q 89 147 46 219 q 203 36 132 74 q 353 -1 274 -1 q 495 37 433 -1 q 592 149 557 75 q 628 325 628 222 q 592 502 628 429 q 495 614 557 575 q 353 653 433 653 q 203 615 274 653 q 89 505 132 578 q 46 325 46 432 m 232 325 q 256 423 232 383 q 319 483 279 463 q 406 504 360 504 q 465 492 436 504 q 519 458 494 481 q 557 403 543 436 q 571 325 571 369 q 547 227 571 267 q 484 167 522 188 q 406 147 446 147 q 319 168 360 147 q 256 228 279 189 q 232 325 232 268 m 193 938 q 219 838 193 883 q 296 764 244 792 q 419 736 347 736 q 543 764 493 736 q 619 838 593 792 q 644 938 644 883 l 519 938 q 508 894 519 915 q 475 860 497 874 q 419 847 453 847 q 363 860 385 847 q 330 894 340 874 q 319 938 319 915 l 193 938 z "},"ġ":{"ha":831,"x_min":46,"x_max":744,"o":"m 58 -44 q 103 -192 64 -128 q 218 -292 143 -257 q 404 -328 293 -328 q 574 -292 496 -328 q 698 -181 651 -257 q 744 14 744 -104 l 744 639 l 571 639 l 571 14 q 547 -94 571 -51 q 483 -158 522 -137 q 399 -179 443 -179 q 314 -162 350 -179 q 257 -116 278 -146 q 235 -44 236 -86 l 58 -44 m 46 325 q 89 147 46 219 q 203 36 132 74 q 353 -1 274 -1 q 495 37 433 -1 q 592 149 557 75 q 628 325 628 222 q 592 502 628 429 q 495 614 557 575 q 353 653 433 653 q 203 615 274 653 q 89 505 132 578 q 46 325 46 432 m 232 325 q 256 423 232 383 q 319 483 279 463 q 406 504 360 504 q 465 492 436 504 q 519 458 494 481 q 557 403 543 436 q 571 325 571 369 q 547 227 571 267 q 484 167 522 188 q 406 147 446 147 q 319 168 360 147 q 256 228 279 189 q 232 325 232 268 m 308 871 q 340 797 308 826 q 417 768 372 768 q 494 797 463 768 q 525 871 525 826 q 494 944 525 915 q 417 972 463 972 q 340 944 372 972 q 308 871 308 915 z "},"ģ":{"ha":792,"x_min":46,"x_max":744,"o":"m 58 -44 q 103 -192 64 -128 q 218 -292 143 -257 q 404 -328 293 -328 q 574 -292 496 -328 q 698 -181 651 -257 q 744 14 744 -104 l 744 639 l 571 639 l 571 14 q 547 -94 571 -51 q 483 -158 522 -137 q 399 -179 443 -179 q 314 -162 350 -179 q 257 -116 278 -146 q 235 -44 236 -86 l 58 -44 m 46 325 q 89 147 46 219 q 203 36 132 74 q 353 -1 274 -1 q 495 37 433 -1 q 592 149 557 75 q 628 325 628 222 q 592 502 628 429 q 495 614 557 575 q 353 653 433 653 q 203 615 274 653 q 89 505 132 578 q 46 325 46 432 m 232 325 q 256 423 232 383 q 319 483 279 463 q 406 504 360 504 q 465 492 436 504 q 519 458 494 481 q 557 403 543 436 q 571 325 571 369 q 547 227 571 267 q 484 167 522 188 q 406 147 446 147 q 319 168 360 147 q 256 228 279 189 q 232 325 232 268 m 418 754 l 594 1090 l 467 1143 l 247 825 l 418 754 z "},"h":{"ha":771,"x_min":89,"x_max":682,"o":"m 269 1083 l 89 1083 l 89 0 l 269 0 l 269 1083 m 501 389 l 501 0 l 682 0 l 682 415 q 658 549 682 494 q 586 632 635 604 q 463 660 538 660 q 336 624 388 660 q 259 526 285 588 q 233 389 233 465 l 269 389 q 285 458 269 429 q 329 503 300 488 q 396 519 358 519 q 477 486 453 519 q 501 389 501 453 z "},"ĥ":{"ha":771,"x_min":-74,"x_max":682,"o":"m 269 1083 l 89 1083 l 89 0 l 269 0 l 269 1083 m 501 389 l 501 0 l 682 0 l 682 415 q 658 549 682 494 q 586 632 635 604 q 463 660 538 660 q 334 624 388 660 q 253 526 281 588 q 225 389 225 465 l 269 389 q 285 458 269 429 q 329 503 300 488 q 396 519 358 519 q 477 486 453 519 q 501 389 501 453 m 185 1290 l 319 1167 l 443 1251 l 185 1446 l -74 1251 l 50 1167 l 185 1290 z "},"i":{"ha":376,"x_min":81,"x_max":296,"o":"m 81 886 q 113 814 81 843 q 189 785 144 785 q 265 814 233 785 q 296 886 296 843 q 265 959 296 931 q 189 988 233 988 q 113 959 144 988 q 81 886 81 931 m 100 639 l 100 0 l 275 0 l 275 639 l 100 639 z "},"ì":{"ha":376,"x_min":-54,"x_max":297,"o":"m 100 639 l 100 0 l 275 0 l 275 639 l 100 639 m -54 961 l 196 753 l 297 806 l 89 1028 l -54 961 z "},"í":{"ha":376,"x_min":71,"x_max":422,"o":"m 100 639 l 100 0 l 275 0 l 275 639 l 100 639 m 422 961 l 279 1028 l 71 806 l 172 753 l 422 961 z "},"î":{"ha":376,"x_min":-71,"x_max":446,"o":"m 100 639 l 100 0 l 275 0 l 275 639 l 100 639 m 188 868 l 322 744 l 446 831 l 188 1025 l -71 831 l 53 744 l 188 868 z "},"ï":{"ha":376,"x_min":-79,"x_max":456,"o":"m 100 639 l 100 0 l 275 0 l 275 639 l 100 639 m 240 863 q 272 790 240 819 q 349 761 304 761 q 424 790 393 761 q 456 863 456 819 q 424 935 456 907 q 349 964 393 964 q 272 935 304 964 q 240 863 240 907 m -79 863 q -47 790 -79 819 q 29 761 -15 761 q 105 790 74 761 q 136 863 136 819 q 105 935 136 907 q 29 964 74 964 q -47 935 -15 964 q -79 863 -79 907 z "},"ĩ":{"ha":376,"x_min":-71,"x_max":447,"o":"m 100 639 l 100 0 l 275 0 l 275 639 l 100 639 m -71 815 l 21 740 q 26 768 21 751 q 47 798 32 785 q 88 811 61 811 q 149 793 121 811 q 206 758 176 775 q 272 740 235 740 q 349 758 314 740 q 410 801 385 775 q 447 853 436 828 l 360 943 q 317 890 339 910 q 272 871 296 871 q 224 882 243 871 q 186 906 204 893 q 145 931 168 919 q 88 942 122 942 q 15 924 49 942 q -42 878 -19 906 q -71 815 -64 850 z "},"ī":{"ha":376,"x_min":-65,"x_max":442,"o":"m 100 639 l 100 0 l 275 0 l 275 639 l 100 639 m -65 736 l 442 736 l 442 894 l -65 894 l -65 736 z "},"ĭ":{"ha":376,"x_min":-37,"x_max":413,"o":"m 100 639 l 100 0 l 275 0 l 275 639 l 100 639 m -37 938 q -12 838 -37 883 q 65 764 14 792 q 188 736 115 736 q 311 764 261 736 q 387 838 361 792 q 413 938 413 883 l 288 938 q 276 894 288 915 q 243 860 265 874 q 188 847 221 847 q 132 860 154 847 q 99 894 110 874 q 88 938 88 915 l -37 938 z "},"į":{"ha":376,"x_min":6,"x_max":304,"o":"m 81 886 q 113 814 81 843 q 189 785 144 785 q 265 814 233 785 q 296 886 296 843 q 265 959 296 931 q 189 988 233 988 q 113 959 144 988 q 81 886 81 931 m 100 639 l 100 0 l 275 0 l 275 639 l 100 639 m 258 -162 q 228 -183 244 -176 q 189 -190 213 -190 q 149 -176 163 -190 q 135 -133 135 -162 q 149 -86 135 -110 q 189 -40 163 -62 q 251 0 215 -18 l 194 35 q 103 -20 146 10 q 33 -86 60 -50 q 6 -167 6 -122 q 26 -242 6 -210 q 84 -290 47 -274 q 171 -306 121 -306 q 256 -288 224 -306 q 304 -250 289 -271 l 258 -162 z "},"j":{"ha":368,"x_min":-117,"x_max":285,"o":"m 69 886 q 101 814 69 843 q 178 785 133 785 q 253 814 222 785 q 285 886 285 843 q 253 959 285 931 q 178 988 222 988 q 101 959 133 988 q 69 886 69 931 m -39 -124 l -117 -258 q -78 -289 -100 -274 q -27 -314 -57 -304 q 43 -324 3 -324 q 167 -295 117 -324 q 242 -215 217 -267 q 267 -96 267 -164 l 267 639 l 93 639 l 93 -54 q 86 -113 93 -90 q 64 -147 79 -136 q 26 -158 49 -158 q -10 -149 6 -158 q -39 -124 -26 -139 z "},"ĵ":{"ha":368,"x_min":-117,"x_max":438,"o":"m -39 -124 l -117 -258 q -82 -287 -103 -272 q -29 -312 -61 -301 q 43 -324 3 -324 q 167 -297 117 -324 q 242 -218 217 -269 q 267 -96 267 -167 l 267 639 l 93 639 l 93 -54 q 85 -114 93 -92 q 63 -147 78 -136 q 26 -158 47 -158 q -8 -151 8 -158 q -39 -124 -25 -143 m 179 860 l 315 736 l 438 822 l 179 1017 l -78 822 l 44 736 l 179 860 z "},"k":{"ha":742,"x_min":85,"x_max":736,"o":"m 85 1083 l 85 0 l 258 0 l 258 1083 l 85 1083 m 493 639 l 218 375 l 522 0 l 736 0 l 433 375 l 708 639 l 493 639 z "},"ķ":{"ha":742,"x_min":85,"x_max":736,"o":"m 85 1083 l 85 0 l 258 0 l 258 1083 l 85 1083 m 493 639 l 218 375 l 522 0 l 736 0 l 433 375 l 708 639 l 493 639 m 358 -83 l 236 -443 l 369 -475 l 538 -128 l 358 -83 z "},"l":{"ha":358,"x_min":89,"x_max":269,"o":"m 89 1083 l 89 0 l 269 0 l 269 1083 l 89 1083 z "},"ĺ":{"ha":358,"x_min":39,"x_max":390,"o":"m 89 1083 l 89 0 l 269 0 l 269 1083 l 89 1083 m 390 1375 l 247 1443 l 39 1221 l 140 1167 l 390 1375 z "},"ļ":{"ha":358,"x_min":28,"x_max":331,"o":"m 89 1083 l 89 0 l 269 0 l 269 1083 l 89 1083 m 150 -83 l 28 -443 l 163 -475 l 331 -128 l 150 -83 z "},"ľ":{"ha":358,"x_min":89,"x_max":640,"o":"m 89 1083 l 89 0 l 269 0 l 269 1083 l 89 1083 m 461 1083 l 339 724 l 472 692 l 640 1039 l 461 1083 z "},"m":{"ha":1122,"x_min":89,"x_max":1033,"o":"m 1033 408 q 1012 541 1033 486 q 946 624 990 596 q 831 653 901 653 q 715 625 765 653 q 629 543 664 597 q 563 625 608 597 q 446 653 517 653 q 336 625 382 653 q 263 544 290 597 l 263 639 l 89 639 l 89 0 l 263 0 l 263 389 q 276 460 263 431 q 315 505 290 490 q 374 519 340 519 q 446 487 424 519 q 468 389 468 454 l 468 0 l 647 0 l 647 389 q 661 460 647 431 q 700 505 675 490 q 758 519 725 519 q 831 487 808 519 q 853 389 853 454 l 853 0 l 1033 0 l 1033 408 z "},"n":{"ha":776,"x_min":89,"x_max":688,"o":"m 501 389 l 501 0 l 688 0 l 688 408 q 632 588 688 524 q 463 653 576 653 q 347 624 394 653 q 269 542 299 596 l 269 639 l 89 639 l 89 0 l 269 0 l 269 389 q 285 458 269 429 q 329 503 300 488 q 396 519 358 519 q 476 486 451 519 q 501 389 501 453 z "},"ñ":{"ha":776,"x_min":89,"x_max":688,"o":"m 269 639 l 89 639 l 89 0 l 269 0 l 269 639 m 501 389 l 501 0 l 688 0 l 688 408 q 631 590 688 528 q 463 653 575 653 q 334 617 388 653 q 253 520 281 581 q 225 383 225 460 l 269 389 q 285 458 269 429 q 329 503 300 488 q 396 519 358 519 q 477 486 453 519 q 501 389 501 453 m 131 815 l 221 740 q 226 768 221 751 q 247 798 232 785 q 288 811 261 811 q 349 793 322 811 q 406 758 376 775 q 474 740 436 740 q 550 758 514 740 q 612 801 586 775 q 649 853 638 828 l 560 943 q 518 890 539 910 q 474 871 497 871 q 424 882 444 871 q 387 906 404 893 q 346 931 369 919 q 289 942 322 942 q 216 924 250 942 q 160 878 182 906 q 131 815 138 850 z "},"ń":{"ha":776,"x_min":89,"x_max":688,"o":"m 269 639 l 89 639 l 89 0 l 269 0 l 269 639 m 501 389 l 501 0 l 688 0 l 688 408 q 631 590 688 528 q 463 653 575 653 q 336 617 388 653 q 259 520 285 581 q 233 383 233 460 l 269 389 q 285 458 269 429 q 329 503 300 488 q 396 519 358 519 q 477 486 453 519 q 501 389 501 453 m 606 944 l 464 1013 l 256 790 l 356 736 l 606 944 z "},"ņ":{"ha":776,"x_min":89,"x_max":688,"o":"m 269 639 l 89 639 l 89 0 l 269 0 l 269 639 m 501 389 l 501 0 l 688 0 l 688 408 q 631 590 688 528 q 463 653 575 653 q 334 617 388 653 q 253 520 281 581 q 225 383 225 460 l 269 389 q 285 458 269 429 q 329 503 300 488 q 396 519 358 519 q 477 486 453 519 q 501 389 501 453 m 360 -83 l 238 -443 l 371 -475 l 539 -128 l 360 -83 z "},"ň":{"ha":776,"x_min":89,"x_max":688,"o":"m 269 639 l 89 639 l 89 0 l 269 0 l 269 639 m 501 389 l 501 0 l 688 0 l 688 408 q 631 590 688 528 q 463 653 575 653 q 334 617 388 653 q 253 520 281 581 q 225 383 225 460 l 269 389 q 285 458 269 429 q 329 503 300 488 q 396 519 358 519 q 477 486 453 519 q 501 389 501 453 m 388 893 l 253 1017 l 129 931 l 388 736 l 646 931 l 522 1017 l 388 893 z "},"o":{"ha":800,"x_min":46,"x_max":754,"o":"m 46 319 q 92 145 46 221 q 219 28 139 69 q 400 -14 299 -14 q 581 28 501 -14 q 708 145 661 69 q 754 319 754 221 q 708 494 754 419 q 581 611 661 569 q 400 653 501 653 q 219 611 299 653 q 92 494 139 569 q 46 319 46 419 m 229 319 q 252 415 229 374 q 314 479 275 457 q 400 501 353 501 q 486 479 447 501 q 548 415 525 457 q 571 319 571 374 q 548 224 571 265 q 486 160 525 183 q 400 138 447 138 q 314 160 353 138 q 252 224 275 183 q 229 319 229 265 z "},"ò":{"ha":800,"x_min":46,"x_max":754,"o":"m 46 319 q 92 145 46 221 q 219 28 139 69 q 400 -14 299 -14 q 581 28 501 -14 q 708 145 661 69 q 754 319 754 221 q 708 494 754 419 q 581 611 661 569 q 400 653 501 653 q 219 611 299 653 q 92 494 139 569 q 46 319 46 419 m 229 319 q 252 415 229 374 q 314 479 275 457 q 400 501 353 501 q 486 479 447 501 q 548 415 525 457 q 571 319 571 374 q 548 224 571 265 q 486 160 525 183 q 400 138 447 138 q 314 160 353 138 q 252 224 275 183 q 229 319 229 265 m 178 961 l 428 753 l 529 806 l 321 1028 l 178 961 z "},"ó":{"ha":800,"x_min":46,"x_max":754,"o":"m 46 319 q 92 145 46 221 q 219 28 139 69 q 400 -14 299 -14 q 581 28 501 -14 q 708 145 661 69 q 754 319 754 221 q 708 494 754 419 q 581 611 661 569 q 400 653 501 653 q 219 611 299 653 q 92 494 139 569 q 46 319 46 419 m 229 319 q 252 415 229 374 q 314 479 275 457 q 400 501 353 501 q 486 479 447 501 q 548 415 525 457 q 571 319 571 374 q 548 224 571 265 q 486 160 525 183 q 400 138 447 138 q 314 160 353 138 q 252 224 275 183 q 229 319 229 265 m 622 961 l 479 1028 l 271 806 l 372 753 l 622 961 z "},"ô":{"ha":800,"x_min":46,"x_max":754,"o":"m 46 319 q 92 145 46 221 q 219 28 139 69 q 400 -14 299 -14 q 581 28 501 -14 q 708 145 661 69 q 754 319 754 221 q 708 494 754 419 q 581 611 661 569 q 400 653 501 653 q 219 611 299 653 q 92 494 139 569 q 46 319 46 419 m 229 319 q 252 415 229 374 q 314 479 275 457 q 400 501 353 501 q 486 479 447 501 q 548 415 525 457 q 571 319 571 374 q 548 224 571 265 q 486 160 525 183 q 400 138 447 138 q 314 160 353 138 q 252 224 275 183 q 229 319 229 265 m 400 875 l 535 753 l 658 838 l 400 1032 l 142 838 l 265 753 l 400 875 z "},"õ":{"ha":800,"x_min":46,"x_max":754,"o":"m 46 319 q 92 145 46 221 q 219 28 139 69 q 400 -14 299 -14 q 581 28 501 -14 q 708 145 661 69 q 754 319 754 221 q 708 494 754 419 q 581 611 661 569 q 400 653 501 653 q 219 611 299 653 q 92 494 139 569 q 46 319 46 419 m 229 319 q 252 415 229 374 q 314 479 275 457 q 400 501 353 501 q 486 479 447 501 q 548 415 525 457 q 571 319 571 374 q 548 224 571 265 q 486 160 525 183 q 400 138 447 138 q 314 160 353 138 q 252 224 275 183 q 229 319 229 265 m 142 815 l 232 740 q 238 768 232 751 q 258 798 243 785 q 299 811 272 811 q 360 793 333 811 q 417 758 388 775 q 485 740 447 740 q 560 758 525 740 q 622 801 596 775 q 658 853 647 828 l 571 943 q 529 890 550 910 q 485 871 508 871 q 435 882 456 871 q 398 906 415 893 q 358 931 381 919 q 300 942 335 942 q 227 924 261 942 q 171 878 193 906 q 142 815 149 850 z "},"ö":{"ha":800,"x_min":46,"x_max":754,"o":"m 46 319 q 92 145 46 221 q 219 28 139 69 q 400 -14 299 -14 q 581 28 501 -14 q 708 145 661 69 q 754 319 754 221 q 708 494 754 419 q 581 611 661 569 q 400 653 501 653 q 219 611 299 653 q 92 494 139 569 q 46 319 46 419 m 229 319 q 252 415 229 374 q 314 479 275 457 q 400 501 353 501 q 486 479 447 501 q 548 415 525 457 q 571 319 571 374 q 548 224 571 265 q 486 160 525 183 q 400 138 447 138 q 314 160 353 138 q 252 224 275 183 q 229 319 229 265 m 451 863 q 483 790 451 819 q 560 761 515 761 q 636 790 604 761 q 668 863 668 819 q 636 935 668 907 q 560 964 604 964 q 483 935 515 964 q 451 863 451 907 m 132 863 q 164 790 132 819 q 240 761 196 761 q 317 790 285 761 q 349 863 349 819 q 317 935 349 907 q 240 964 285 964 q 164 935 196 964 q 132 863 132 907 z "},"ō":{"ha":800,"x_min":46,"x_max":754,"o":"m 46 319 q 92 145 46 221 q 219 28 139 69 q 400 -14 299 -14 q 581 28 501 -14 q 708 145 661 69 q 754 319 754 221 q 708 494 754 419 q 581 611 661 569 q 400 653 501 653 q 219 611 299 653 q 92 494 139 569 q 46 319 46 419 m 229 319 q 252 415 229 374 q 314 479 275 457 q 400 501 353 501 q 486 479 447 501 q 548 415 525 457 q 571 319 571 374 q 548 224 571 265 q 486 160 525 183 q 400 138 447 138 q 314 160 353 138 q 252 224 275 183 q 229 319 229 265 m 147 736 l 653 736 l 653 894 l 147 894 l 147 736 z "},"ŏ":{"ha":800,"x_min":46,"x_max":754,"o":"m 46 319 q 92 145 46 221 q 219 28 139 69 q 400 -14 299 -14 q 581 28 501 -14 q 708 145 661 69 q 754 319 754 221 q 708 494 754 419 q 581 611 661 569 q 400 653 501 653 q 219 611 299 653 q 92 494 139 569 q 46 319 46 419 m 229 319 q 252 415 229 374 q 314 479 275 457 q 400 501 353 501 q 486 479 447 501 q 548 415 525 457 q 571 319 571 374 q 548 224 571 265 q 486 160 525 183 q 400 138 447 138 q 314 160 353 138 q 252 224 275 183 q 229 319 229 265 m 175 938 q 201 838 175 883 q 277 764 226 792 q 400 736 328 736 q 524 764 474 736 q 599 838 574 792 q 625 938 625 883 l 500 938 q 489 894 500 915 q 456 860 478 874 q 400 847 433 847 q 344 860 367 847 q 311 894 322 874 q 300 938 300 915 l 175 938 z "},"ő":{"ha":800,"x_min":46,"x_max":754,"o":"m 275 736 l 471 994 l 318 1031 l 164 768 l 275 736 m 524 736 l 722 994 l 567 1031 l 414 768 l 524 736 m 46 319 q 92 145 46 221 q 219 28 139 69 q 400 -14 299 -14 q 581 28 501 -14 q 708 145 661 69 q 754 319 754 221 q 708 494 754 419 q 581 611 661 569 q 400 653 501 653 q 219 611 299 653 q 92 494 139 569 q 46 319 46 419 m 229 319 q 252 415 229 374 q 314 479 275 457 q 400 501 353 501 q 486 479 447 501 q 548 415 525 457 q 571 319 571 374 q 548 224 571 265 q 486 160 525 183 q 400 138 447 138 q 314 160 353 138 q 252 224 275 183 q 229 319 229 265 z "},"p":{"ha":836,"x_min":85,"x_max":790,"o":"m 265 -306 l 265 639 l 85 639 l 85 -306 l 265 -306 m 790 319 q 747 505 790 429 q 634 619 704 581 q 483 658 564 658 q 341 617 401 658 q 248 499 281 575 q 215 319 215 424 q 248 140 215 217 q 341 22 281 64 q 483 -19 401 -19 q 634 19 564 -19 q 747 135 704 58 q 790 319 790 211 m 604 319 q 581 222 604 263 q 517 161 557 182 q 431 140 478 140 q 352 160 390 140 q 290 221 314 181 q 265 319 265 261 q 290 418 265 378 q 352 478 314 458 q 431 499 390 499 q 517 478 478 499 q 581 417 557 457 q 604 319 604 376 z "},"q":{"ha":836,"x_min":46,"x_max":751,"o":"m 571 -306 l 751 -306 l 751 639 l 571 639 l 571 -306 m 46 319 q 89 135 46 211 q 203 19 132 58 q 353 -19 274 -19 q 497 22 438 -19 q 589 140 557 64 q 621 319 621 217 q 589 499 621 424 q 497 617 557 575 q 353 658 438 658 q 203 619 274 658 q 89 505 132 581 q 46 319 46 429 m 232 319 q 256 417 232 376 q 319 478 279 457 q 406 499 360 499 q 484 478 446 499 q 547 418 522 458 q 571 319 571 378 q 547 221 571 261 q 484 160 522 181 q 406 140 446 140 q 319 161 360 140 q 256 222 279 182 q 232 319 232 263 z "},"r":{"ha":542,"x_min":89,"x_max":535,"o":"m 265 639 l 89 639 l 89 0 l 265 0 l 265 639 m 453 451 l 535 604 q 484 642 515 629 q 418 654 453 654 q 321 619 368 654 q 244 524 274 583 q 215 389 215 465 l 265 339 q 277 417 265 385 q 313 468 289 450 q 369 486 336 486 q 416 477 397 486 q 453 451 435 468 z "},"ŕ":{"ha":542,"x_min":89,"x_max":535,"o":"m 265 639 l 89 639 l 89 0 l 265 0 l 265 639 m 453 451 l 535 604 q 484 642 515 629 q 418 654 453 654 q 321 619 368 654 q 244 524 274 583 q 215 389 215 465 l 265 339 q 277 417 265 385 q 313 468 289 450 q 369 486 336 486 q 416 477 397 486 q 453 451 435 468 m 522 946 l 381 1013 l 172 790 l 272 738 l 522 946 z "},"ŗ":{"ha":542,"x_min":26,"x_max":535,"o":"m 265 639 l 89 639 l 89 0 l 265 0 l 265 639 m 453 451 l 535 604 q 484 642 515 629 q 418 654 453 654 q 321 619 368 654 q 244 524 274 583 q 215 389 215 465 l 265 339 q 277 417 265 385 q 313 468 289 450 q 369 486 336 486 q 416 477 397 486 q 453 451 435 468 m 149 -83 l 26 -443 l 161 -475 l 328 -128 l 149 -83 z "},"ř":{"ha":542,"x_min":54,"x_max":569,"o":"m 265 639 l 89 639 l 89 0 l 265 0 l 265 639 m 453 451 l 535 604 q 484 642 515 629 q 418 654 453 654 q 321 619 368 654 q 244 524 274 583 q 215 389 215 465 l 265 339 q 277 417 265 385 q 313 468 289 450 q 369 486 336 486 q 416 477 397 486 q 453 451 435 468 m 311 894 l 176 1017 l 54 932 l 311 738 l 569 932 l 447 1017 l 311 894 z "},"ȓ":{"ha":542,"x_min":88,"x_max":538,"o":"m 265 639 l 89 639 l 89 0 l 265 0 l 265 639 m 453 451 l 535 604 q 484 642 515 629 q 418 654 453 654 q 321 619 368 654 q 244 524 274 583 q 215 389 215 465 l 265 339 q 277 417 265 385 q 313 468 289 450 q 369 486 336 486 q 416 477 397 486 q 453 451 435 468 m 88 738 q 113 837 88 792 q 190 910 139 882 q 313 938 240 938 q 436 910 386 938 q 512 837 486 882 q 538 738 538 792 l 413 738 q 401 780 413 760 q 368 813 390 800 q 313 826 346 826 q 257 813 279 826 q 224 780 235 800 q 213 738 213 760 l 88 738 z "},"s":{"ha":610,"x_min":33,"x_max":575,"o":"m 121 221 l 33 108 q 115 44 69 74 q 216 -4 160 14 q 340 -22 272 -22 q 513 31 450 -22 q 575 181 575 85 q 549 275 575 239 q 478 335 522 311 q 383 379 435 360 q 309 410 342 397 q 259 438 276 422 q 242 475 242 454 q 259 510 242 499 q 307 522 276 522 q 401 499 353 522 q 483 438 449 475 l 563 549 q 492 602 532 579 q 404 639 451 625 q 303 653 357 653 q 187 633 239 653 q 104 573 135 613 q 74 476 74 533 q 101 378 74 417 q 169 317 128 340 q 256 278 211 294 q 333 249 303 263 q 380 217 364 235 q 396 175 396 200 q 376 131 396 147 q 321 115 357 115 q 262 126 293 115 q 196 160 231 138 q 121 221 161 183 z "},"ś":{"ha":610,"x_min":29,"x_max":575,"o":"m 118 236 l 29 125 q 106 49 60 82 q 210 -3 151 15 q 332 -22 268 -22 q 510 26 444 -22 q 575 181 575 74 q 550 269 575 233 q 485 330 525 306 q 399 372 444 354 q 322 401 360 388 q 260 429 285 414 q 236 465 236 444 q 257 503 236 492 q 313 514 278 514 q 370 504 339 514 q 432 478 401 494 q 483 438 463 461 l 563 549 q 495 602 536 579 q 406 639 454 625 q 303 653 357 653 q 185 633 239 653 q 97 572 131 613 q 63 472 63 532 q 88 383 63 418 q 151 324 113 347 q 232 282 190 300 q 307 251 269 265 q 369 220 344 238 q 394 175 394 203 q 373 133 394 146 q 315 121 351 121 q 256 133 289 121 q 189 171 224 146 q 118 236 154 196 m 553 944 l 410 1013 l 201 790 l 303 736 l 553 944 z "},"ŝ":{"ha":610,"x_min":29,"x_max":575,"o":"m 118 236 l 29 125 q 106 49 60 82 q 210 -3 151 15 q 332 -22 268 -22 q 510 26 444 -22 q 575 181 575 74 q 550 269 575 233 q 485 330 525 306 q 399 372 444 354 q 322 401 360 388 q 260 429 285 414 q 236 465 236 444 q 257 503 236 492 q 313 514 278 514 q 370 504 339 514 q 432 478 401 494 q 483 438 463 461 l 563 549 q 495 602 536 579 q 406 639 454 625 q 303 653 357 653 q 185 633 239 653 q 97 572 131 613 q 63 472 63 532 q 88 383 63 418 q 151 324 113 347 q 232 282 190 300 q 307 251 269 265 q 369 220 344 238 q 394 175 394 203 q 373 133 394 146 q 315 121 351 121 q 256 133 289 121 q 189 171 224 146 q 118 236 154 196 m 315 860 l 450 736 l 572 822 l 315 1017 l 57 822 l 179 736 l 315 860 z "},"ş":{"ha":610,"x_min":29,"x_max":575,"o":"m 117 239 l 29 126 q 115 49 67 83 q 219 -3 163 15 q 340 -22 276 -22 q 510 26 446 -22 q 575 182 575 74 q 550 275 575 239 q 485 335 525 311 q 399 376 444 358 q 324 403 360 392 q 265 431 288 415 q 242 472 242 446 q 263 510 242 499 q 319 522 283 522 q 405 498 358 522 q 483 438 451 474 l 563 550 q 450 624 517 593 q 303 654 383 654 q 188 634 239 654 q 105 574 136 614 q 74 474 74 533 q 101 376 74 413 q 169 317 128 339 q 256 279 211 296 q 323 253 292 267 q 374 221 354 239 q 394 176 394 203 q 373 133 394 147 q 319 118 351 118 q 266 130 297 118 q 197 168 235 142 q 117 239 160 194 m 311 88 l 192 -171 q 254 -152 224 -156 q 294 -149 285 -149 q 351 -158 328 -149 q 374 -194 374 -168 q 355 -233 374 -219 q 300 -246 336 -246 q 251 -237 278 -246 q 201 -211 225 -229 l 144 -294 q 227 -335 188 -324 q 319 -347 267 -347 q 401 -331 361 -347 q 466 -283 440 -315 q 492 -203 492 -250 q 473 -133 492 -161 q 426 -92 454 -106 q 372 -78 399 -78 q 352 -78 361 -78 q 333 -81 343 -79 l 444 83 l 311 88 z "},"š":{"ha":610,"x_min":29,"x_max":575,"o":"m 118 236 l 29 125 q 106 49 60 82 q 210 -3 151 15 q 332 -22 268 -22 q 510 26 444 -22 q 575 181 575 74 q 550 269 575 233 q 485 330 525 306 q 399 372 444 354 q 322 401 360 388 q 260 429 285 414 q 236 465 236 444 q 257 503 236 492 q 313 514 278 514 q 370 504 339 514 q 432 478 401 494 q 483 438 463 461 l 563 549 q 495 602 536 579 q 406 639 454 625 q 303 653 357 653 q 185 633 239 653 q 97 572 131 613 q 63 472 63 532 q 88 383 63 418 q 151 324 113 347 q 232 282 190 300 q 307 251 269 265 q 369 220 344 238 q 394 175 394 203 q 373 133 394 146 q 315 121 351 121 q 256 133 289 121 q 189 171 224 146 q 118 236 154 196 m 303 882 l 168 1004 l 44 919 l 303 725 l 561 919 l 438 1004 l 303 882 z "},"ș":{"ha":610,"x_min":29,"x_max":575,"o":"m 118 236 l 29 125 q 106 49 60 82 q 210 -3 151 15 q 332 -22 268 -22 q 510 26 444 -22 q 575 181 575 74 q 550 269 575 233 q 485 330 525 306 q 399 372 444 354 q 322 401 360 388 q 260 429 285 414 q 236 465 236 444 q 257 503 236 492 q 313 514 278 514 q 370 504 339 514 q 432 478 401 494 q 483 438 463 461 l 563 549 q 495 602 536 579 q 406 639 454 625 q 303 653 357 653 q 185 633 239 653 q 97 572 131 613 q 63 472 63 532 q 88 383 63 418 q 151 324 113 347 q 232 282 190 300 q 307 251 269 265 q 369 220 344 238 q 394 175 394 203 q 373 133 394 146 q 315 121 351 121 q 256 133 289 121 q 189 171 224 146 q 118 236 154 196 m 281 -94 l 158 -454 l 292 -486 l 460 -139 l 281 -94 z "},"t":{"ha":408,"x_min":7,"x_max":401,"o":"m 7 639 l 7 488 l 401 488 l 401 639 l 7 639 m 117 861 l 117 0 l 290 0 l 290 861 l 117 861 z "},"ţ":{"ha":408,"x_min":-29,"x_max":401,"o":"m 138 15 l 18 -244 q 81 -225 50 -229 q 121 -221 111 -221 q 177 -231 154 -221 q 200 -267 200 -240 q 181 -305 200 -292 q 126 -318 163 -318 q 78 -310 104 -318 q 28 -283 51 -301 l -31 -367 q 53 -409 13 -397 q 146 -421 93 -421 q 227 -404 188 -421 q 292 -355 267 -387 q 318 -275 318 -322 q 299 -206 318 -233 q 252 -164 279 -178 q 199 -150 225 -150 q 178 -151 188 -150 q 160 -154 168 -151 l 269 11 l 138 15 m 7 639 l 7 488 l 401 488 l 401 639 l 7 639 m 117 861 l 117 0 l 290 0 l 290 861 l 117 861 z "},"ť":{"ha":614,"x_min":7,"x_max":671,"o":"m 7 639 l 7 488 l 401 488 l 401 639 l 7 639 m 117 861 l 117 0 l 290 0 l 290 861 l 117 861 m 492 1103 l 369 743 l 503 711 l 671 1058 l 492 1103 z "},"ț":{"ha":408,"x_min":7,"x_max":401,"o":"m 7 639 l 7 488 l 401 488 l 401 639 l 7 639 m 117 861 l 117 0 l 290 0 l 290 861 l 117 861 m 175 -83 l 53 -443 l 188 -475 l 354 -128 l 175 -83 z "},"u":{"ha":776,"x_min":89,"x_max":688,"o":"m 275 250 l 275 639 l 89 639 l 89 231 q 145 51 89 117 q 315 -14 201 -14 q 431 15 383 -14 q 508 97 478 43 l 508 0 l 688 0 l 688 639 l 508 639 l 508 250 q 492 181 508 210 q 448 135 476 151 q 381 119 419 119 q 300 153 325 119 q 275 250 275 188 z "},"ù":{"ha":776,"x_min":89,"x_max":688,"o":"m 508 0 l 688 0 l 688 639 l 508 639 l 508 0 m 275 250 l 275 639 l 89 639 l 89 231 q 146 49 89 111 q 315 -14 203 -14 q 443 22 390 -14 q 524 119 496 58 q 551 256 551 181 l 508 250 q 492 181 508 210 q 448 135 476 151 q 381 119 419 119 q 300 153 325 119 q 275 250 275 186 m 197 961 l 447 753 l 549 806 l 340 1028 l 197 961 z "},"ú":{"ha":776,"x_min":89,"x_max":688,"o":"m 508 0 l 688 0 l 688 639 l 508 639 l 508 0 m 275 250 l 275 639 l 89 639 l 89 231 q 146 49 89 111 q 315 -14 203 -14 q 443 22 390 -14 q 524 119 496 58 q 551 256 551 181 l 508 250 q 492 181 508 210 q 448 135 476 151 q 381 119 419 119 q 300 153 325 119 q 275 250 275 186 m 578 961 l 436 1028 l 228 806 l 328 753 l 578 961 z "},"û":{"ha":776,"x_min":89,"x_max":688,"o":"m 508 0 l 688 0 l 688 639 l 508 639 l 508 0 m 275 250 l 275 639 l 89 639 l 89 231 q 146 49 89 111 q 315 -14 203 -14 q 443 22 390 -14 q 524 119 496 58 q 551 256 551 181 l 508 250 q 492 181 508 210 q 448 135 476 151 q 381 119 419 119 q 300 153 325 119 q 275 250 275 186 m 388 875 l 522 753 l 646 838 l 388 1032 l 129 838 l 253 753 l 388 875 z "},"ü":{"ha":776,"x_min":89,"x_max":688,"o":"m 508 0 l 688 0 l 688 639 l 508 639 l 508 0 m 275 250 l 275 639 l 89 639 l 89 231 q 146 49 89 111 q 315 -14 203 -14 q 443 22 390 -14 q 524 119 496 58 q 551 256 551 181 l 508 250 q 492 181 508 210 q 448 135 476 151 q 381 119 419 119 q 300 153 325 119 q 275 250 275 186 m 440 854 q 472 782 440 811 q 549 753 504 753 q 625 782 593 753 q 657 854 657 811 q 625 928 657 899 q 549 957 593 957 q 472 928 504 957 q 440 854 440 899 m 121 854 q 153 782 121 811 q 229 753 185 753 q 306 782 274 753 q 338 854 338 811 q 306 928 338 899 q 229 957 274 957 q 153 928 185 957 q 121 854 121 899 z "},"ũ":{"ha":776,"x_min":89,"x_max":688,"o":"m 508 0 l 688 0 l 688 639 l 508 639 l 508 0 m 275 250 l 275 639 l 89 639 l 89 231 q 146 49 89 111 q 315 -14 203 -14 q 441 22 390 -14 q 518 119 492 58 q 544 256 544 181 l 508 250 q 492 181 508 210 q 448 135 476 151 q 381 119 419 119 q 300 153 325 119 q 275 250 275 186 m 131 815 l 222 740 q 227 768 222 751 q 247 798 232 785 q 288 811 261 811 q 349 793 322 811 q 406 758 376 775 q 474 740 436 740 q 551 758 515 740 q 612 801 586 775 q 649 853 638 828 l 560 943 q 518 890 539 910 q 474 871 497 871 q 425 882 444 871 q 388 906 406 893 q 347 931 369 919 q 289 942 324 942 q 216 924 250 942 q 160 878 182 906 q 131 815 138 850 z "},"ū":{"ha":776,"x_min":89,"x_max":688,"o":"m 508 0 l 688 0 l 688 639 l 508 639 l 508 0 m 275 250 l 275 639 l 89 639 l 89 231 q 146 49 89 111 q 315 -14 203 -14 q 441 22 390 -14 q 518 119 492 58 q 544 256 544 181 l 508 250 q 492 181 508 210 q 448 135 476 151 q 381 119 419 119 q 300 153 325 119 q 275 250 275 186 m 135 736 l 642 736 l 642 894 l 135 894 l 135 736 z "},"ŭ":{"ha":776,"x_min":89,"x_max":688,"o":"m 508 0 l 688 0 l 688 639 l 508 639 l 508 0 m 275 250 l 275 639 l 89 639 l 89 231 q 146 49 89 111 q 315 -14 203 -14 q 441 22 390 -14 q 518 119 492 58 q 544 256 544 181 l 508 250 q 492 181 508 210 q 448 135 476 151 q 381 119 419 119 q 300 153 325 119 q 275 250 275 186 m 164 938 q 190 838 164 883 q 266 764 215 792 q 389 736 317 736 q 513 764 463 736 q 588 838 563 792 q 614 938 614 883 l 489 938 q 478 894 489 915 q 444 860 467 874 q 389 847 422 847 q 333 860 356 847 q 300 894 311 874 q 289 938 289 915 l 164 938 z "},"ů":{"ha":776,"x_min":89,"x_max":688,"o":"m 508 0 l 688 0 l 688 639 l 508 639 l 508 0 m 275 250 l 275 639 l 89 639 l 89 231 q 146 49 89 111 q 315 -14 203 -14 q 441 22 390 -14 q 518 119 492 58 q 544 256 544 181 l 508 250 q 492 181 508 210 q 448 135 476 151 q 381 119 419 119 q 300 153 325 119 q 275 250 275 186 m 225 890 q 274 779 225 822 q 389 736 322 736 q 504 779 456 736 q 553 890 553 822 q 504 1002 553 960 q 389 1044 456 1044 q 274 1002 322 1044 q 225 890 225 960 m 322 890 q 342 941 322 922 q 389 960 363 960 q 435 941 415 960 q 456 890 456 922 q 435 840 456 858 q 389 822 415 822 q 342 840 363 822 q 322 890 322 858 z "},"ű":{"ha":776,"x_min":89,"x_max":711,"o":"m 265 736 l 461 994 l 308 1031 l 154 768 l 265 736 m 514 736 l 713 994 l 557 1031 l 404 768 l 514 736 m 275 250 l 275 639 l 89 639 l 89 231 q 145 51 89 117 q 315 -14 201 -14 q 431 15 383 -14 q 508 97 478 43 l 508 0 l 688 0 l 688 639 l 508 639 l 508 250 q 492 181 508 210 q 448 135 476 151 q 381 119 419 119 q 300 153 325 119 q 275 250 275 188 z "},"ų":{"ha":776,"x_min":89,"x_max":731,"o":"m 685 -162 q 655 -183 671 -176 q 615 -190 639 -190 q 575 -176 589 -190 q 561 -133 561 -162 q 575 -86 561 -110 q 615 -40 589 -62 q 678 0 642 -18 l 621 35 q 529 -20 572 10 q 459 -86 486 -50 q 432 -167 432 -122 q 453 -242 432 -210 q 510 -290 474 -274 q 596 -306 547 -306 q 683 -288 650 -306 q 731 -250 715 -271 l 685 -162 m 275 250 l 275 639 l 89 639 l 89 231 q 145 51 89 117 q 315 -14 201 -14 q 431 15 383 -14 q 508 97 478 43 l 508 0 l 688 0 l 688 639 l 508 639 l 508 250 q 492 181 508 210 q 448 135 476 151 q 381 119 419 119 q 300 153 325 119 q 275 250 275 188 z "},"v":{"ha":694,"x_min":-3,"x_max":697,"o":"m -3 639 l 347 -67 l 697 639 l 504 639 l 347 254 l 190 639 l -3 639 z "},"w":{"ha":1022,"x_min":-6,"x_max":1026,"o":"m -6 639 l 308 -43 l 508 364 l 714 -43 l 1026 639 l 836 639 l 694 283 l 507 688 l 326 285 l 186 639 l -6 639 z "},"ŵ":{"ha":1022,"x_min":-6,"x_max":1026,"o":"m -6 639 l 308 -43 l 508 364 l 714 -43 l 1026 639 l 836 639 l 694 283 l 507 688 l 326 285 l 186 639 l -6 639 m 507 894 l 642 771 l 765 856 l 507 1050 l 249 856 l 372 771 l 507 894 z "},"ẁ":{"ha":1022,"x_min":-6,"x_max":1026,"o":"m 507 771 l 608 824 l 400 1046 l 257 979 l 507 771 m -6 639 l 308 -43 l 508 364 l 714 -43 l 1026 639 l 836 639 l 694 283 l 507 688 l 326 285 l 186 639 l -6 639 z "},"ẃ":{"ha":1022,"x_min":-6,"x_max":1026,"o":"m 507 771 l 757 979 l 614 1046 l 406 824 l 507 771 m -6 639 l 308 -43 l 508 364 l 714 -43 l 1026 639 l 836 639 l 694 283 l 507 688 l 326 285 l 186 639 l -6 639 z "},"ẅ":{"ha":1022,"x_min":-6,"x_max":1026,"o":"m 558 874 q 590 800 558 829 q 667 771 622 771 q 744 800 713 771 q 775 874 775 829 q 744 947 775 918 q 667 975 713 975 q 590 947 622 975 q 558 874 558 918 m 239 874 q 271 800 239 829 q 347 771 303 771 q 424 800 393 771 q 456 874 456 829 q 424 947 456 918 q 347 975 393 975 q 271 947 303 975 q 239 874 239 918 m -6 639 l 308 -43 l 508 364 l 714 -43 l 1026 639 l 836 639 l 694 283 l 507 688 l 326 285 l 186 639 l -6 639 z "},"ẇ":{"ha":1022,"x_min":-6,"x_max":1026,"o":"m 399 874 q 431 800 399 829 q 507 771 463 771 q 583 800 551 771 q 615 874 615 829 q 583 947 615 918 q 507 975 551 975 q 431 947 463 975 q 399 874 399 918 m -6 639 l 308 -43 l 508 364 l 714 -43 l 1026 639 l 836 639 l 694 283 l 507 688 l 326 285 l 186 639 l -6 639 z "},"ẉ":{"ha":1022,"x_min":-6,"x_max":1026,"o":"m 403 -228 q 435 -301 403 -272 q 511 -331 467 -331 q 588 -301 556 -331 q 619 -228 619 -272 q 588 -155 619 -183 q 511 -126 556 -126 q 435 -155 467 -126 q 403 -228 403 -183 m -6 639 l 308 -43 l 508 364 l 714 -43 l 1026 639 l 836 639 l 694 283 l 507 688 l 326 285 l 186 639 l -6 639 z "},"x":{"ha":690,"x_min":0,"x_max":690,"o":"m 478 639 l 347 454 l 219 639 l 14 639 l 253 329 l 0 0 l 206 0 l 347 203 l 492 0 l 690 0 l 440 329 l 676 639 l 478 639 z "},"y":{"ha":689,"x_min":-8,"x_max":697,"o":"m 697 639 l 510 639 l 308 133 l 397 131 l 192 639 l -8 639 l 257 64 l 96 -306 l 281 -306 l 697 639 z "},"ý":{"ha":689,"x_min":-8,"x_max":697,"o":"m 697 639 l 510 639 l 308 133 l 397 131 l 192 639 l -8 639 l 257 64 l 96 -306 l 281 -306 l 697 639 m 554 961 l 411 1028 l 203 806 l 304 753 l 554 961 z "},"ÿ":{"ha":689,"x_min":-8,"x_max":697,"o":"m 697 639 l 510 639 l 308 133 l 397 131 l 192 639 l -8 639 l 257 64 l 96 -306 l 281 -306 l 697 639 m 396 839 q 428 765 396 794 q 504 736 460 736 q 581 765 549 736 q 613 839 613 794 q 581 912 613 883 q 504 940 549 940 q 428 912 460 940 q 396 839 396 883 m 76 839 q 108 765 76 794 q 185 736 140 736 q 261 765 229 736 q 293 839 293 794 q 261 912 293 883 q 185 940 229 940 q 108 912 140 940 q 76 839 76 883 z "},"ŷ":{"ha":689,"x_min":-8,"x_max":697,"o":"m 697 639 l 510 639 l 308 133 l 397 131 l 192 639 l -8 639 l 257 64 l 96 -306 l 281 -306 l 697 639 m 344 860 l 479 736 l 603 822 l 344 1017 l 86 822 l 210 736 l 344 860 z "},"ỳ":{"ha":689,"x_min":-8,"x_max":697,"o":"m 344 738 l 446 790 l 238 1013 l 94 946 l 344 738 m 697 639 l 510 639 l 308 133 l 397 131 l 192 639 l -8 639 l 257 64 l 96 -306 l 281 -306 l 697 639 z "},"z":{"ha":699,"x_min":21,"x_max":678,"o":"m 375 475 l 21 0 l 638 0 l 638 164 l 335 164 l 678 639 l 75 639 l 75 475 l 375 475 z "},"ź":{"ha":699,"x_min":21,"x_max":678,"o":"m 375 475 l 21 0 l 638 0 l 638 164 l 335 164 l 678 639 l 75 639 l 75 475 l 375 475 m 610 961 l 467 1028 l 258 806 l 360 753 l 610 961 z "},"ż":{"ha":699,"x_min":21,"x_max":678,"o":"m 375 475 l 21 0 l 638 0 l 638 164 l 335 164 l 678 639 l 75 639 l 75 475 l 375 475 m 268 863 q 300 790 268 819 q 376 761 332 761 q 452 790 421 761 q 483 863 483 819 q 452 935 483 907 q 376 964 421 964 q 300 935 332 964 q 268 863 268 907 z "},"ž":{"ha":693,"x_min":21,"x_max":678,"o":"m 376 893 l 242 1015 l 118 931 l 376 736 l 633 931 l 511 1015 l 376 893 m 376 475 l 21 0 l 638 0 l 638 164 l 333 164 l 678 639 l 75 639 l 75 475 l 376 475 z "},"ß":{"ha":821,"x_min":75,"x_max":808,"o":"m 504 -17 q 619 5 565 -17 q 717 65 674 26 q 784 154 760 103 q 808 264 808 206 q 793 349 808 314 q 753 408 778 383 q 701 451 729 433 q 649 485 674 469 q 609 517 625 500 q 593 557 593 535 q 606 608 593 585 q 640 653 619 631 q 679 705 660 676 q 712 771 699 733 q 725 863 725 808 q 684 997 725 943 q 573 1078 643 1051 q 415 1106 503 1106 q 232 1068 308 1106 q 115 960 156 1031 q 75 792 75 890 l 75 -3 l 256 -3 l 254 781 q 273 875 254 839 q 325 928 292 911 q 404 944 358 944 q 473 933 443 944 q 520 897 503 921 q 538 832 538 872 q 524 763 538 793 q 491 706 511 732 q 451 656 471 681 q 417 603 431 631 q 404 543 404 576 q 419 484 404 510 q 460 439 435 458 q 513 401 485 419 q 565 364 540 383 q 606 319 590 344 q 622 258 622 293 q 606 194 622 222 q 562 150 590 167 q 496 133 533 133 q 447 140 472 133 q 399 160 422 147 q 357 188 376 172 l 307 51 q 362 16 331 32 q 429 -8 393 0 q 504 -17 465 -17 z "},"æ":{"ha":1214,"x_min":36,"x_max":1165,"o":"m 297 -14 q 482 28 410 -14 q 574 146 554 71 l 558 146 q 663 25 596 64 q 832 -14 729 -14 q 1029 31 947 -14 q 1164 167 1111 76 l 1006 215 q 935 147 981 171 q 835 124 890 124 q 747 144 783 124 q 691 206 711 165 q 669 306 671 247 l 640 279 l 1163 279 q 1165 300 1164 286 q 1165 328 1165 314 q 1128 501 1165 428 q 1023 613 1092 574 q 860 653 954 653 q 743 635 797 653 q 647 583 689 617 q 576 499 606 549 l 593 499 q 527 617 583 578 q 371 656 471 656 q 234 637 303 656 q 94 581 165 618 l 160 457 q 222 488 188 474 q 292 508 256 501 q 360 515 329 515 q 449 485 418 515 q 479 400 479 456 l 479 314 l 565 314 q 426 374 482 357 q 311 390 371 390 q 167 363 229 390 q 71 288 106 336 q 36 176 36 240 q 106 38 36 89 q 297 -14 175 -14 m 322 111 q 242 131 268 111 q 217 190 217 150 q 249 262 217 238 q 346 286 282 286 q 429 276 389 286 q 504 244 469 265 l 479 282 l 486 178 l 488 261 q 439 149 479 186 q 322 111 399 111 m 669 329 q 689 435 669 392 q 744 503 708 479 q 831 526 779 526 q 908 508 875 526 q 958 453 940 489 q 975 369 975 418 q 975 358 975 363 q 972 347 975 354 l 1004 390 l 640 390 l 669 329 z "},"ð":{"ha":849,"x_min":69,"x_max":779,"o":"m 421 -19 q 606 26 525 -19 q 733 152 688 72 q 779 335 779 232 q 762 457 779 393 q 710 588 744 521 q 622 728 675 656 q 497 878 568 800 q 336 1040 425 957 l 207 944 q 332 838 275 892 q 438 729 389 785 q 526 616 486 674 q 597 497 567 558 l 658 496 q 361 650 522 650 q 210 610 275 650 q 107 499 144 569 q 69 335 69 428 q 115 151 69 231 q 240 26 160 71 q 421 -19 319 -19 m 424 139 q 335 163 374 139 q 274 226 296 186 q 253 319 253 267 q 275 413 253 372 q 336 478 297 454 q 424 501 375 501 q 512 478 474 501 q 572 413 550 454 q 594 319 594 372 q 573 226 594 267 q 513 163 551 186 q 424 139 474 139 m 229 703 l 683 856 l 660 929 l 206 775 l 229 703 z "},"ø":{"ha":758,"x_min":46,"x_max":754,"o":"m 46 319 q 93 143 46 218 q 220 27 140 68 q 400 -14 300 -14 q 580 27 500 -14 q 707 143 660 68 q 754 319 754 218 q 707 497 754 422 q 580 612 660 571 q 400 653 500 653 q 220 612 300 653 q 93 497 140 571 q 46 319 46 422 m 218 319 q 242 417 218 374 q 308 483 267 460 q 400 507 350 507 q 492 483 450 507 q 558 417 533 460 q 582 319 582 374 q 558 219 582 261 q 492 155 533 178 q 400 132 450 132 q 308 155 350 132 q 242 219 267 178 q 218 319 218 261 m 626 700 l 85 -28 l 158 -67 l 700 661 l 626 700 z "},"þ":{"ha":836,"x_min":85,"x_max":790,"o":"m 265 -306 l 265 1083 l 85 1083 l 85 -306 l 265 -306 m 790 319 q 747 501 790 426 q 634 614 704 575 q 483 653 564 653 q 342 613 404 653 q 244 498 281 572 q 208 319 208 424 q 244 142 208 217 q 342 26 281 67 q 483 -14 404 -14 q 634 25 564 -14 q 747 139 704 64 q 790 319 790 214 m 604 319 q 581 221 604 263 q 517 157 557 179 q 431 135 478 135 q 352 156 390 135 q 290 219 314 178 q 265 319 265 261 q 290 419 265 378 q 352 483 314 461 q 431 504 390 504 q 517 482 478 504 q 581 418 557 460 q 604 319 604 376 z "},"đ":{"ha":836,"x_min":46,"x_max":881,"o":"m 410 796 l 881 796 l 881 924 l 410 924 l 410 796 m 571 1083 l 571 0 l 751 0 l 751 1083 l 571 1083 m 46 319 q 89 139 46 214 q 203 25 132 64 q 353 -14 274 -14 q 495 26 433 -14 q 592 142 557 67 q 628 319 628 217 q 592 498 628 424 q 495 613 557 572 q 353 653 433 653 q 203 614 274 653 q 89 501 132 575 q 46 319 46 426 m 232 319 q 256 418 232 376 q 319 482 279 460 q 406 504 360 504 q 465 492 436 504 q 519 456 494 479 q 557 398 543 432 q 571 319 571 364 q 557 241 571 275 q 519 183 543 207 q 465 147 494 160 q 406 135 436 135 q 319 157 360 135 q 256 221 279 179 q 232 319 232 263 z "},"ħ":{"ha":771,"x_min":7,"x_max":682,"o":"m 269 1083 l 89 1083 l 89 0 l 269 0 l 269 1083 m 501 389 l 501 0 l 682 0 l 682 415 q 658 549 682 494 q 586 632 635 604 q 463 660 538 660 q 336 624 388 660 q 259 526 285 588 q 233 389 233 465 l 269 389 q 285 458 269 429 q 329 503 300 488 q 396 519 358 519 q 477 486 453 519 q 501 389 501 453 m 7 842 l 458 842 l 458 999 l 7 999 l 7 842 z "},"ı":{"ha":376,"x_min":100,"x_max":275,"o":"m 100 639 l 100 0 l 275 0 l 275 639 l 100 639 z "},"ĳ":{"ha":742,"x_min":81,"x_max":661,"o":"m 446 886 q 478 814 446 843 q 553 785 510 785 q 630 814 599 785 q 661 886 661 843 q 630 959 661 931 q 553 988 599 988 q 478 959 510 988 q 446 886 446 931 m 333 -124 l 257 -258 q 292 -287 271 -272 q 344 -312 313 -301 q 417 -324 375 -324 q 540 -297 490 -324 q 615 -218 589 -269 q 640 -96 640 -167 l 640 639 l 467 639 l 467 -54 q 459 -114 467 -92 q 436 -147 451 -136 q 400 -158 421 -158 q 365 -151 382 -158 q 333 -124 349 -143 m 81 886 q 113 814 81 843 q 189 785 144 785 q 265 814 233 785 q 296 886 296 843 q 265 959 296 931 q 189 988 233 988 q 113 959 144 988 q 81 886 81 931 m 100 639 l 100 0 l 275 0 l 275 639 l 100 639 z "},"ĸ":{"ha":742,"x_min":85,"x_max":736,"o":"m 85 639 l 85 0 l 258 0 l 258 639 l 85 639 m 493 639 l 218 375 l 522 0 l 736 0 l 433 375 l 708 639 l 493 639 z "},"ŀ":{"ha":615,"x_min":89,"x_max":563,"o":"m 89 1083 l 89 0 l 269 0 l 269 1083 l 89 1083 m 335 571 q 367 492 335 525 q 449 458 400 458 q 531 492 499 458 q 563 571 563 525 q 531 649 563 617 q 449 682 499 682 q 367 649 400 682 q 335 571 335 617 z "},"ł":{"ha":358,"x_min":-50,"x_max":419,"o":"m -6 443 l 419 717 l 374 811 l -50 536 l -6 443 m 89 1083 l 89 0 l 269 0 l 269 1083 l 89 1083 z "},"ŉ":{"ha":989,"x_min":85,"x_max":900,"o":"m 481 639 l 301 639 l 301 0 l 481 0 l 481 639 m 714 389 l 714 0 l 900 0 l 900 408 q 843 590 900 528 q 675 653 786 653 q 547 617 600 653 q 465 520 493 581 q 438 383 438 460 l 481 389 q 497 458 481 429 q 541 503 513 488 q 608 519 569 519 q 690 486 665 519 q 714 389 714 453 m 163 972 l 85 629 l 213 629 l 354 972 l 163 972 z "},"ŋ":{"ha":776,"x_min":89,"x_max":688,"o":"m 453 -324 q 626 -265 565 -324 q 688 -96 688 -206 l 688 408 q 631 592 688 531 q 463 653 574 653 q 349 624 399 653 q 269 543 300 596 l 269 639 l 89 639 l 89 0 l 269 0 l 269 386 q 285 458 269 428 q 328 503 300 488 q 396 519 357 519 q 476 488 450 519 q 501 389 501 456 l 501 -54 q 485 -133 501 -107 q 435 -158 468 -158 q 369 -124 396 -158 l 293 -258 q 366 -307 326 -290 q 453 -324 406 -324 z "},"œ":{"ha":1250,"x_min":49,"x_max":1201,"o":"m 1013 347 l 1013 319 l 1199 279 q 1201 302 1200 288 q 1201 325 1201 317 q 1161 499 1201 426 q 1056 613 1121 572 q 914 653 990 653 q 766 619 832 653 q 658 526 700 586 q 603 388 617 467 q 599 354 600 371 q 597 319 597 338 q 635 148 597 224 q 741 29 674 72 q 894 -14 808 -14 q 1022 10 964 -14 q 1126 74 1081 33 q 1199 167 1171 115 l 1043 217 q 974 147 1014 174 q 872 119 933 119 q 785 142 822 119 q 728 210 749 165 q 708 319 708 254 l 711 361 q 733 452 711 415 q 790 508 754 489 q 871 526 826 526 q 949 504 918 526 q 997 442 981 482 q 1013 347 1013 401 m 668 279 l 1199 279 l 1172 389 l 668 389 l 668 279 m 49 319 q 92 142 49 217 q 207 26 135 67 q 365 -14 279 -14 q 516 26 453 -14 q 613 142 579 67 q 647 319 647 217 q 613 498 647 424 q 516 613 579 572 q 365 653 453 653 q 207 613 279 653 q 92 498 135 572 q 49 319 49 424 m 226 319 q 249 419 226 378 q 311 481 272 460 q 397 501 350 501 q 475 481 440 501 q 531 419 510 460 q 551 319 551 378 q 531 220 551 261 q 475 158 510 179 q 397 138 440 138 q 311 158 350 138 q 249 220 272 179 q 226 319 226 261 z "},"ŧ":{"ha":333,"x_min":7,"x_max":401,"o":"m 28 258 l 318 258 l 318 415 l 28 415 l 28 258 m 7 639 l 7 488 l 401 488 l 401 639 l 7 639 m 117 861 l 117 0 l 290 0 l 290 861 l 117 861 z "},"ȷ":{"ha":368,"x_min":-117,"x_max":267,"o":"m -39 -124 l -117 -258 q -82 -287 -103 -272 q -29 -312 -61 -301 q 43 -324 3 -324 q 167 -297 117 -324 q 242 -218 217 -269 q 267 -96 267 -167 l 267 639 l 93 639 l 93 -54 q 85 -114 93 -92 q 63 -147 78 -136 q 26 -158 47 -158 q -8 -151 8 -158 q -39 -124 -25 -143 z "},"μ":{"ha":772,"x_min":89,"x_max":688,"o":"m 275 639 l 89 639 l 89 -444 l 263 -444 l 263 18 q 312 -3 289 3 q 360 -8 335 -8 q 445 15 407 -8 q 508 78 483 39 l 508 0 l 688 0 l 688 639 l 508 639 l 508 274 q 492 204 508 233 q 448 159 476 175 q 381 143 419 143 q 300 176 325 143 q 275 274 275 210 l 275 639 z "},"π":{"ha":810,"x_min":42,"x_max":754,"o":"m 125 597 l 125 0 l 296 0 l 296 597 l 125 597 m 42 639 l 42 488 l 754 488 l 754 639 l 42 639 m 472 597 l 472 168 q 501 49 472 88 q 583 -1 529 10 q 717 -12 638 -12 l 717 135 q 679 140 696 135 q 653 165 663 144 q 643 232 643 186 l 643 597 l 472 597 z "},"а":{"ha":731,"x_min":36,"x_max":653,"o":"m 217 190 q 231 240 217 219 q 275 274 246 261 q 346 286 304 286 q 444 272 403 286 q 525 229 486 258 l 525 317 q 482 349 513 332 q 407 378 451 365 q 311 390 363 390 q 166 365 228 390 q 70 294 104 340 q 36 182 36 247 q 66 74 36 118 q 147 8 96 31 q 264 -14 199 -14 q 384 9 331 -14 q 469 76 438 32 q 501 181 501 119 l 479 256 q 458 171 479 203 q 401 125 438 139 q 322 111 365 111 q 269 120 293 111 q 231 147 244 129 q 217 190 217 164 m 160 457 q 205 481 175 467 q 274 505 235 494 q 360 515 314 515 q 446 491 413 515 q 479 424 479 467 l 479 0 l 653 0 l 653 453 q 617 563 653 518 q 517 632 581 608 q 371 656 454 656 q 214 631 285 656 q 94 581 143 607 l 160 457 z "},"б":{"ha":818,"x_min":49,"x_max":769,"o":"m 415 501 q 501 479 463 501 q 563 415 540 457 q 585 319 585 374 q 563 224 585 265 q 501 160 540 183 q 415 138 463 138 q 328 160 367 138 q 266 224 289 183 q 243 319 243 265 l 49 403 q 97 172 49 265 q 227 33 144 79 q 415 -14 310 -14 q 601 29 521 -14 q 725 148 681 72 q 769 319 769 224 q 725 492 769 417 q 604 610 681 567 q 426 653 528 653 l 415 501 m 164 319 l 243 319 q 258 397 243 364 q 299 454 274 431 q 354 490 324 478 q 415 501 385 501 l 426 653 q 319 630 367 653 q 235 564 271 607 q 182 459 200 521 q 164 319 164 397 m 49 403 l 229 324 l 206 472 q 224 606 206 542 q 291 721 243 669 q 424 803 339 772 q 560 872 500 831 q 658 968 621 914 q 703 1083 696 1022 l 529 1083 q 470 994 519 1033 q 326 917 421 954 q 156 804 217 875 q 72 633 96 733 q 49 403 49 533 z "},"в":{"ha":697,"x_min":104,"x_max":656,"o":"m 208 333 l 208 263 l 393 263 q 435 258 418 263 q 463 242 453 253 q 479 220 474 232 q 485 193 485 208 q 463 143 485 165 q 393 121 442 121 l 208 121 l 208 0 l 450 0 q 608 51 560 0 q 656 174 656 101 q 625 271 656 236 q 542 319 594 306 q 422 333 489 333 l 208 333 m 208 306 l 408 306 q 517 323 468 306 q 597 376 567 340 q 628 465 628 411 q 597 566 628 528 q 517 622 567 604 q 408 639 468 639 l 208 639 l 208 518 l 379 518 q 436 499 415 518 q 457 451 457 479 q 451 425 457 438 q 436 403 446 413 q 412 388 426 393 q 379 383 397 383 l 208 383 l 208 306 m 104 639 l 104 0 l 278 0 l 278 639 l 104 639 z "},"г":{"ha":485,"x_min":93,"x_max":481,"o":"m 93 639 l 93 0 l 269 0 l 269 488 l 481 488 l 481 639 l 93 639 z "},"ѓ":{"ha":485,"x_min":93,"x_max":538,"o":"m 93 639 l 93 0 l 269 0 l 269 488 l 481 488 l 481 639 l 93 639 m 538 944 l 394 1013 l 186 790 l 288 736 l 538 944 z "},"д":{"ha":957,"x_min":56,"x_max":894,"o":"m 475 406 l 639 42 l 818 71 l 475 688 l 133 71 l 311 42 l 475 406 m 724 0 l 724 -125 l 894 -125 l 894 146 l 56 146 l 56 -125 l 233 -125 l 233 0 l 724 0 z "},"е":{"ha":774,"x_min":46,"x_max":724,"o":"m 149 279 l 721 279 q 724 307 724 294 q 724 328 724 319 q 685 501 724 429 q 572 613 646 574 q 392 653 497 653 q 224 619 296 653 q 108 526 151 586 q 51 388 65 467 q 47 354 49 371 q 46 319 46 338 q 87 148 46 224 q 206 29 128 72 q 390 -14 283 -14 q 541 8 479 -14 q 646 72 603 31 q 721 167 689 113 l 564 215 q 522 167 547 188 q 465 135 497 146 q 392 124 433 124 q 307 144 344 124 q 248 208 269 164 q 226 319 226 251 l 229 356 q 250 447 229 408 q 307 506 271 486 q 389 526 343 526 q 463 510 433 526 q 508 463 492 493 q 531 390 525 432 l 149 390 l 149 279 z "},"ѐ":{"ha":774,"x_min":46,"x_max":724,"o":"m 149 279 l 721 279 q 724 307 724 294 q 724 328 724 319 q 685 501 724 429 q 572 613 646 574 q 392 653 497 653 q 224 619 296 653 q 108 526 151 586 q 51 388 65 467 q 47 354 49 371 q 46 319 46 338 q 87 148 46 224 q 206 29 128 72 q 390 -14 283 -14 q 541 8 479 -14 q 646 72 603 31 q 721 167 689 113 l 564 215 q 522 167 547 188 q 465 135 497 146 q 392 124 433 124 q 307 144 344 124 q 248 208 269 164 q 226 319 226 251 l 229 356 q 250 447 229 408 q 307 506 271 486 q 389 526 343 526 q 463 510 433 526 q 508 463 492 493 q 531 390 525 432 l 149 390 l 149 279 m 165 944 l 415 736 l 517 790 l 308 1013 l 165 944 z "},"ё":{"ha":774,"x_min":46,"x_max":724,"o":"m 149 279 l 721 279 q 724 307 724 294 q 724 328 724 319 q 685 501 724 429 q 572 613 646 574 q 392 653 497 653 q 224 619 296 653 q 108 526 151 586 q 51 388 65 467 q 47 354 49 371 q 46 319 46 338 q 87 148 46 224 q 206 29 128 72 q 390 -14 283 -14 q 541 8 479 -14 q 646 72 603 31 q 721 167 689 113 l 564 215 q 522 167 547 188 q 465 135 497 146 q 392 124 433 124 q 307 144 344 124 q 248 208 269 164 q 226 319 226 251 l 229 356 q 250 447 229 408 q 307 506 271 486 q 389 526 343 526 q 463 510 433 526 q 508 463 492 493 q 531 390 525 432 l 149 390 l 149 279 m 444 839 q 476 765 444 794 q 551 736 507 736 q 628 765 597 736 q 660 839 660 794 q 628 912 660 883 q 551 940 597 940 q 476 912 507 940 q 444 839 444 883 m 125 839 q 156 765 125 794 q 232 736 188 736 q 309 765 278 736 q 340 839 340 794 q 309 912 340 883 q 232 940 278 940 q 156 912 188 940 q 125 839 125 883 z "},"ж":{"ha":1133,"x_min":0,"x_max":1133,"o":"m 896 639 l 618 375 l 924 0 l 1133 0 l 826 367 l 1106 639 l 896 639 m 651 639 l 482 639 l 482 0 l 651 0 l 651 639 m 238 639 l 28 639 l 307 367 l 0 0 l 210 0 l 515 375 l 238 639 z "},"з":{"ha":717,"x_min":83,"x_max":654,"o":"m 364 319 q 560 359 494 315 q 626 472 626 403 q 594 565 626 524 q 505 629 561 606 q 376 653 449 653 q 240 625 299 653 q 149 548 182 597 q 117 435 117 499 l 283 435 q 294 476 283 457 q 326 506 306 494 q 378 517 347 517 q 436 499 414 517 q 458 451 458 482 q 436 404 458 424 q 364 385 414 385 l 364 319 m 374 -14 q 517 10 453 -14 q 617 80 581 35 q 654 188 654 125 q 577 319 654 274 q 364 361 500 365 l 364 285 q 430 275 403 285 q 471 247 457 265 q 485 201 485 228 q 471 158 485 176 q 432 129 457 139 q 372 119 407 119 q 294 145 322 119 q 256 214 265 171 l 83 214 q 169 49 94 111 q 374 -14 244 -14 z "},"и":{"ha":801,"x_min":93,"x_max":708,"o":"m 701 481 l 708 688 l 100 158 l 93 -49 l 701 481 m 267 639 l 93 639 l 93 -49 l 267 133 l 267 639 m 708 688 l 535 506 l 535 0 l 708 0 l 708 688 z "},"й":{"ha":801,"x_min":93,"x_max":708,"o":"m 701 481 l 708 688 l 100 158 l 93 -49 l 701 481 m 267 639 l 93 639 l 93 -49 l 267 133 l 267 639 m 708 688 l 535 506 l 535 0 l 708 0 l 708 688 m 183 965 q 209 866 183 913 q 285 792 235 819 q 408 765 336 765 q 532 792 482 765 q 608 866 582 819 q 635 965 635 913 l 508 965 q 498 923 508 943 q 465 890 488 903 q 408 876 443 876 q 353 890 375 876 q 319 923 331 903 q 308 965 308 943 l 183 965 z "},"ѝ":{"ha":801,"x_min":93,"x_max":708,"o":"m 701 481 l 708 688 l 100 158 l 93 -49 l 701 481 m 267 639 l 93 639 l 93 -49 l 267 133 l 267 639 m 708 688 l 535 506 l 535 0 l 708 0 l 708 688 m 175 979 l 425 771 l 526 825 l 318 1047 l 175 979 z "},"к":{"ha":742,"x_min":85,"x_max":736,"o":"m 85 639 l 85 0 l 258 0 l 258 639 l 85 639 m 493 639 l 218 375 l 522 0 l 736 0 l 433 375 l 708 639 l 493 639 z "},"ќ":{"ha":611,"x_min":85,"x_max":736,"o":"m 85 639 l 85 0 l 258 0 l 258 639 l 85 639 m 493 639 l 218 375 l 522 0 l 736 0 l 433 375 l 708 639 l 493 639 m 647 944 l 504 1013 l 296 790 l 397 736 l 647 944 z "},"л":{"ha":838,"x_min":14,"x_max":726,"o":"m 726 639 l 115 639 l 115 258 q 85 180 115 199 q 14 161 56 161 l 14 0 q 176 24 115 0 q 263 98 236 49 q 289 222 289 147 l 289 475 l 553 475 l 553 0 l 726 0 l 726 639 z "},"м":{"ha":890,"x_min":7,"x_max":883,"o":"m 699 0 l 883 0 l 699 688 l 607 460 l 699 0 m 401 156 l 443 -43 l 713 424 l 699 688 l 401 156 m 443 -43 l 485 156 l 192 688 l 178 424 l 443 -43 m 7 0 l 192 0 l 283 460 l 192 688 l 7 0 z "},"н":{"ha":832,"x_min":89,"x_max":743,"o":"m 154 267 l 657 267 l 657 407 l 154 407 l 154 267 m 569 639 l 569 0 l 743 0 l 743 639 l 569 639 m 89 639 l 89 0 l 263 0 l 263 639 l 89 639 z "},"о":{"ha":800,"x_min":46,"x_max":754,"o":"m 46 319 q 92 145 46 221 q 219 28 139 69 q 400 -14 299 -14 q 581 28 501 -14 q 708 145 661 69 q 754 319 754 221 q 708 494 754 419 q 581 611 661 569 q 400 653 501 653 q 219 611 299 653 q 92 494 139 569 q 46 319 46 419 m 229 319 q 252 415 229 374 q 314 479 275 457 q 400 501 353 501 q 486 479 447 501 q 548 415 525 457 q 571 319 571 374 q 548 224 571 265 q 486 160 525 183 q 400 138 447 138 q 314 160 353 138 q 252 224 275 183 q 229 319 229 265 z "},"п":{"ha":776,"x_min":89,"x_max":688,"o":"m 688 639 l 89 639 l 89 0 l 263 0 l 263 481 l 514 481 l 514 0 l 688 0 l 688 639 z "},"р":{"ha":836,"x_min":85,"x_max":790,"o":"m 265 -306 l 265 639 l 85 639 l 85 -306 l 265 -306 m 790 319 q 747 505 790 429 q 634 619 704 581 q 483 658 564 658 q 341 617 401 658 q 248 499 281 575 q 215 319 215 424 q 248 140 215 217 q 341 22 281 64 q 483 -19 401 -19 q 634 19 564 -19 q 747 135 704 58 q 790 319 790 211 m 604 319 q 581 222 604 263 q 517 161 557 182 q 431 140 478 140 q 352 160 390 140 q 290 221 314 181 q 265 319 265 261 q 290 418 265 378 q 352 478 314 458 q 431 499 390 499 q 517 478 478 499 q 581 417 557 457 q 604 319 604 376 z "},"с":{"ha":679,"x_min":42,"x_max":610,"o":"m 225 319 q 250 415 225 374 q 317 481 275 457 q 411 506 360 506 q 489 493 450 506 q 560 458 528 481 q 610 404 593 435 l 610 589 q 523 635 576 618 q 399 653 469 653 q 216 611 297 653 q 88 494 135 569 q 42 319 42 419 q 88 145 42 221 q 216 28 135 69 q 399 -14 297 -14 q 523 3 469 -14 q 610 51 576 21 l 610 236 q 562 183 593 206 q 492 147 531 160 q 411 133 453 133 q 317 157 360 133 q 250 222 275 181 q 225 319 225 264 z "},"т":{"ha":439,"x_min":7,"x_max":432,"o":"m 7 639 l 7 488 l 432 488 l 432 639 l 7 639 m 133 611 l 133 0 l 307 0 l 307 611 l 133 611 z "},"у":{"ha":689,"x_min":-8,"x_max":697,"o":"m 697 639 l 510 639 l 308 133 l 397 131 l 192 639 l -8 639 l 257 64 l 96 -306 l 281 -306 l 697 639 z "},"ў":{"ha":611,"x_min":-8,"x_max":697,"o":"m 697 639 l 510 639 l 308 133 l 397 131 l 192 639 l -8 639 l 257 64 l 96 -306 l 281 -306 l 697 639 m 119 938 q 145 838 119 883 q 222 764 171 792 q 344 736 272 736 q 468 764 418 736 q 544 838 518 792 q 569 938 569 883 l 444 938 q 433 894 444 915 q 400 860 422 874 q 344 847 378 847 q 289 860 311 847 q 256 894 267 874 q 244 938 244 915 l 119 938 z "},"ф":{"ha":892,"x_min":46,"x_max":846,"o":"m 360 778 l 360 -139 l 531 -139 l 531 778 l 360 778 m 46 319 q 94 145 46 221 q 232 28 142 69 q 446 -14 322 -14 q 660 28 569 -14 q 798 145 750 69 q 846 319 846 221 q 798 494 846 419 q 660 611 750 569 q 446 653 569 653 q 232 611 322 653 q 94 494 142 569 q 46 319 46 419 m 211 319 q 237 415 211 374 q 315 479 263 457 q 446 501 367 501 q 576 479 525 501 q 653 415 628 457 q 679 319 679 374 q 653 224 679 265 q 576 160 628 183 q 446 138 525 138 q 315 160 367 138 q 237 224 263 183 q 211 319 211 265 z "},"х":{"ha":690,"x_min":0,"x_max":690,"o":"m 478 639 l 347 454 l 219 639 l 14 639 l 253 329 l 0 0 l 206 0 l 347 203 l 492 0 l 690 0 l 440 329 l 676 639 l 478 639 z "},"ц":{"ha":839,"x_min":89,"x_max":804,"o":"m 693 151 l 693 639 l 514 639 l 514 151 l 269 151 l 269 639 l 89 639 l 89 0 l 639 0 l 639 -137 l 804 -137 l 804 151 l 693 151 z "},"ч":{"ha":733,"x_min":69,"x_max":638,"o":"m 319 171 l 538 171 l 538 322 l 361 322 l 319 171 m 458 639 l 458 0 l 638 0 l 638 639 l 458 639 m 249 639 l 69 639 l 69 456 q 92 299 69 363 q 169 203 114 235 q 319 171 224 171 l 361 322 q 296 335 321 322 q 260 374 271 347 q 249 443 249 400 l 249 639 z "},"ш":{"ha":1138,"x_min":89,"x_max":1049,"o":"m 656 151 l 656 639 l 482 639 l 482 151 l 263 151 l 263 639 l 89 639 l 89 0 l 1049 0 l 1049 639 l 875 639 l 875 151 l 656 151 z "},"щ":{"ha":1193,"x_min":89,"x_max":1158,"o":"m 656 151 l 656 639 l 482 639 l 482 151 l 263 151 l 263 639 l 89 639 l 89 0 l 993 0 l 993 -137 l 1158 -137 l 1158 151 l 1047 151 l 1047 639 l 874 639 l 874 151 l 656 151 z "},"ъ":{"ha":836,"x_min":7,"x_max":769,"o":"m 338 292 l 510 292 q 576 272 553 292 q 599 217 599 251 q 588 176 599 193 q 558 151 578 160 q 510 142 539 142 l 338 142 l 338 0 l 536 0 q 656 25 603 0 q 739 99 708 50 q 769 217 769 149 q 702 367 769 319 q 536 415 635 415 l 338 415 l 338 292 m 213 488 l 213 0 l 381 0 l 381 639 l 7 639 l 7 488 l 213 488 z "},"ы":{"ha":1008,"x_min":89,"x_max":919,"o":"m 740 639 l 740 0 l 919 0 l 919 639 l 740 639 m 89 639 l 89 0 l 269 0 l 269 639 l 89 639 m 224 292 l 396 292 q 462 272 439 292 q 485 217 485 251 q 474 176 485 193 q 444 151 464 160 q 396 142 425 142 l 224 142 l 224 0 l 422 0 q 542 25 489 0 q 625 99 594 50 q 656 217 656 149 q 588 367 656 319 q 422 415 521 415 l 224 415 l 224 292 z "},"ь":{"ha":731,"x_min":96,"x_max":661,"o":"m 96 639 l 96 0 l 275 0 l 275 639 l 96 639 m 229 292 l 401 292 q 468 272 446 292 q 490 217 490 251 q 480 176 490 193 q 450 151 469 160 q 401 142 431 142 l 229 142 l 229 0 l 428 0 q 547 25 494 0 q 631 99 600 50 q 661 217 661 149 q 594 367 661 319 q 428 415 526 415 l 229 415 l 229 292 z "},"э":{"ha":679,"x_min":69,"x_max":638,"o":"m 167 383 l 167 256 l 522 256 l 578 383 l 167 383 m 453 319 q 428 209 453 254 q 363 140 404 164 q 268 115 321 115 q 187 128 225 115 q 118 165 149 142 q 69 218 88 188 l 69 51 q 156 3 103 21 q 279 -14 210 -14 q 463 28 383 -14 q 590 145 543 69 q 638 319 638 221 q 590 494 638 419 q 463 611 543 569 q 279 653 383 653 q 156 635 210 653 q 69 589 103 618 l 69 422 q 119 476 88 453 q 189 511 150 499 q 268 524 228 524 q 363 499 321 524 q 428 428 404 474 q 453 319 453 382 z "},"ю":{"ha":1107,"x_min":89,"x_max":1063,"o":"m 154 267 l 486 267 l 486 407 l 154 407 l 154 267 m 89 639 l 89 0 l 263 0 l 263 639 l 89 639 m 353 319 q 399 145 353 221 q 526 28 446 69 q 707 -14 607 -14 q 890 28 810 -14 q 1016 145 969 69 q 1063 319 1063 221 q 1016 494 1063 419 q 890 611 969 569 q 707 653 810 653 q 526 611 607 653 q 399 494 446 569 q 353 319 353 419 m 538 319 q 560 415 538 374 q 622 479 583 457 q 707 501 660 501 q 794 479 756 501 q 855 415 832 457 q 878 319 878 374 q 855 224 878 265 q 794 160 832 183 q 707 138 756 138 q 622 160 660 138 q 560 224 583 183 q 538 319 538 265 z "},"я":{"ha":731,"x_min":61,"x_max":669,"o":"m 250 0 l 444 304 l 268 304 l 61 0 l 250 0 m 669 0 l 669 639 l 490 639 l 490 0 l 669 0 m 554 365 l 376 365 q 324 372 344 365 q 292 392 303 378 q 281 429 281 407 q 292 467 281 453 q 324 488 303 481 q 376 494 344 494 l 554 494 l 554 639 l 356 639 q 232 619 290 639 q 139 557 174 600 q 104 442 104 514 q 139 326 104 371 q 232 259 174 281 q 356 238 290 238 l 554 238 l 554 365 z "},"ª":{"ha":361,"x_min":25,"x_max":333,"o":"m 117 738 q 134 775 117 760 q 181 790 151 790 q 230 783 208 790 q 269 761 251 775 l 269 806 q 231 829 260 817 q 163 842 201 842 q 66 813 107 842 q 25 735 25 783 q 58 659 25 686 q 140 632 92 632 q 224 658 190 632 q 258 729 258 683 l 247 767 q 223 710 247 726 q 169 694 199 694 q 129 707 142 694 q 117 738 117 719 m 88 876 q 126 896 99 885 q 188 907 153 907 q 231 894 214 907 q 247 858 247 881 l 247 639 l 333 639 l 333 878 q 294 953 333 926 q 193 979 256 979 q 115 967 150 979 q 54 942 79 954 l 88 876 z "},"º":{"ha":386,"x_min":26,"x_max":381,"o":"m 26 806 q 76 685 26 732 q 203 639 126 639 q 330 685 279 639 q 381 806 381 732 q 330 926 381 881 q 203 972 279 972 q 76 926 126 972 q 26 806 26 881 m 118 806 q 142 872 118 847 q 203 896 167 896 q 264 872 239 896 q 289 806 289 847 q 264 740 289 764 q 203 715 239 715 q 142 740 167 715 q 118 806 118 764 z "},"̀":{"ha":0,"x_min":0,"x_max":351,"o":"m 250 749 l 351 801 l 143 1024 l 0 957 l 250 749 z "},"́":{"ha":0,"x_min":21,"x_max":372,"o":"m 122 751 l 372 960 l 229 1026 l 21 804 l 122 751 z "},"̂":{"ha":0,"x_min":0,"x_max":458,"o":"m 82 763 l 254 906 l 204 906 l 376 763 l 458 864 l 229 1038 l 0 864 l 82 763 z "},"̃":{"ha":0,"x_min":0,"x_max":518,"o":"m 92 804 q 99 836 92 819 q 123 864 107 853 q 164 875 139 875 q 220 858 196 875 q 272 822 244 840 q 338 804 299 804 q 413 822 375 804 q 478 866 450 839 q 518 918 507 893 l 431 1007 q 386 955 408 974 q 338 936 364 936 q 292 947 310 936 q 259 971 275 957 q 222 995 243 985 q 165 1006 200 1006 q 92 988 128 1006 q 32 943 57 971 q 0 881 7 915 l 92 804 z "},"̄":{"ha":0,"x_min":0,"x_max":507,"o":"m 0 800 l 507 800 l 507 938 l 0 938 l 0 800 z "},"̆":{"ha":0,"x_min":0,"x_max":451,"o":"m 225 756 q 343 781 292 756 q 423 852 394 807 q 451 957 451 897 l 310 957 q 299 910 310 931 q 269 878 288 890 q 225 867 250 867 q 183 878 201 867 q 153 910 164 890 q 142 957 142 931 l 0 957 q 28 852 0 897 q 108 781 57 807 q 225 756 158 756 z "},"̇":{"ha":0,"x_min":0,"x_max":215,"o":"m 108 756 q 185 785 154 756 q 215 857 215 815 q 185 930 215 900 q 108 960 154 960 q 31 930 63 960 q 0 857 0 900 q 31 785 0 815 q 108 756 63 756 z "},"̈":{"ha":0,"x_min":0,"x_max":535,"o":"m 108 788 q 186 816 157 788 q 215 890 215 844 q 186 964 215 936 q 108 992 157 992 q 29 964 58 992 q 0 890 0 936 q 29 816 0 844 q 108 788 58 788 m 428 788 q 506 816 476 788 q 535 890 535 844 q 506 964 535 936 q 428 992 476 992 q 349 964 378 992 q 319 890 319 936 q 349 816 319 844 q 428 788 378 788 z "},"̊":{"ha":0,"x_min":0,"x_max":344,"o":"m 171 722 q 259 744 219 722 q 322 802 299 765 q 344 883 344 839 q 322 967 344 931 q 259 1024 299 1003 q 171 1046 219 1046 q 49 999 99 1046 q 0 883 0 953 q 49 769 0 815 q 171 722 99 722 m 171 811 q 122 832 142 811 q 101 883 101 853 q 122 936 101 915 q 171 957 142 957 q 222 936 201 957 q 242 883 242 915 q 222 833 242 854 q 171 811 201 811 z "},"̋":{"ha":0,"x_min":0,"x_max":558,"o":"m 111 721 l 307 979 l 154 1015 l 0 753 l 111 721 m 360 721 l 558 979 l 403 1015 l 250 753 l 360 721 z "},"̌":{"ha":0,"x_min":0,"x_max":458,"o":"m 229 763 l 458 938 l 376 1038 l 204 894 l 254 894 l 82 1038 l 0 938 l 229 763 z "},"̒":{"ha":0,"x_min":0,"x_max":301,"o":"m 179 692 l 301 1051 l 168 1083 l 0 736 l 179 692 z "},"̦":{"ha":0,"x_min":0,"x_max":260,"o":"m 96 -293 l 260 -81 l 132 -26 l 0 -254 l 96 -293 z "},"̧":{"ha":0,"x_min":0,"x_max":317,"o":"m 158 -301 q 272 -261 228 -301 q 317 -161 317 -221 q 288 -83 317 -117 q 214 -49 258 -49 q 157 -56 182 -49 q 111 -74 132 -62 l 172 -86 l 264 92 l 156 94 l 56 -118 q 98 -115 75 -115 q 138 -115 121 -115 q 188 -126 172 -115 q 203 -158 203 -136 q 188 -196 203 -182 q 143 -210 172 -210 q 90 -203 115 -210 q 38 -183 64 -197 l 0 -262 q 74 -292 33 -282 q 158 -301 115 -301 z "},"̨":{"ha":0,"x_min":0,"x_max":299,"o":"m 165 -306 q 251 -288 218 -306 q 299 -250 283 -271 l 253 -162 q 223 -183 239 -176 q 183 -190 207 -190 q 143 -176 157 -190 q 129 -133 129 -162 q 144 -86 129 -110 q 184 -40 158 -62 q 246 0 210 -18 l 189 35 q 97 -20 140 10 q 27 -86 54 -50 q 0 -167 0 -122 q 21 -242 0 -210 q 78 -290 42 -274 q 165 -306 115 -306 z "},"０":{"ha":853,"x_min":35,"x_max":817,"o":"m 228 486 q 242 620 228 560 q 282 724 256 681 q 344 792 308 768 q 426 815 381 815 q 508 792 472 815 q 570 724 544 768 q 610 620 596 681 q 625 486 625 560 q 610 352 625 413 q 570 248 596 292 q 508 181 544 204 q 426 157 472 157 q 344 181 381 157 q 282 248 308 204 q 242 352 256 292 q 228 486 228 413 m 35 486 q 84 219 35 332 q 222 45 133 107 q 426 -17 310 -17 q 633 45 544 -17 q 769 219 721 107 q 817 486 817 332 q 769 753 817 640 q 633 927 721 865 q 426 989 544 989 q 222 927 310 989 q 84 753 133 865 q 35 486 35 640 z "},"１":{"ha":853,"x_min":154,"x_max":579,"o":"m 154 719 l 388 781 l 388 0 l 579 0 l 579 989 l 154 899 l 154 719 z "},"２":{"ha":853,"x_min":24,"x_max":806,"o":"m 24 0 l 806 0 l 806 182 l 399 182 l 651 421 q 750 541 713 476 q 788 682 788 606 q 766 792 788 738 q 702 891 744 846 q 595 963 660 936 q 443 990 531 990 q 242 941 325 990 q 117 808 160 892 q 74 621 74 725 l 268 621 q 290 724 268 679 q 349 792 311 768 q 439 817 388 817 q 502 805 475 817 q 547 774 529 793 q 574 729 565 754 q 583 678 583 704 q 569 606 583 640 q 528 536 554 571 q 465 461 501 501 l 24 0 z "},"３":{"ha":853,"x_min":78,"x_max":788,"o":"m 378 474 q 574 503 488 474 q 710 588 660 532 q 760 724 760 644 q 722 857 760 797 q 613 953 685 917 q 440 989 542 989 q 272 951 344 989 q 160 849 200 914 q 119 701 119 785 l 303 701 q 342 791 303 756 q 440 826 382 826 q 508 813 482 826 q 549 772 535 799 q 563 711 563 746 q 549 658 563 683 q 513 612 536 632 q 455 581 489 592 q 378 569 421 569 l 378 474 m 432 -19 q 621 16 542 -19 q 744 115 700 51 q 788 263 788 179 q 757 388 788 336 q 671 474 726 440 q 541 524 615 508 q 378 539 467 539 l 378 433 q 469 423 429 433 q 535 393 508 413 q 576 345 563 374 q 590 283 590 317 q 571 207 590 238 q 517 160 551 176 q 438 144 483 144 q 356 162 393 144 q 296 213 318 179 q 274 293 274 246 l 78 293 q 102 174 78 231 q 172 74 126 118 q 283 6 218 31 q 432 -19 349 -19 z "},"４":{"ha":853,"x_min":19,"x_max":822,"o":"m 19 179 l 822 179 l 822 349 l 603 349 l 579 328 l 182 328 l 19 179 m 210 228 l 494 656 l 494 244 l 476 229 l 476 0 l 681 0 l 681 972 l 546 972 l 19 179 l 210 228 z "},"５":{"ha":853,"x_min":43,"x_max":794,"o":"m 794 314 q 754 485 794 414 q 647 596 714 557 q 501 635 581 635 q 367 613 431 635 q 251 533 304 590 l 117 425 q 212 467 167 453 q 300 488 257 482 q 383 494 343 494 q 481 476 436 494 q 553 421 525 457 q 581 332 581 385 q 557 241 581 278 q 490 185 533 204 q 383 165 446 165 q 297 181 342 165 q 212 225 253 197 q 138 288 171 253 l 43 133 q 138 59 85 93 q 260 4 190 25 q 419 -17 331 -17 q 557 3 490 -17 q 678 63 624 22 q 763 165 732 103 q 794 314 794 228 m 397 800 l 781 800 l 781 972 l 250 972 l 117 425 l 319 543 l 397 800 z "},"６":{"ha":853,"x_min":51,"x_max":801,"o":"m 246 335 q 269 431 246 389 q 334 497 293 474 q 426 519 375 519 q 519 497 478 519 q 583 431 560 474 q 607 335 607 389 q 583 238 607 279 q 519 174 560 197 q 426 151 478 151 q 334 174 375 151 q 269 238 293 197 q 246 335 246 279 m 443 969 l 147 583 q 78 469 106 531 q 51 335 51 407 q 101 142 51 221 q 237 22 151 63 q 426 -19 322 -19 q 615 22 531 -19 q 751 142 700 63 q 801 335 801 221 q 776 464 801 406 q 709 564 751 522 q 614 628 667 606 q 504 650 561 650 q 418 639 454 650 q 347 590 382 628 l 382 603 l 693 969 l 443 969 z "},"７":{"ha":853,"x_min":63,"x_max":819,"o":"m 63 786 l 528 786 l 139 0 l 351 0 l 819 972 l 63 972 l 63 786 z "},"８":{"ha":853,"x_min":94,"x_max":783,"o":"m 129 738 q 155 626 129 674 q 224 546 181 578 q 324 497 268 514 q 439 481 379 481 q 554 497 499 481 q 653 546 610 514 q 723 626 697 578 q 749 738 749 674 q 706 872 749 815 q 594 960 664 929 q 439 992 524 992 q 283 960 353 992 q 171 872 213 929 q 129 738 129 815 m 315 718 q 331 783 315 754 q 375 828 347 813 q 439 843 403 843 q 503 828 475 843 q 546 783 531 813 q 561 718 561 754 q 544 653 561 681 q 501 609 528 625 q 439 593 474 593 q 376 609 404 593 q 332 653 349 625 q 315 718 315 681 m 94 264 q 122 148 94 200 q 197 58 149 96 q 307 1 244 21 q 439 -19 369 -19 q 570 1 508 -19 q 680 58 632 21 q 756 148 728 96 q 783 264 783 200 q 753 391 783 338 q 672 479 722 444 q 560 531 621 514 q 439 547 499 547 q 318 531 379 547 q 206 479 257 514 q 125 391 156 444 q 94 264 94 338 m 290 293 q 310 367 290 333 q 365 419 331 400 q 439 439 399 439 q 512 419 478 439 q 567 367 546 400 q 588 293 588 333 q 567 212 588 244 q 512 162 546 179 q 439 144 478 144 q 365 162 399 144 q 310 212 331 179 q 290 293 290 244 z "},"９":{"ha":853,"x_min":51,"x_max":801,"o":"m 607 638 q 583 542 607 583 q 519 476 560 500 q 426 453 478 453 q 334 476 375 453 q 269 542 293 500 q 246 638 246 583 q 269 734 246 693 q 334 798 293 775 q 426 821 375 821 q 519 798 478 821 q 583 734 560 775 q 607 638 607 693 m 410 3 l 704 389 q 774 503 746 442 q 801 638 801 565 q 751 831 801 751 q 615 951 700 910 q 426 992 531 992 q 237 951 322 992 q 101 831 151 910 q 51 638 51 751 q 76 508 51 567 q 142 408 100 450 q 238 344 185 367 q 347 322 292 322 q 434 334 399 322 q 506 382 469 346 l 469 369 l 158 3 l 410 3 z "},"¹":{"ha":665,"x_min":193,"x_max":449,"o":"m 193 811 l 333 849 l 333 381 l 449 381 l 449 974 l 193 919 l 193 811 z "},"²":{"ha":540,"x_min":35,"x_max":503,"o":"m 35 392 l 503 392 l 503 501 l 260 501 l 411 643 q 470 717 447 678 q 493 801 493 756 q 470 888 493 846 q 402 958 447 931 q 286 986 357 986 q 167 957 217 986 q 90 877 117 928 q 64 764 64 826 l 182 764 q 210 850 182 818 q 283 882 239 882 q 333 870 314 882 q 361 840 351 858 q 371 799 371 821 q 352 734 371 764 q 300 669 333 704 l 35 392 z "},"³":{"ha":483,"x_min":28,"x_max":454,"o":"m 208 672 q 326 690 274 672 q 408 742 378 708 q 438 822 438 776 q 388 935 438 888 q 246 982 338 982 q 106 933 160 982 q 53 810 53 885 l 164 810 q 188 864 164 843 q 246 885 211 885 q 301 866 283 885 q 319 817 319 847 q 306 774 319 793 q 267 742 292 754 q 208 731 242 731 l 208 672 m 240 376 q 397 424 339 376 q 454 547 454 472 q 422 642 454 606 q 335 695 390 678 q 208 713 279 713 l 208 649 q 278 638 250 649 q 322 608 307 628 q 336 558 336 588 q 310 497 336 518 q 244 476 285 476 q 175 499 204 476 q 146 564 146 522 l 28 564 q 53 472 28 515 q 127 403 79 429 q 240 376 175 376 z "},"¼":{"ha":1113,"x_min":36,"x_max":1068,"o":"m 871 972 l 149 0 l 268 0 l 990 972 l 871 972 m 36 811 l 175 849 l 175 381 l 292 381 l 292 974 l 36 919 l 36 811 m 561 108 l 1068 108 l 1068 210 l 929 210 l 915 197 l 658 197 l 561 108 m 682 136 l 864 394 l 864 147 l 854 139 l 854 0 l 976 0 l 976 583 l 896 583 l 561 108 l 682 136 z "},"½":{"ha":1208,"x_min":36,"x_max":1165,"o":"m 871 972 l 149 0 l 268 0 l 990 972 l 871 972 m 36 811 l 175 849 l 175 381 l 292 381 l 292 974 l 36 919 l 36 811 m 697 3 l 1165 3 l 1165 113 l 922 113 l 1072 254 q 1132 328 1110 289 q 1154 413 1154 367 q 1132 499 1154 457 q 1064 569 1110 542 q 949 597 1018 597 q 828 568 878 597 q 753 488 779 539 q 726 375 726 438 l 843 375 q 872 461 843 429 q 946 493 901 493 q 995 481 976 493 q 1023 451 1014 469 q 1032 410 1032 432 q 1013 345 1032 375 q 961 281 994 315 l 697 3 z "},"¾":{"ha":1196,"x_min":38,"x_max":1153,"o":"m 960 972 l 238 0 l 358 0 l 1081 972 l 960 972 m 218 672 q 336 690 285 672 q 417 742 388 708 q 447 822 447 776 q 397 935 447 888 q 257 982 347 982 q 116 933 169 982 q 63 810 63 885 l 174 810 q 197 864 174 843 q 256 885 221 885 q 311 866 293 885 q 329 817 329 847 q 315 774 329 793 q 277 742 301 754 q 218 731 253 731 l 218 672 m 250 376 q 406 424 349 376 q 464 547 464 472 q 432 642 464 606 q 344 695 400 678 q 218 713 289 713 l 218 649 q 288 638 260 649 q 331 608 317 628 q 346 558 346 588 q 320 497 346 518 q 254 476 294 476 q 185 499 214 476 q 156 564 156 522 l 38 564 q 63 472 38 515 q 137 403 89 429 q 250 376 185 376 m 646 108 l 1153 108 l 1153 210 l 1013 210 l 999 197 l 743 197 l 646 108 m 767 136 l 949 394 l 949 147 l 938 139 l 938 0 l 1061 0 l 1061 583 l 979 583 l 646 108 l 767 136 z "},"⁰":{"ha":535,"x_min":33,"x_max":501,"o":"m 149 681 q 163 785 149 740 q 204 853 176 829 q 267 878 232 878 q 331 853 304 878 q 372 785 357 829 q 386 681 386 740 q 372 576 386 621 q 331 508 357 532 q 267 483 304 483 q 204 508 232 483 q 163 576 176 532 q 149 681 149 621 m 33 681 q 63 521 33 589 q 146 416 93 453 q 267 379 199 379 q 391 416 339 379 q 472 521 443 453 q 501 681 501 589 q 472 841 501 774 q 391 945 443 908 q 267 982 339 982 q 146 945 199 982 q 63 841 93 908 q 33 681 33 774 z "},"⁴":{"ha":575,"x_min":28,"x_max":535,"o":"m 28 497 l 535 497 l 535 599 l 396 599 l 382 586 l 125 586 l 28 497 m 150 525 l 332 783 l 332 536 l 321 528 l 321 389 l 443 389 l 443 972 l 363 972 l 28 497 l 150 525 z "},"⁵":{"ha":524,"x_min":36,"x_max":486,"o":"m 486 574 q 462 678 486 635 q 398 744 438 721 q 310 767 358 767 q 231 754 268 767 q 161 707 193 742 l 81 640 q 164 674 125 665 q 239 682 203 682 q 322 658 286 682 q 358 585 358 633 q 326 512 358 538 q 239 486 294 486 q 163 507 203 486 q 92 560 122 528 l 36 467 q 127 403 74 429 q 261 376 181 376 q 369 397 318 376 q 453 463 419 418 q 486 574 486 507 m 247 865 l 478 865 l 478 969 l 160 969 l 81 640 l 201 713 l 247 865 z "},"⁶":{"ha":517,"x_min":38,"x_max":488,"o":"m 154 586 q 168 645 154 619 q 207 685 182 671 q 263 699 232 699 q 317 685 293 699 q 356 645 342 671 q 371 586 371 619 q 340 507 371 538 q 263 476 310 476 q 185 507 217 476 q 154 586 154 538 m 272 968 l 96 736 q 54 668 71 706 q 38 586 38 631 q 68 472 38 519 q 149 399 99 424 q 263 374 200 374 q 376 399 325 374 q 458 472 428 424 q 488 586 488 519 q 462 687 488 644 q 395 753 436 729 q 310 776 354 776 q 258 769 279 776 q 215 740 236 763 l 236 747 l 424 968 l 272 968 z "},"⁷":{"ha":515,"x_min":35,"x_max":490,"o":"m 35 861 l 315 861 l 82 389 l 208 389 l 490 972 l 35 972 l 35 861 z "},"⁸":{"ha":485,"x_min":35,"x_max":449,"o":"m 56 832 q 82 747 56 782 q 151 695 108 713 q 242 678 194 678 q 333 695 290 678 q 401 747 375 713 q 428 832 428 782 q 402 913 428 879 q 335 966 376 947 q 242 985 293 985 q 148 966 190 985 q 81 913 106 947 q 56 832 56 879 m 168 819 q 188 874 168 854 q 242 894 208 894 q 294 874 274 894 q 315 819 315 854 q 306 781 315 797 q 279 754 296 764 q 242 744 263 744 q 204 754 221 744 q 178 781 188 764 q 168 819 168 797 m 35 547 q 63 458 35 497 q 139 398 92 419 q 242 376 186 376 q 344 398 297 376 q 420 458 392 419 q 449 547 449 497 q 430 624 449 592 q 381 676 411 656 q 314 708 350 697 q 242 718 278 718 q 169 708 206 718 q 101 676 132 697 q 53 624 71 656 q 35 547 35 592 m 153 564 q 165 609 153 589 q 198 640 178 629 q 242 651 218 651 q 285 640 265 651 q 318 609 306 629 q 331 564 331 589 q 304 498 331 521 q 242 475 278 475 q 179 498 206 475 q 153 564 153 521 z "},"⁹":{"ha":514,"x_min":40,"x_max":492,"o":"m 374 775 q 360 716 374 742 q 322 676 346 690 q 265 663 297 663 q 210 676 235 663 q 172 716 186 690 q 157 775 157 742 q 188 855 157 825 q 265 885 219 885 q 343 855 313 885 q 374 775 374 825 m 256 393 l 432 625 q 474 694 457 657 q 492 775 492 732 q 461 890 492 843 q 380 963 431 938 q 265 988 329 988 q 153 963 204 988 q 71 890 101 938 q 40 775 40 843 q 67 675 40 718 q 133 608 93 632 q 218 585 174 585 q 270 592 249 585 q 313 621 292 599 l 292 614 l 104 393 l 256 393 z "},"₀":{"ha":535,"x_min":33,"x_max":501,"o":"m 149 292 q 163 396 149 351 q 204 465 176 440 q 267 489 232 489 q 331 465 304 489 q 372 396 357 440 q 386 292 386 351 q 372 188 386 232 q 331 119 357 143 q 267 94 304 94 q 204 119 232 94 q 163 188 176 143 q 149 292 149 232 m 33 292 q 63 132 33 200 q 146 27 93 64 q 267 -10 199 -10 q 391 27 339 -10 q 472 132 443 64 q 501 292 501 200 q 472 452 501 385 q 391 556 443 519 q 267 593 339 593 q 146 556 199 593 q 63 452 93 519 q 33 292 33 385 z "},"₁":{"ha":481,"x_min":125,"x_max":381,"o":"m 125 432 l 265 469 l 265 1 l 381 1 l 381 594 l 125 540 l 125 432 z "},"₂":{"ha":543,"x_min":38,"x_max":506,"o":"m 38 3 l 506 3 l 506 113 l 263 113 l 414 254 q 473 328 450 289 q 496 413 496 367 q 473 499 496 457 q 405 569 450 542 q 290 597 360 597 q 169 568 219 597 q 94 488 119 539 q 68 375 68 438 l 185 375 q 213 461 185 429 q 286 493 242 493 q 335 481 317 493 q 364 451 354 469 q 374 410 374 432 q 355 345 374 375 q 303 281 336 315 l 38 3 z "},"₃":{"ha":490,"x_min":32,"x_max":458,"o":"m 213 283 q 330 301 278 283 q 412 353 382 319 q 442 433 442 388 q 392 546 442 499 q 250 593 342 593 q 110 544 164 593 q 57 421 57 496 l 168 421 q 192 475 168 454 q 250 496 215 496 q 306 477 288 496 q 324 428 324 458 q 310 385 324 404 q 271 353 296 365 q 213 342 246 342 l 213 283 m 244 -12 q 401 35 343 -12 q 458 158 458 83 q 426 253 458 217 q 339 306 394 289 q 213 324 283 324 l 213 260 q 283 249 254 260 q 326 219 311 239 q 340 169 340 199 q 315 108 340 129 q 249 88 289 88 q 179 110 208 88 q 150 175 150 133 l 32 175 q 58 83 32 126 q 131 14 83 40 q 244 -12 179 -12 z "},"₄":{"ha":579,"x_min":26,"x_max":533,"o":"m 26 108 l 533 108 l 533 210 l 394 210 l 381 197 l 125 197 l 26 108 m 149 136 l 331 394 l 331 147 l 319 139 l 319 0 l 442 0 l 442 583 l 361 583 l 26 108 l 149 136 z "},"₅":{"ha":532,"x_min":39,"x_max":489,"o":"m 489 185 q 465 289 489 246 q 401 355 442 332 q 313 378 361 378 q 234 365 272 378 q 164 318 196 353 l 83 251 q 167 285 128 276 q 242 293 206 293 q 325 269 289 293 q 361 196 361 244 q 330 123 361 149 q 242 97 299 97 q 165 118 206 97 q 94 171 125 139 l 39 78 q 130 14 76 40 q 264 -12 183 -12 q 372 8 321 -12 q 456 74 422 29 q 489 185 489 118 m 251 476 l 481 476 l 481 581 l 163 581 l 83 251 l 204 324 l 251 476 z "},"₆":{"ha":526,"x_min":40,"x_max":490,"o":"m 157 197 q 171 256 157 231 q 210 296 185 282 q 265 310 235 310 q 320 296 296 310 q 359 256 344 282 q 374 197 374 231 q 343 118 374 149 q 265 88 313 88 q 188 118 219 88 q 157 197 157 149 m 275 579 l 99 347 q 57 279 74 317 q 40 197 40 242 q 71 83 40 131 q 152 10 101 35 q 265 -15 203 -15 q 379 10 328 -15 q 460 83 431 35 q 490 197 490 131 q 465 298 490 256 q 398 364 439 340 q 313 388 357 388 q 260 381 282 388 q 218 351 239 374 l 239 358 l 426 579 l 275 579 z "},"₇":{"ha":521,"x_min":39,"x_max":493,"o":"m 39 472 l 318 472 l 85 0 l 213 0 l 493 583 l 39 583 l 39 472 z "},"₈":{"ha":492,"x_min":39,"x_max":453,"o":"m 60 443 q 86 358 60 393 q 156 306 113 324 q 246 289 199 289 q 337 306 294 289 q 406 358 379 324 q 432 443 432 393 q 406 524 432 490 q 339 577 381 558 q 246 596 297 596 q 152 577 194 596 q 85 524 110 558 q 60 443 60 490 m 172 431 q 192 485 172 465 q 246 506 213 506 q 299 485 278 506 q 319 431 319 465 q 310 392 319 408 q 283 365 300 375 q 246 356 267 356 q 208 365 225 356 q 182 392 192 375 q 172 431 172 408 m 39 158 q 67 69 39 108 q 143 9 96 31 q 246 -12 190 -12 q 349 9 301 -12 q 424 69 396 31 q 453 158 453 108 q 434 235 453 203 q 385 288 415 267 q 318 319 354 308 q 246 329 282 329 q 173 319 210 329 q 106 288 136 308 q 57 235 75 267 q 39 158 39 203 m 157 175 q 169 220 157 200 q 202 251 182 240 q 246 263 222 263 q 290 251 269 263 q 322 220 310 240 q 335 175 335 200 q 308 109 335 132 q 246 86 282 86 q 183 109 210 86 q 157 175 157 132 z "},"₉":{"ha":531,"x_min":35,"x_max":486,"o":"m 368 386 q 354 327 368 353 q 316 288 340 301 q 260 274 292 274 q 205 288 229 274 q 166 327 181 301 q 151 386 151 353 q 183 466 151 436 q 260 496 214 496 q 338 466 307 496 q 368 386 368 436 m 250 4 l 426 236 q 469 306 451 268 q 486 386 486 343 q 456 501 486 454 q 374 574 425 549 q 260 599 324 599 q 147 574 199 599 q 65 501 96 549 q 35 386 35 454 q 60 285 35 328 q 127 219 86 243 q 213 196 168 196 q 265 203 243 196 q 307 232 286 210 l 286 225 l 99 4 l 250 4 z "},"⅐":{"ha":1265,"x_min":36,"x_max":1231,"o":"m 825 972 l 103 0 l 246 0 l 968 972 l 825 972 m 36 811 l 175 849 l 175 381 l 292 381 l 292 974 l 36 919 l 36 811 m 776 472 l 1056 472 l 822 0 l 950 0 l 1231 583 l 776 583 l 776 472 z "},"⅑":{"ha":1185,"x_min":36,"x_max":1156,"o":"m 818 972 l 96 0 l 240 0 l 963 972 l 818 972 m 36 811 l 175 849 l 175 381 l 292 381 l 292 974 l 36 919 l 36 811 m 1038 386 q 1024 327 1038 353 q 985 288 1010 301 q 929 274 961 274 q 874 288 899 274 q 835 327 850 301 q 821 386 821 353 q 852 466 821 436 q 929 496 883 496 q 1007 466 976 496 q 1038 386 1038 436 m 919 4 l 1096 236 q 1138 306 1121 268 q 1156 386 1156 343 q 1125 501 1156 454 q 1044 574 1094 549 q 929 599 993 599 q 817 574 868 599 q 735 501 765 549 q 704 386 704 454 q 730 285 704 328 q 797 219 756 243 q 882 196 838 196 q 934 203 913 196 q 976 232 956 210 l 956 225 l 768 4 l 919 4 z "},"⅒":{"ha":1625,"x_min":36,"x_max":1581,"o":"m 818 972 l 96 0 l 240 0 l 963 972 l 818 972 m 36 811 l 175 849 l 175 381 l 292 381 l 292 974 l 36 919 l 36 811 m 738 432 l 878 469 l 878 1 l 993 1 l 993 594 l 738 540 l 738 432 m 1226 292 q 1241 396 1226 351 q 1283 465 1256 440 q 1346 489 1310 489 q 1410 465 1383 489 q 1451 396 1436 440 q 1465 292 1465 351 q 1451 188 1465 232 q 1410 119 1436 143 q 1346 94 1383 94 q 1283 119 1310 94 q 1241 188 1256 143 q 1226 292 1226 232 m 1111 292 q 1141 132 1111 200 q 1224 27 1171 64 q 1346 -10 1276 -10 q 1469 27 1417 -10 q 1551 132 1522 64 q 1581 292 1581 200 q 1551 452 1581 385 q 1469 556 1522 519 q 1346 593 1417 593 q 1224 556 1276 593 q 1141 452 1171 519 q 1111 292 1111 385 z "},"⅓":{"ha":1161,"x_min":36,"x_max":1126,"o":"m 818 972 l 96 0 l 240 0 l 963 972 l 818 972 m 36 811 l 175 849 l 175 381 l 292 381 l 292 974 l 36 919 l 36 811 m 881 283 q 998 301 946 283 q 1080 353 1050 319 q 1110 433 1110 388 q 1060 546 1110 499 q 918 593 1010 593 q 778 544 832 593 q 725 421 725 496 l 836 421 q 860 475 836 454 q 918 496 883 496 q 974 477 956 496 q 992 428 992 458 q 978 385 992 404 q 939 353 964 365 q 881 342 914 342 l 881 283 m 913 -12 q 1069 35 1011 -12 q 1126 158 1126 83 q 1094 253 1126 217 q 1007 306 1063 289 q 881 324 951 324 l 881 260 q 949 249 921 260 q 993 219 978 239 q 1008 169 1008 199 q 983 108 1008 129 q 917 88 957 88 q 847 110 875 88 q 818 175 818 133 l 700 175 q 726 83 700 126 q 799 14 751 40 q 913 -12 847 -12 z "},"⅔":{"ha":1344,"x_min":42,"x_max":1308,"o":"m 1013 972 l 290 0 l 435 0 l 1157 972 l 1013 972 m 42 392 l 510 392 l 510 501 l 267 501 l 418 643 q 477 717 454 678 q 500 801 500 756 q 477 888 500 846 q 409 958 454 931 q 293 986 364 986 q 174 957 224 986 q 97 877 124 928 q 71 764 71 826 l 189 764 q 217 850 189 818 q 290 882 246 882 q 340 870 321 882 q 368 840 358 858 q 378 799 378 821 q 359 734 378 764 q 307 669 340 704 l 42 392 m 1063 283 q 1181 301 1129 283 q 1262 353 1232 319 q 1292 433 1292 388 q 1242 546 1292 499 q 1101 593 1192 593 q 960 544 1014 593 q 907 421 907 496 l 1018 421 q 1042 475 1018 454 q 1100 496 1065 496 q 1156 477 1138 496 q 1174 428 1174 458 q 1160 385 1174 404 q 1122 353 1146 365 q 1063 342 1097 342 l 1063 283 m 1094 -12 q 1251 35 1193 -12 q 1308 158 1308 83 q 1276 253 1308 217 q 1189 306 1244 289 q 1063 324 1133 324 l 1063 260 q 1133 249 1104 260 q 1176 219 1161 239 q 1190 169 1190 199 q 1165 108 1190 129 q 1099 88 1139 88 q 1029 110 1058 88 q 1000 175 1000 133 l 882 175 q 908 83 882 126 q 981 14 933 40 q 1094 -12 1029 -12 z "},"⅕":{"ha":1146,"x_min":36,"x_max":1111,"o":"m 818 972 l 96 0 l 240 0 l 963 972 l 818 972 m 36 811 l 175 849 l 175 381 l 292 381 l 292 974 l 36 919 l 36 811 m 1111 185 q 1088 289 1111 246 q 1024 355 1064 332 q 935 378 983 378 q 856 365 894 378 q 786 318 818 353 l 706 251 q 789 285 750 276 q 864 293 828 293 q 947 269 911 293 q 983 196 983 244 q 952 123 983 149 q 864 97 921 97 q 788 118 828 97 q 717 171 747 139 l 661 78 q 752 14 699 40 q 886 -12 806 -12 q 994 8 943 -12 q 1078 74 1044 29 q 1111 185 1111 118 m 874 476 l 1103 476 l 1103 581 l 785 581 l 706 251 l 826 324 l 874 476 z "},"⅖":{"ha":1338,"x_min":42,"x_max":1293,"o":"m 1013 972 l 290 0 l 435 0 l 1157 972 l 1013 972 m 42 392 l 510 392 l 510 501 l 267 501 l 418 643 q 477 717 454 678 q 500 801 500 756 q 477 888 500 846 q 409 958 454 931 q 293 986 364 986 q 174 957 224 986 q 97 877 124 928 q 71 764 71 826 l 189 764 q 217 850 189 818 q 290 882 246 882 q 340 870 321 882 q 368 840 358 858 q 378 799 378 821 q 359 734 378 764 q 307 669 340 704 l 42 392 m 1293 185 q 1269 289 1293 246 q 1206 355 1246 332 q 1118 378 1165 378 q 1038 365 1076 378 q 968 318 1000 353 l 888 251 q 971 285 932 276 q 1047 293 1010 293 q 1130 269 1094 293 q 1165 196 1165 244 q 1134 123 1165 149 q 1047 97 1103 97 q 969 118 1010 97 q 900 171 929 139 l 843 78 q 934 14 881 40 q 1068 -12 988 -12 q 1176 8 1125 -12 q 1260 74 1228 29 q 1293 185 1293 118 m 1056 476 l 1285 476 l 1285 581 l 967 581 l 888 251 l 1008 324 l 1056 476 z "},"⅗":{"ha":1250,"x_min":35,"x_max":1203,"o":"m 928 972 l 206 0 l 349 0 l 1071 972 l 928 972 m 215 672 q 333 690 281 672 q 415 742 385 708 q 444 822 444 776 q 394 935 444 888 q 253 982 344 982 q 113 933 167 982 q 60 810 60 885 l 171 810 q 194 864 171 843 q 253 885 218 885 q 308 866 290 885 q 326 817 326 847 q 313 774 326 793 q 274 742 299 754 q 215 731 249 731 l 215 672 m 247 376 q 403 424 346 376 q 461 547 461 472 q 429 642 461 606 q 342 695 397 678 q 215 713 286 713 l 215 649 q 285 638 257 649 q 328 608 314 628 q 343 558 343 588 q 317 497 343 518 q 251 476 292 476 q 182 499 211 476 q 153 564 153 522 l 35 564 q 60 472 35 515 q 134 403 86 429 q 247 376 182 376 m 1203 185 q 1178 289 1203 246 q 1114 355 1154 332 q 1026 378 1074 378 q 947 365 985 378 q 876 318 910 353 l 797 251 q 881 285 842 276 q 956 293 919 293 q 1038 269 1003 293 q 1074 196 1074 244 q 1042 123 1074 149 q 956 97 1011 97 q 879 118 919 97 q 808 171 839 139 l 751 78 q 842 14 789 40 q 976 -12 896 -12 q 1085 8 1033 -12 q 1169 74 1136 29 q 1203 185 1203 118 m 964 476 l 1194 476 l 1194 581 l 876 581 l 797 251 l 918 324 l 964 476 z "},"⅘":{"ha":1346,"x_min":33,"x_max":1304,"o":"m 1000 972 l 278 0 l 422 0 l 1144 972 l 1000 972 m 33 497 l 540 497 l 540 599 l 401 599 l 388 586 l 132 586 l 33 497 m 156 525 l 338 783 l 338 536 l 326 528 l 326 389 l 449 389 l 449 972 l 368 972 l 33 497 l 156 525 m 1304 185 q 1281 288 1304 244 q 1217 355 1257 332 q 1129 378 1176 378 q 1049 365 1088 378 q 979 317 1011 351 l 899 251 q 982 285 943 276 q 1057 293 1021 293 q 1141 269 1106 293 q 1176 196 1176 244 q 1145 122 1176 147 q 1057 96 1114 96 q 981 117 1021 96 q 910 169 940 138 l 854 76 q 945 13 892 40 q 1079 -14 999 -14 q 1188 8 1136 -14 q 1272 74 1239 29 q 1304 185 1304 118 m 1067 476 l 1296 476 l 1296 581 l 978 581 l 899 251 l 1019 322 l 1067 476 z "},"⅙":{"ha":1150,"x_min":36,"x_max":1114,"o":"m 836 972 l 114 0 l 258 0 l 981 972 l 836 972 m 36 811 l 175 849 l 175 381 l 292 381 l 292 974 l 36 919 l 36 811 m 779 197 q 793 256 779 231 q 832 296 807 282 q 888 310 857 310 q 944 296 919 310 q 982 256 968 282 q 996 197 996 231 q 965 118 996 149 q 888 88 935 88 q 810 118 842 88 q 779 197 779 149 m 897 579 l 721 347 q 680 279 697 317 q 663 197 663 242 q 693 83 663 131 q 775 10 724 35 q 888 -15 826 -15 q 1002 10 951 -15 q 1083 83 1053 35 q 1114 197 1114 131 q 1088 298 1114 256 q 1021 364 1061 340 q 935 388 981 388 q 884 381 906 388 q 842 351 863 374 l 863 358 l 1049 579 l 897 579 z "},"⅚":{"ha":1260,"x_min":42,"x_max":1224,"o":"m 964 972 l 242 0 l 386 0 l 1108 972 l 964 972 m 492 574 q 468 678 492 635 q 404 744 444 721 q 317 767 364 767 q 237 754 275 767 q 167 707 199 742 l 86 640 q 169 674 131 665 q 244 682 208 682 q 328 658 293 682 q 364 585 364 633 q 333 512 364 538 q 244 486 301 486 q 168 507 208 486 q 97 560 128 528 l 42 467 q 133 403 79 429 q 267 376 186 376 q 375 397 324 376 q 459 463 426 418 q 492 574 492 507 m 254 865 l 483 865 l 483 969 l 165 969 l 86 640 l 207 713 l 254 865 m 889 197 q 903 256 889 231 q 942 296 918 282 q 999 310 967 310 q 1053 296 1029 310 q 1092 256 1078 282 q 1106 197 1106 231 q 1075 118 1106 149 q 999 88 1044 88 q 920 118 951 88 q 889 197 889 149 m 1008 579 l 831 347 q 790 279 807 317 q 772 197 772 242 q 803 83 772 131 q 885 10 833 35 q 999 -15 936 -15 q 1112 10 1061 -15 q 1193 83 1163 35 q 1224 197 1224 131 q 1197 298 1224 256 q 1131 364 1171 340 q 1046 388 1090 388 q 994 381 1015 388 q 951 351 972 374 l 972 358 l 1158 579 l 1008 579 z "},"⅛":{"ha":1181,"x_min":36,"x_max":1139,"o":"m 836 972 l 114 0 l 258 0 l 981 972 l 836 972 m 36 811 l 175 849 l 175 381 l 292 381 l 292 974 l 36 919 l 36 811 m 746 443 q 772 358 746 393 q 842 306 799 324 q 932 289 885 289 q 1023 306 981 289 q 1092 358 1065 324 q 1118 443 1118 393 q 1093 524 1118 490 q 1025 577 1068 558 q 932 596 982 596 q 838 577 881 596 q 771 524 796 558 q 746 443 746 490 m 858 431 q 878 485 858 465 q 932 506 899 506 q 984 485 964 506 q 1004 431 1004 465 q 995 392 1004 408 q 969 365 986 375 q 932 356 953 356 q 894 365 911 356 q 868 392 878 375 q 858 431 858 408 m 725 158 q 753 69 725 108 q 828 9 781 31 q 932 -12 876 -12 q 1035 9 988 -12 q 1110 69 1082 31 q 1139 158 1139 108 q 1120 235 1139 203 q 1071 288 1101 267 q 1004 319 1040 308 q 932 329 968 329 q 859 319 896 329 q 792 288 822 308 q 743 235 761 267 q 725 158 725 203 m 843 175 q 856 220 843 200 q 888 251 868 240 q 932 263 907 263 q 976 251 956 263 q 1008 220 996 240 q 1021 175 1021 200 q 994 109 1021 132 q 932 86 968 86 q 869 109 896 86 q 843 175 843 132 z "},"⅜":{"ha":1278,"x_min":35,"x_max":1235,"o":"m 933 972 l 211 0 l 356 0 l 1078 972 l 933 972 m 215 672 q 333 690 281 672 q 415 742 385 708 q 444 822 444 776 q 394 935 444 888 q 253 982 344 982 q 113 933 167 982 q 60 810 60 885 l 171 810 q 194 864 171 843 q 253 885 218 885 q 308 866 290 885 q 326 817 326 847 q 313 774 326 793 q 274 742 299 754 q 215 731 249 731 l 215 672 m 247 376 q 403 424 346 376 q 461 547 461 472 q 429 642 461 606 q 342 695 397 678 q 215 713 286 713 l 215 649 q 285 638 257 649 q 328 608 314 628 q 343 558 343 588 q 317 497 343 518 q 251 476 292 476 q 182 499 211 476 q 153 564 153 522 l 35 564 q 60 472 35 515 q 134 403 86 429 q 247 376 182 376 m 842 443 q 868 358 842 393 q 938 306 894 324 q 1028 289 981 289 q 1119 306 1076 289 q 1188 358 1161 324 q 1214 443 1214 393 q 1189 524 1214 490 q 1122 577 1164 558 q 1028 596 1079 596 q 935 577 978 596 q 867 524 893 558 q 842 443 842 490 m 956 431 q 976 485 956 465 q 1028 506 996 506 q 1081 485 1061 506 q 1101 431 1101 465 q 1092 392 1101 408 q 1066 365 1083 375 q 1028 356 1049 356 q 992 365 1008 356 q 965 392 975 375 q 956 431 956 408 m 821 158 q 849 69 821 108 q 926 9 878 31 q 1028 -12 974 -12 q 1132 9 1085 -12 q 1207 69 1179 31 q 1235 158 1235 108 q 1217 235 1235 203 q 1168 288 1199 267 q 1101 319 1138 308 q 1028 329 1064 329 q 956 319 992 329 q 889 288 919 308 q 840 235 858 267 q 821 158 821 203 m 939 175 q 951 220 939 200 q 984 251 964 240 q 1028 263 1004 263 q 1072 251 1053 263 q 1104 220 1092 240 q 1117 175 1117 200 q 1090 109 1117 132 q 1028 86 1064 86 q 966 109 993 86 q 939 175 939 132 z "},"⅝":{"ha":1308,"x_min":36,"x_max":1267,"o":"m 964 972 l 242 0 l 386 0 l 1108 972 l 964 972 m 486 574 q 462 678 486 635 q 398 744 438 721 q 310 767 358 767 q 231 754 268 767 q 161 707 193 742 l 81 640 q 164 674 125 665 q 239 682 203 682 q 322 658 286 682 q 358 585 358 633 q 326 512 358 538 q 239 486 294 486 q 163 507 203 486 q 92 560 122 528 l 36 467 q 127 403 74 429 q 261 376 181 376 q 369 397 318 376 q 453 463 419 418 q 486 574 486 507 m 247 865 l 478 865 l 478 969 l 160 969 l 81 640 l 201 713 l 247 865 m 874 443 q 900 358 874 393 q 969 306 926 324 q 1060 289 1013 289 q 1151 306 1108 289 q 1219 358 1193 324 q 1246 443 1246 393 q 1221 524 1246 490 q 1153 577 1196 558 q 1060 596 1110 596 q 966 577 1008 596 q 899 524 924 558 q 874 443 874 490 m 986 431 q 1006 485 986 465 q 1060 506 1026 506 q 1112 485 1092 506 q 1132 431 1132 465 q 1123 392 1132 408 q 1097 365 1114 375 q 1060 356 1081 356 q 1022 365 1039 356 q 996 392 1006 375 q 986 431 986 408 m 853 158 q 881 69 853 108 q 956 9 908 31 q 1060 -12 1004 -12 q 1163 9 1115 -12 q 1238 69 1210 31 q 1267 158 1267 108 q 1248 235 1267 203 q 1199 288 1229 267 q 1132 319 1168 308 q 1060 329 1096 329 q 987 319 1024 329 q 919 288 950 308 q 871 235 889 267 q 853 158 853 203 m 971 175 q 983 220 971 200 q 1015 251 996 240 q 1060 263 1035 263 q 1103 251 1083 263 q 1136 220 1124 240 q 1149 175 1149 200 q 1122 109 1149 132 q 1060 86 1096 86 q 997 109 1024 86 q 971 175 971 132 z "},"⅞":{"ha":1156,"x_min":35,"x_max":1114,"o":"m 806 972 l 83 0 l 228 0 l 950 972 l 806 972 m 35 861 l 315 861 l 82 389 l 208 389 l 490 972 l 35 972 l 35 861 m 721 443 q 747 358 721 393 q 817 306 774 324 q 907 289 860 289 q 998 306 956 289 q 1067 358 1040 324 q 1093 443 1093 393 q 1068 524 1093 490 q 1000 577 1043 558 q 907 596 957 596 q 813 577 856 596 q 746 524 771 558 q 721 443 721 490 m 833 431 q 853 485 833 465 q 907 506 874 506 q 959 485 939 506 q 979 431 979 465 q 970 392 979 408 q 944 365 961 375 q 907 356 928 356 q 869 365 886 356 q 843 392 853 375 q 833 431 833 408 m 700 158 q 728 69 700 108 q 803 9 756 31 q 907 -12 851 -12 q 1010 9 963 -12 q 1085 69 1057 31 q 1114 158 1114 108 q 1095 235 1114 203 q 1046 288 1076 267 q 979 319 1015 308 q 907 329 943 329 q 834 319 871 329 q 767 288 797 308 q 718 235 736 267 q 700 158 700 203 m 818 175 q 831 220 818 200 q 863 251 843 240 q 907 263 882 263 q 951 251 931 263 q 983 220 971 240 q 996 175 996 200 q 969 109 996 132 q 907 86 943 86 q 844 109 871 86 q 818 175 818 132 z "},"_":{"ha":724,"x_min":0,"x_max":724,"o":"m 0 -204 l 724 -204 l 724 -89 l 0 -89 l 0 -204 z "},"-":{"ha":304,"x_min":7,"x_max":297,"o":"m 7 251 l 297 251 l 297 408 l 7 408 l 7 251 z "},"‐":{"ha":304,"x_min":7,"x_max":297,"o":"m 7 251 l 297 251 l 297 408 l 7 408 l 7 251 z "},"‒":{"ha":856,"x_min":97,"x_max":749,"o":"m 97 251 l 749 251 l 749 408 l 97 408 l 97 251 z "},"–":{"ha":1069,"x_min":97,"x_max":967,"o":"m 97 251 l 967 251 l 967 408 l 97 408 l 97 251 z "},"—":{"ha":1283,"x_min":97,"x_max":1183,"o":"m 97 251 l 1183 251 l 1183 408 l 97 408 l 97 251 z "},"(":{"ha":460,"x_min":104,"x_max":433,"o":"m 269 1083 q 145 754 186 928 q 104 403 104 581 q 145 53 104 226 q 269 -278 186 -121 l 433 -278 q 324 53 361 -121 q 286 403 286 226 q 324 754 286 581 q 433 1083 361 928 l 269 1083 z "},")":{"ha":460,"x_min":26,"x_max":356,"o":"m 190 -278 q 315 53 274 -121 q 356 403 356 226 q 315 754 356 581 q 190 1083 274 928 l 26 1083 q 138 754 100 928 q 175 403 175 581 q 138 53 175 226 q 26 -278 100 -121 l 190 -278 z "},"[":{"ha":476,"x_min":131,"x_max":449,"o":"m 308 925 l 449 925 l 449 1083 l 131 1083 l 131 -306 l 449 -306 l 449 -147 l 308 -147 l 308 925 z "},"]":{"ha":476,"x_min":28,"x_max":346,"o":"m 168 -147 l 28 -147 l 28 -306 l 346 -306 l 346 1083 l 28 1083 l 28 925 l 168 925 l 168 -147 z "},"{":{"ha":515,"x_min":57,"x_max":446,"o":"m 331 869 q 349 918 331 897 q 397 939 367 939 l 446 939 l 446 1083 l 333 1083 q 240 1063 285 1083 q 165 1001 194 1043 q 136 889 136 958 l 136 621 q 117 510 136 542 q 57 468 99 479 l 57 338 q 117 296 99 328 q 136 185 136 264 l 136 -83 q 165 -194 136 -151 q 240 -258 194 -237 q 333 -278 285 -278 l 446 -278 l 446 -133 l 397 -133 q 349 -112 367 -133 q 331 -64 331 -90 l 331 125 q 326 222 331 171 q 305 317 322 274 q 250 389 288 361 q 144 417 213 417 l 144 389 q 250 417 213 389 q 305 488 288 444 q 326 583 322 532 q 331 681 331 635 l 331 869 z "},"}":{"ha":515,"x_min":76,"x_max":465,"o":"m 192 -64 q 174 -112 192 -90 q 125 -133 157 -133 l 76 -133 l 76 -278 l 190 -278 q 283 -258 238 -278 q 358 -194 329 -237 q 386 -83 386 -151 l 386 185 q 406 296 386 264 q 465 338 425 328 l 465 468 q 406 510 425 479 q 386 621 386 542 l 386 889 q 358 1001 386 958 q 283 1063 329 1043 q 190 1083 238 1083 l 76 1083 l 76 939 l 125 939 q 174 918 157 939 q 192 869 192 897 l 192 681 q 196 583 192 635 q 217 488 200 532 q 272 417 235 444 q 379 389 310 389 l 379 417 q 272 389 310 417 q 217 317 235 361 q 196 222 200 274 q 192 125 192 171 l 192 -64 z "},"#":{"ha":900,"x_min":49,"x_max":851,"o":"m 104 585 l 299 585 l 331 590 l 608 590 l 643 585 l 851 585 l 851 728 l 104 728 l 104 585 m 49 251 l 796 251 l 796 394 l 621 394 l 585 389 l 278 389 l 240 394 l 49 394 l 49 251 m 650 972 l 576 672 l 574 636 l 504 346 l 489 313 l 414 0 l 571 0 l 807 972 l 650 972 m 328 972 l 92 0 l 250 0 l 326 314 l 328 346 l 399 638 l 414 675 l 486 972 l 328 972 z "},"%":{"ha":1204,"x_min":36,"x_max":1167,"o":"m 36 749 q 69 626 36 682 q 158 536 101 569 q 286 503 215 503 q 415 536 358 503 q 503 626 471 569 q 535 749 535 682 q 503 874 535 818 q 415 962 471 929 q 286 994 358 994 q 158 962 215 994 q 69 874 101 929 q 36 749 36 818 m 186 749 q 199 801 186 778 q 233 840 211 825 q 286 854 256 854 q 338 840 317 854 q 372 801 360 825 q 385 749 385 778 q 372 697 385 721 q 338 658 360 672 q 286 644 317 644 q 233 658 256 644 q 199 697 211 672 q 186 749 186 721 m 668 224 q 701 100 668 156 q 790 11 733 44 q 918 -22 847 -22 q 1047 11 990 -22 q 1135 100 1103 44 q 1167 224 1167 156 q 1135 348 1167 292 q 1047 437 1103 404 q 918 469 990 469 q 790 437 847 469 q 701 348 733 404 q 668 224 668 292 m 818 224 q 831 276 818 253 q 865 314 843 300 q 918 328 888 328 q 970 314 949 328 q 1004 276 992 300 q 1017 224 1017 253 q 1004 172 1017 196 q 970 133 992 147 q 918 119 949 119 q 865 133 888 119 q 831 172 843 147 q 818 224 818 196 m 865 972 l 157 0 l 339 0 l 1047 972 l 865 972 z "},"‰":{"ha":1803,"x_min":36,"x_max":1767,"o":"m 1268 224 q 1300 100 1268 156 q 1389 11 1332 44 q 1517 -22 1446 -22 q 1646 11 1590 -22 q 1734 100 1701 44 q 1767 224 1767 156 q 1734 348 1767 292 q 1646 437 1701 404 q 1517 469 1590 469 q 1389 437 1446 469 q 1300 348 1332 404 q 1268 224 1268 292 m 1418 224 q 1431 276 1418 253 q 1465 314 1443 300 q 1517 328 1488 328 q 1569 314 1547 328 q 1604 276 1592 300 q 1617 224 1617 253 q 1604 172 1617 196 q 1569 133 1592 147 q 1517 119 1547 119 q 1465 133 1488 119 q 1431 172 1443 147 q 1418 224 1418 196 m 36 749 q 69 626 36 682 q 158 536 101 569 q 286 503 215 503 q 415 536 358 503 q 503 626 471 569 q 535 749 535 682 q 503 874 535 818 q 415 962 471 929 q 286 994 358 994 q 158 962 215 994 q 69 874 101 929 q 36 749 36 818 m 186 749 q 199 801 186 778 q 233 840 211 825 q 286 854 256 854 q 338 840 317 854 q 372 801 360 825 q 385 749 385 778 q 372 697 385 721 q 338 658 360 672 q 286 644 317 644 q 233 658 256 644 q 199 697 211 672 q 186 749 186 721 m 668 224 q 701 100 668 156 q 790 11 733 44 q 918 -22 847 -22 q 1047 11 990 -22 q 1135 100 1103 44 q 1167 224 1167 156 q 1135 348 1167 292 q 1047 437 1103 404 q 918 469 990 469 q 790 437 847 469 q 701 348 733 404 q 668 224 668 292 m 818 224 q 831 276 818 253 q 865 314 843 300 q 918 328 888 328 q 970 314 949 328 q 1004 276 992 300 q 1017 224 1017 253 q 1004 172 1017 196 q 970 133 992 147 q 918 119 949 119 q 865 133 888 119 q 831 172 843 147 q 818 224 818 196 m 865 972 l 157 0 l 339 0 l 1047 972 l 865 972 z "},"‱":{"ha":2403,"x_min":36,"x_max":2365,"o":"m 1867 224 q 1899 100 1867 156 q 1988 11 1932 44 q 2117 -22 2044 -22 q 2245 11 2189 -22 q 2333 100 2301 44 q 2365 224 2365 156 q 2333 348 2365 292 q 2245 437 2301 404 q 2117 469 2189 469 q 1988 437 2044 469 q 1899 348 1932 404 q 1867 224 1867 292 m 2017 224 q 2029 276 2017 253 q 2064 314 2042 300 q 2117 328 2086 328 q 2169 314 2147 328 q 2203 276 2190 300 q 2215 224 2215 253 q 2203 172 2215 196 q 2169 133 2190 147 q 2117 119 2147 119 q 2064 133 2086 119 q 2029 172 2042 147 q 2017 224 2017 196 m 1268 224 q 1300 100 1268 156 q 1389 11 1332 44 q 1517 -22 1446 -22 q 1646 11 1590 -22 q 1734 100 1701 44 q 1767 224 1767 156 q 1734 348 1767 292 q 1646 437 1701 404 q 1517 469 1590 469 q 1389 437 1446 469 q 1300 348 1332 404 q 1268 224 1268 292 m 1418 224 q 1431 276 1418 253 q 1465 314 1443 300 q 1517 328 1488 328 q 1569 314 1547 328 q 1604 276 1592 300 q 1617 224 1617 253 q 1604 172 1617 196 q 1569 133 1592 147 q 1517 119 1547 119 q 1465 133 1488 119 q 1431 172 1443 147 q 1418 224 1418 196 m 36 749 q 69 626 36 682 q 158 536 101 569 q 286 503 215 503 q 415 536 358 503 q 503 626 471 569 q 535 749 535 682 q 503 874 535 818 q 415 962 471 929 q 286 994 358 994 q 158 962 215 994 q 69 874 101 929 q 36 749 36 818 m 186 749 q 199 801 186 778 q 233 840 211 825 q 286 854 256 854 q 338 840 317 854 q 372 801 360 825 q 385 749 385 778 q 372 697 385 721 q 338 658 360 672 q 286 644 317 644 q 233 658 256 644 q 199 697 211 672 q 186 749 186 721 m 668 224 q 701 100 668 156 q 790 11 733 44 q 918 -22 847 -22 q 1047 11 990 -22 q 1135 100 1103 44 q 1167 224 1167 156 q 1135 348 1167 292 q 1047 437 1103 404 q 918 469 990 469 q 790 437 847 469 q 701 348 733 404 q 668 224 668 292 m 818 224 q 831 276 818 253 q 865 314 843 300 q 918 328 888 328 q 970 314 949 328 q 1004 276 992 300 q 1017 224 1017 253 q 1004 172 1017 196 q 970 133 992 147 q 918 119 949 119 q 865 133 888 119 q 831 172 843 147 q 818 224 818 196 m 865 972 l 157 0 l 339 0 l 1047 972 l 865 972 z "},"'":{"ha":417,"x_min":93,"x_max":351,"o":"m 157 972 l 93 538 l 211 538 l 351 972 l 157 972 z "},"\"":{"ha":696,"x_min":93,"x_max":631,"o":"m 157 972 l 93 538 l 211 538 l 351 972 l 157 972 m 436 972 l 374 538 l 492 538 l 631 972 l 436 972 z "},"‘":{"ha":436,"x_min":97,"x_max":367,"o":"m 289 629 l 367 972 l 239 972 l 97 629 l 289 629 z "},"’":{"ha":436,"x_min":69,"x_max":339,"o":"m 147 972 l 69 629 l 196 629 l 339 972 l 147 972 z "},"“":{"ha":743,"x_min":97,"x_max":674,"o":"m 289 629 l 367 972 l 239 972 l 97 629 l 289 629 m 596 629 l 674 972 l 547 972 l 404 629 l 596 629 z "},"”":{"ha":743,"x_min":69,"x_max":646,"o":"m 147 972 l 69 629 l 196 629 l 339 972 l 147 972 m 454 972 l 376 629 l 504 629 l 646 972 l 454 972 z "},"‚":{"ha":436,"x_min":83,"x_max":353,"o":"m 161 111 l 83 -232 l 210 -232 l 353 111 l 161 111 z "},"„":{"ha":743,"x_min":69,"x_max":646,"o":"m 147 111 l 69 -232 l 196 -232 l 339 111 l 147 111 m 454 111 l 376 -232 l 504 -232 l 646 111 l 454 111 z "},"‹":{"ha":486,"x_min":43,"x_max":407,"o":"m 199 360 l 407 618 l 296 699 l 43 354 l 296 10 l 407 90 l 199 360 z "},"›":{"ha":486,"x_min":79,"x_max":443,"o":"m 288 349 l 79 90 l 190 10 l 443 354 l 190 699 l 79 618 l 288 349 z "},"«":{"ha":738,"x_min":43,"x_max":671,"o":"m 463 360 l 671 618 l 560 699 l 307 354 l 560 10 l 671 90 l 463 360 m 199 360 l 407 618 l 296 699 l 43 354 l 296 10 l 407 90 l 199 360 z "},"»":{"ha":738,"x_min":68,"x_max":694,"o":"m 276 349 l 68 90 l 179 10 l 431 354 l 179 699 l 68 618 l 276 349 m 540 349 l 332 90 l 443 10 l 694 354 l 443 699 l 332 618 l 540 349 z "},"*":{"ha":822,"x_min":92,"x_max":731,"o":"m 681 836 l 396 707 l 426 618 l 731 681 l 681 836 m 660 461 l 449 690 l 374 635 l 526 365 l 660 461 m 296 365 l 449 635 l 374 690 l 163 461 l 296 365 m 92 681 l 396 618 l 426 707 l 142 836 l 92 681 m 329 972 l 364 663 l 458 663 l 493 972 l 329 972 z "},"†":{"ha":851,"x_min":125,"x_max":726,"o":"m 125 750 l 125 599 l 726 599 l 726 750 l 125 750 m 340 972 l 340 -208 l 511 -208 l 511 972 l 340 972 z "},"‡":{"ha":851,"x_min":125,"x_max":726,"o":"m 125 203 l 125 50 l 726 50 l 726 203 l 125 203 m 125 750 l 125 599 l 726 599 l 726 750 l 125 750 m 340 972 l 340 -208 l 511 -208 l 511 972 l 340 972 z "},".":{"ha":438,"x_min":106,"x_max":333,"o":"m 106 82 q 138 4 106 38 q 219 -29 171 -29 q 301 4 269 -29 q 333 82 333 38 q 301 162 333 129 q 219 194 269 194 q 138 162 171 194 q 106 82 106 129 z "},",":{"ha":443,"x_min":57,"x_max":358,"o":"m 179 153 l 57 -207 l 190 -239 l 358 108 l 179 153 z "},":":{"ha":438,"x_min":106,"x_max":333,"o":"m 106 82 q 138 4 106 38 q 219 -29 171 -29 q 301 4 269 -29 q 333 82 333 38 q 301 162 333 129 q 219 194 269 194 q 138 162 171 194 q 106 82 106 129 m 106 604 q 138 525 106 558 q 219 492 171 492 q 301 525 269 492 q 333 604 333 558 q 301 683 333 650 q 219 717 269 717 q 138 683 171 717 q 106 604 106 650 z "},";":{"ha":518,"x_min":78,"x_max":396,"o":"m 168 599 q 201 519 168 553 q 282 486 233 486 q 364 519 332 486 q 396 599 396 553 q 364 677 396 644 q 282 710 332 710 q 201 677 233 710 q 168 599 168 644 m 200 153 l 78 -207 l 211 -239 l 379 108 l 200 153 z "},"…":{"ha":1274,"x_min":106,"x_max":1167,"o":"m 106 82 q 138 4 106 38 q 219 -29 171 -29 q 301 4 269 -29 q 333 82 333 38 q 301 162 333 129 q 219 194 269 194 q 138 162 171 194 q 106 82 106 129 m 522 82 q 555 4 522 38 q 636 -29 588 -29 q 718 4 686 -29 q 750 82 750 38 q 718 162 750 129 q 636 194 686 194 q 555 162 588 194 q 522 82 522 129 m 939 82 q 972 4 939 38 q 1053 -29 1004 -29 q 1135 4 1103 -29 q 1167 82 1167 38 q 1135 162 1167 129 q 1053 194 1103 194 q 972 162 1004 194 q 939 82 939 129 z "},"!":{"ha":458,"x_min":115,"x_max":343,"o":"m 118 972 l 158 307 l 300 307 l 340 972 l 118 972 m 115 76 q 148 1 115 31 q 229 -29 181 -29 q 311 1 279 -29 q 343 76 343 31 q 311 152 343 122 q 229 182 279 182 q 148 152 181 182 q 115 76 115 122 z "},"¡":{"ha":458,"x_min":115,"x_max":343,"o":"m 340 -325 l 300 339 l 158 339 l 118 -325 l 340 -325 m 343 571 q 311 647 343 617 q 229 676 279 676 q 148 647 181 676 q 115 571 115 617 q 148 494 115 525 q 229 464 181 464 q 311 494 279 464 q 343 571 343 525 z "},"?":{"ha":840,"x_min":71,"x_max":763,"o":"m 582 694 q 554 612 582 654 q 470 541 526 569 q 331 513 414 513 l 288 513 l 315 265 l 458 265 l 467 399 q 610 447 542 408 q 720 548 678 485 q 763 694 763 611 q 735 819 763 764 q 660 913 708 874 q 552 974 613 953 q 425 994 492 994 q 279 974 343 994 q 165 914 215 953 q 71 819 115 875 l 197 721 q 290 809 235 778 q 411 840 346 840 q 502 823 464 840 q 561 774 540 806 q 582 694 582 742 m 275 74 q 308 1 275 32 q 389 -29 340 -29 q 471 1 439 -29 q 503 74 503 32 q 471 146 503 115 q 389 176 439 176 q 308 146 340 176 q 275 74 275 115 z "},"¿":{"ha":840,"x_min":78,"x_max":769,"o":"m 258 278 q 287 360 258 318 q 371 431 315 403 q 510 460 426 460 l 553 460 l 525 707 l 382 707 l 374 574 q 231 526 300 565 q 120 425 163 488 q 78 278 78 363 q 105 153 78 208 q 180 59 132 99 q 288 -1 228 19 q 415 -22 349 -22 q 562 -1 499 -22 q 675 58 625 19 q 769 153 725 97 l 643 251 q 550 163 606 194 q 429 132 494 132 q 338 149 376 132 q 279 199 300 167 q 258 278 258 232 m 565 899 q 533 971 565 940 q 451 1001 501 1001 q 370 971 403 1001 q 338 899 338 940 q 370 826 338 857 q 451 796 403 796 q 533 826 501 796 q 565 899 565 857 z "},"/":{"ha":804,"x_min":21,"x_max":783,"o":"m 610 972 l 21 -208 l 200 -208 l 783 972 l 610 972 z "},"\\":{"ha":744,"x_min":21,"x_max":724,"o":"m 21 972 l 547 0 l 724 0 l 199 972 l 21 972 z "},"⁄":{"ha":1003,"x_min":83,"x_max":950,"o":"m 806 972 l 83 0 l 228 0 l 950 972 l 806 972 z "},"|":{"ha":456,"x_min":139,"x_max":317,"o":"m 139 1090 l 139 -299 l 317 -299 l 317 1090 l 139 1090 z "},"¦":{"ha":456,"x_min":139,"x_max":317,"o":"m 139 965 l 139 608 l 317 608 l 317 965 l 139 965 m 317 364 l 139 364 l 139 7 l 317 7 l 317 364 z "}}}
